<svg xmlns="http://www.w3.org/2000/svg" width="76" height="76" viewBox="0 0 76 76" version="1.1"><path d="M 67.500 6.479 C 66.950 6.655, 63.125 7.562, 59 8.493 C 47.230 11.151, 34.560 17.610, 26.711 24.951 C 19.892 31.330, 18.811 33, 21.500 33 C 23.706 33, 23.711 51.790, 21.506 52.636 C 18.685 53.719, 21.121 55, 26 55 C 30.879 55, 33.315 53.719, 30.494 52.636 C 28.310 51.798, 28.315 34.200, 30.500 33.362 C 31.325 33.045, 32 32.170, 32 31.416 C 32 27.265, 53.108 15.299, 68.250 10.868 C 76.656 8.407, 78.715 5.943, 72.250 6.079 C 70.188 6.122, 68.050 6.302, 67.500 6.479 M 10.595 55.846 C 10.308 56.311, 9.821 60.474, 9.515 65.096 C 8.916 74.114, 9.518 73.794, 12.512 63.500 C 13.472 60.200, 14.473 56.938, 14.736 56.250 C 15.272 54.848, 11.443 54.474, 10.595 55.846" stroke="none" fill="#d75d05" fill-rule="evenodd"/><path d="M 2.750 32.566 C 0.067 34.028, 0 34.281, 0 43.006 C 0 51.897, 0.017 51.957, 2.950 53.474 C 4.573 54.313, 7.437 55, 9.315 55 C 13.110 55, 18 51.764, 18 49.253 C 18 47.949, 17.570 48.055, 15.686 49.826 C 12.661 52.667, 6.755 52.755, 4 50 C 0.943 46.943, 1.201 38.708, 4.455 35.455 C 5.805 34.105, 7.954 33, 9.232 33 C 12.109 33, 16 35.619, 16 37.557 C 16 38.351, 16.450 39, 17 39 C 17.550 39, 18 37.313, 18 35.250 L 17.999 31.500 11.750 31.284 C 7.718 31.144, 4.524 31.599, 2.750 32.566 M 34 34.511 C 34 38.293, 35.444 39.233, 36.290 36 C 36.603 34.803, 37.654 34, 38.906 34 C 40.877 34, 41 34.532, 41 43.031 C 41 50.121, 40.679 52.186, 39.506 52.636 C 36.568 53.763, 39.211 55, 44.559 55 C 49.768 55, 51.676 53.857, 48.500 52.638 C 47.320 52.186, 47 50.137, 47 43.031 C 47 34.131, 47.035 34, 49.433 34 C 50.987 34, 52.094 34.722, 52.500 36 C 53.393 38.813, 55 38.491, 55 35.500 C 55 33.944, 55.567 33, 56.500 33 C 57.733 33, 58 34.778, 58 43 C 58 51.390, 57.749 53, 56.441 53 C 55.584 53, 55.160 53.450, 55.500 54 C 56.397 55.451, 73.324 55.276, 74.800 53.800 C 76.248 52.352, 76.411 46, 75 46 C 74.450 46, 74 46.643, 74 47.429 C 74 49.780, 71.051 52, 67.929 52 L 65 52 65 42.500 C 65 34.722, 65.272 33, 66.500 33 C 67.325 33, 68 32.569, 68 32.043 C 68 31.471, 61.142 31.072, 51 31.054 L 34 31.022 34 34.511 M 16 57.500 C 16 58.679, 17.389 59, 22.500 59 C 27.732 59, 29 58.695, 29 57.434 C 29 56.173, 28.129 55.964, 24.523 56.361 C 22.061 56.632, 19.517 57.181, 18.869 57.581 C 18.131 58.037, 17.957 57.878, 18.405 57.155 C 18.827 56.470, 18.483 56, 17.559 56 C 16.702 56, 16 56.675, 16 57.500 M 30 57.750 C 30 58.672, 32.807 59, 40.700 59 C 48.786 59, 51.118 58.718, 50.246 57.846 C 48.575 56.175, 30 56.087, 30 57.750 M 51.646 57.519 C 52.016 58.483, 53.600 59, 56.190 59 C 61.570 59, 60.734 56.684, 55.221 56.315 C 51.903 56.092, 51.190 56.333, 51.646 57.519 M 61 57.632 C 61 59.067, 65.088 59.681, 71.298 59.179 C 74.324 58.934, 75.956 58.368, 75.715 57.645 C 75.193 56.079, 61 56.067, 61 57.632" stroke="none" fill="#32a64c" fill-rule="evenodd"/></svg>