<svg id="svg" version="1.1" xmlns="http://www.w3.org/2000/svg" xmlns:xlink="http://www.w3.org/1999/xlink" width="400" height="400" viewBox="0, 0, 400,400"><g id="svgg"><path id="path0" d="M0.000 200.000 L 0.000 400.000 200.000 400.000 L 400.000 400.000 400.000 200.000 L 400.000 0.000 200.000 0.000 L 0.000 0.000 0.000 200.000 M189.123 115.419 C 189.433 115.619,189.393 115.668,188.919 115.671 C 187.851 115.678,178.214 117.704,172.937 119.030 C 139.981 127.313,113.290 140.746,95.064 158.221 L 91.984 161.175 83.882 161.036 L 75.780 160.896 76.965 159.335 C 95.806 134.500,133.195 117.791,175.432 115.330 C 178.840 115.131,188.778 115.196,189.123 115.419 M133.205 161.495 C 147.832 162.876,158.818 171.027,163.946 184.304 C 164.422 185.537,164.811 186.607,164.811 186.683 C 164.811 186.758,163.257 186.820,161.356 186.820 C 157.513 186.820,157.604 186.762,158.541 188.612 C 159.444 190.394,159.417 190.453,157.070 191.815 C 154.016 193.587,151.490 195.524,148.414 198.450 C 145.941 200.802,145.341 201.219,141.451 203.297 C 137.976 205.154,136.928 205.849,135.742 207.083 C 133.055 209.881,131.844 209.944,129.525 207.406 C 126.199 203.767,125.397 200.260,126.656 194.865 C 127.333 191.962,127.527 190.466,127.696 186.820 C 127.956 181.236,128.424 179.833,130.743 177.671 C 131.592 176.880,131.189 176.948,130.012 177.794 C 127.742 179.426,127.192 181.036,126.931 186.820 C 126.775 190.265,126.575 191.919,126.064 193.986 C 125.699 195.464,125.400 196.990,125.400 197.377 C 125.400 198.038,125.332 198.081,124.271 198.081 C 121.740 198.081,119.226 199.303,116.351 201.931 C 114.275 203.829,113.784 202.867,114.955 199.195 C 115.543 197.352,115.709 194.673,115.282 193.935 C 115.094 193.612,115.025 193.873,115.010 194.960 C 114.999 195.763,114.783 197.052,114.531 197.826 C 113.732 200.269,113.829 200.212,112.172 199.214 C 110.603 198.269,109.227 198.091,107.961 198.668 C 106.978 199.116,103.391 202.564,103.391 203.061 C 103.391 203.727,104.666 202.863,106.528 200.934 C 108.797 198.586,109.822 198.384,111.683 199.918 C 112.865 200.893,112.877 200.841,111.052 202.791 C 109.351 204.610,107.422 206.002,105.623 206.708 C 104.544 207.132,104.031 207.780,104.919 207.597 C 105.582 207.460,108.500 206.056,109.293 205.491 L 110.045 204.956 110.045 207.382 C 110.045 211.321,110.930 214.893,112.492 217.253 C 114.589 220.421,119.342 220.797,120.722 217.904 L 121.156 216.995 120.411 216.401 C 119.671 215.811,119.669 215.802,120.124 215.109 C 120.568 214.431,120.566 214.394,120.047 213.843 C 118.352 212.038,121.363 210.905,123.369 212.593 C 126.406 215.149,125.517 221.330,121.750 223.847 C 120.335 224.793,120.326 224.782,123.131 225.473 C 136.090 228.662,149.406 222.782,154.882 211.452 L 156.150 208.829 160.850 208.829 L 165.551 208.829 165.153 210.172 C 160.634 225.388,146.940 235.043,129.878 235.043 C 112.092 235.043,98.893 224.860,94.903 208.061 C 94.619 206.865,94.268 205.743,94.124 205.568 C 93.980 205.393,93.918 204.953,93.987 204.592 C 94.057 204.230,94.010 202.473,93.884 200.688 C 92.670 183.471,102.310 168.297,117.635 163.302 C 121.569 162.020,123.228 161.744,129.878 161.266 C 130.160 161.245,131.657 161.348,133.205 161.495 M188.293 198.273 L 188.358 233.909 183.878 233.909 L 179.399 233.909 179.399 198.203 L 179.399 162.496 183.813 162.566 L 188.228 162.636 188.293 198.273 M260.013 166.859 L 260.013 171.209 247.985 171.209 L 235.956 171.209 235.956 202.559 L 235.956 233.909 231.478 233.909 L 226.999 233.909 226.999 202.559 L 226.999 171.209 214.843 171.209 L 202.687 171.209 202.687 167.029 C 202.687 164.730,202.764 162.772,202.858 162.679 C 202.952 162.585,215.850 162.508,231.521 162.508 L 260.013 162.508 260.013 166.859 M282.982 194.050 L 283.047 225.464 300.321 225.464 L 317.594 225.464 317.594 229.687 L 317.594 233.909 295.713 233.909 L 273.832 233.909 273.832 198.379 C 273.832 178.838,273.912 162.770,274.009 162.673 C 274.106 162.576,276.150 162.528,278.551 162.566 L 282.917 162.636 282.982 194.050 M114.048 180.963 C 113.166 181.201,112.421 181.842,111.936 182.779 L 111.577 183.474 112.832 182.694 C 113.740 182.130,114.523 181.874,115.663 181.771 C 116.530 181.692,117.146 181.536,117.033 181.424 C 116.656 181.050,114.790 180.762,114.048 180.963 M104.296 188.853 C 104.193 189.018,104.407 189.125,104.847 189.127 C 105.243 189.129,105.854 189.194,106.206 189.273 C 106.675 189.377,106.743 189.349,106.462 189.170 C 105.811 188.757,104.476 188.561,104.296 188.853 M103.313 193.382 C 102.961 193.734,103.470 193.985,104.494 193.965 L 105.566 193.944 104.798 193.593 C 103.934 193.197,103.552 193.143,103.313 193.382 M315.732 238.931 C 316.399 239.110,315.645 240.215,311.828 244.658 C 297.440 261.402,273.476 274.413,245.681 280.572 C 239.809 281.873,239.000 282.029,234.254 282.776 C 223.292 284.502,203.220 285.650,202.564 284.589 C 202.470 284.437,202.652 284.324,202.992 284.323 C 203.917 284.321,213.357 282.372,218.035 281.218 C 251.436 272.976,280.278 258.483,297.116 241.480 L 299.799 238.772 307.481 238.775 C 311.706 238.777,315.419 238.847,315.732 238.931 M175.634 240.723 C 175.952 241.041,174.795 242.866,174.275 242.866 C 173.671 242.866,173.648 242.627,174.139 241.451 C 174.485 240.624,175.191 240.280,175.634 240.723 M161.555 241.648 C 161.734 242.145,161.262 242.866,160.759 242.866 C 159.765 242.866,159.305 241.573,160.134 241.109 C 160.620 240.837,161.366 241.120,161.555 241.648 M209.156 241.648 C 209.334 242.145,208.863 242.866,208.360 242.866 C 207.365 242.866,206.906 241.573,207.735 241.109 C 208.221 240.837,208.967 241.120,209.156 241.648 M220.601 241.800 C 220.601 242.829,219.290 243.251,218.820 242.373 C 218.675 242.102,218.623 241.705,218.705 241.492 C 219.021 240.668,220.601 240.925,220.601 241.800 M130.441 241.867 C 131.405 242.334,132.821 244.046,132.821 244.744 C 132.821 245.216,131.556 244.846,131.174 244.262 C 129.224 241.285,124.636 242.613,124.633 246.155 C 124.630 249.693,128.404 251.256,130.828 248.722 C 132.486 246.988,133.508 247.547,132.008 249.367 C 129.412 252.516,124.568 251.636,123.457 247.814 C 122.177 243.412,126.330 239.877,130.441 241.867 M186.052 246.193 L 186.052 251.056 185.413 251.056 L 184.773 251.056 184.773 246.193 L 184.773 241.331 185.413 241.331 L 186.052 241.331 186.052 246.193 M166.554 243.046 C 166.628 243.806,166.706 243.867,167.706 243.940 C 169.298 244.056,169.277 245.006,167.681 245.121 L 166.583 245.200 166.657 247.424 L 166.731 249.648 167.754 249.776 C 169.355 249.976,169.418 251.056,167.829 251.056 C 165.787 251.056,165.071 249.945,165.069 246.769 C 165.067 245.234,165.041 245.170,164.427 245.170 C 163.451 245.170,163.507 243.956,164.489 243.843 C 164.958 243.789,165.218 243.592,165.272 243.250 C 165.425 242.285,165.578 242.061,166.026 242.146 C 166.320 242.201,166.502 242.512,166.554 243.046 M140.959 244.301 C 142.651 245.408,143.091 248.493,141.763 249.934 C 139.146 252.771,134.858 250.943,135.175 247.126 C 135.414 244.249,138.544 242.720,140.959 244.301 M150.657 244.453 L 151.217 244.975 151.870 244.461 C 153.424 243.239,155.694 243.648,156.474 245.292 C 157.217 246.857,157.045 251.056,156.238 251.056 C 155.603 251.056,155.598 251.040,155.598 248.736 C 155.598 245.621,154.998 244.668,153.275 245.046 C 152.150 245.293,151.759 246.277,151.759 248.868 C 151.759 251.031,151.752 251.056,151.120 251.056 C 150.482 251.056,150.480 251.048,150.480 248.613 C 150.480 245.689,149.901 244.710,148.355 245.019 C 146.969 245.296,146.778 245.694,146.681 248.505 C 146.595 251.004,146.581 251.056,145.977 251.056 L 145.361 251.056 145.361 247.473 C 145.361 244.061,145.386 243.890,145.873 243.890 C 146.155 243.890,146.385 244.050,146.385 244.246 C 146.385 244.526,146.592 244.496,147.345 244.107 C 148.483 243.519,149.801 243.657,150.657 244.453 M176.357 244.332 C 177.184 244.820,177.760 245.767,177.996 247.025 L 178.176 247.985 175.076 247.985 C 171.742 247.985,171.629 248.043,172.640 249.245 C 173.457 250.216,174.860 250.327,175.907 249.503 C 176.301 249.193,176.857 249.008,177.247 249.055 L 177.915 249.136 177.334 249.871 C 175.224 252.542,171.035 251.287,170.754 247.901 C 170.480 244.593,173.519 242.657,176.357 244.332 M203.183 244.367 C 207.021 247.137,203.585 252.983,199.365 250.863 C 197.556 249.954,196.754 247.505,197.680 245.714 C 198.655 243.828,201.479 243.137,203.183 244.367 M228.739 244.307 C 229.580 244.848,230.324 246.184,230.325 247.153 L 230.326 247.985 227.279 247.985 C 223.939 247.985,223.547 248.268,225.146 249.526 C 226.063 250.248,228.535 250.026,228.535 249.223 C 228.535 249.105,228.880 249.008,229.303 249.008 C 230.490 249.008,230.281 249.566,228.691 250.639 C 226.434 252.164,223.540 250.909,223.029 248.185 C 222.436 245.023,226.046 242.572,228.739 244.307 M238.460 244.297 C 239.917 245.252,240.514 251.056,239.155 251.056 C 238.523 251.056,238.516 251.031,238.516 248.868 C 238.516 245.167,237.059 243.771,235.169 245.662 C 234.452 246.379,234.421 246.506,234.421 248.733 C 234.421 251.040,234.417 251.056,233.781 251.056 L 233.141 251.056 233.141 247.473 C 233.141 244.061,233.166 243.890,233.653 243.890 C 234.008 243.890,234.165 244.061,234.165 244.446 L 234.165 245.003 234.741 244.472 C 235.731 243.559,237.225 243.489,238.460 244.297 M161.228 247.473 L 161.228 251.056 160.589 251.056 L 159.949 251.056 159.949 247.473 L 159.949 243.890 160.589 243.890 L 161.228 243.890 161.228 247.473 M190.902 246.449 C 191.503 247.857,192.070 249.008,192.162 249.008 C 192.253 249.008,192.827 247.857,193.436 246.449 C 194.400 244.222,194.624 243.890,195.161 243.890 C 195.970 243.890,196.000 243.757,194.306 247.658 C 192.272 252.341,192.068 252.341,190.058 247.665 C 188.392 243.788,188.415 243.890,189.211 243.890 C 189.726 243.890,189.962 244.248,190.902 246.449 M208.829 247.473 L 208.829 251.056 208.189 251.056 L 207.550 251.056 207.550 247.473 L 207.550 243.890 208.189 243.890 L 208.829 243.890 208.829 247.473 M213.180 244.274 C 213.180 244.745,213.379 244.745,214.203 244.274 C 215.274 243.662,216.560 243.769,216.461 244.462 C 216.397 244.906,216.159 245.070,215.402 245.193 C 213.815 245.449,213.576 245.876,213.475 248.633 C 213.388 250.996,213.371 251.056,212.771 251.056 L 212.156 251.056 212.156 247.473 C 212.156 244.061,212.180 243.890,212.668 243.890 C 212.952 243.890,213.180 244.061,213.180 244.274 M220.345 247.473 L 220.345 251.056 219.706 251.056 L 219.066 251.056 219.066 247.473 L 219.066 243.890 219.706 243.890 L 220.345 243.890 220.345 247.473 M137.775 245.155 C 136.006 245.908,135.896 248.825,137.603 249.734 C 140.020 251.021,142.490 247.886,140.691 245.815 C 140.059 245.087,138.673 244.774,137.775 245.155 M173.348 245.167 C 172.816 245.382,171.977 246.358,171.977 246.762 C 171.977 246.871,173.069 246.961,174.403 246.961 L 176.828 246.961 176.528 246.302 C 176.016 245.177,174.587 244.667,173.348 245.167 M199.963 245.155 C 198.443 245.802,198.104 248.047,199.341 249.284 C 201.142 251.085,204.016 249.439,203.527 246.885 C 203.266 245.518,201.325 244.576,199.963 245.155 M225.592 245.210 C 223.691 246.348,224.094 246.961,226.743 246.961 C 229.204 246.961,229.371 246.851,228.471 245.815 C 227.808 245.052,226.362 244.749,225.592 245.210 M120.026 261.036 L 120.026 266.155 119.386 266.155 C 119.010 266.155,118.746 266.008,118.746 265.799 C 118.746 265.520,118.537 265.551,117.786 265.943 C 115.954 266.900,113.737 266.190,112.796 264.345 C 111.063 260.946,114.587 257.619,118.033 259.402 L 118.746 259.770 118.746 257.844 C 118.746 255.960,118.760 255.918,119.386 255.918 L 120.026 255.918 120.026 261.036 M246.193 261.036 L 246.193 266.155 245.553 266.155 L 244.914 266.155 244.914 261.207 C 244.914 256.092,244.940 255.918,245.724 255.918 C 246.163 255.918,246.193 256.244,246.193 261.036 M218.430 256.698 C 218.775 257.785,217.296 258.401,216.684 257.424 C 216.270 256.764,216.658 256.174,217.505 256.174 C 218.045 256.174,218.312 256.325,218.430 256.698 M232.505 256.698 C 232.851 257.785,231.371 258.401,230.760 257.424 C 230.346 256.764,230.733 256.174,231.581 256.174 C 232.120 256.174,232.387 256.325,232.505 256.698 M151.248 257.058 C 151.248 257.649,151.155 257.690,149.648 257.761 L 148.049 257.837 147.978 261.996 L 147.908 266.155 147.275 266.155 L 146.641 266.155 146.641 261.932 L 146.641 257.710 145.106 257.710 C 143.638 257.710,143.570 257.681,143.570 257.070 L 143.570 256.430 147.409 256.430 L 151.248 256.430 151.248 257.058 M190.601 260.717 L 190.672 264.875 192.969 264.875 C 195.248 264.875,195.266 264.880,195.266 265.515 L 195.266 266.155 192.194 266.155 L 189.123 266.155 189.123 261.463 C 189.123 256.563,189.159 256.362,190.009 256.483 C 190.507 256.554,190.534 256.752,190.601 260.717 M171.977 258.093 C 171.977 258.986,171.981 258.989,173.146 258.989 C 174.844 258.989,174.771 260.096,173.065 260.219 L 171.977 260.298 171.977 262.280 C 171.977 264.509,172.183 264.875,173.436 264.875 C 174.166 264.875,174.280 264.962,174.280 265.515 C 174.280 266.104,174.187 266.155,173.116 266.155 C 171.211 266.155,170.697 265.386,170.697 262.535 L 170.697 260.269 169.930 260.269 C 168.854 260.269,168.782 259.068,169.851 258.942 C 170.385 258.879,170.588 258.675,170.754 258.029 C 171.069 256.805,171.977 256.853,171.977 258.093 M128.419 259.406 C 129.260 259.948,130.004 261.283,130.005 262.252 L 130.006 263.084 126.959 263.084 C 123.619 263.084,123.227 263.367,124.826 264.625 C 125.743 265.347,128.215 265.126,128.215 264.322 C 128.215 264.204,128.560 264.107,128.983 264.107 C 130.170 264.107,129.961 264.665,128.371 265.738 C 126.114 267.263,123.221 266.009,122.709 263.284 C 122.116 260.123,125.726 257.671,128.419 259.406 M136.521 259.096 C 137.455 259.486,138.344 260.590,138.075 261.025 C 137.802 261.467,137.297 261.330,136.708 260.653 C 136.077 259.927,134.765 259.786,133.980 260.360 C 133.186 260.941,133.703 261.484,135.582 262.044 C 137.944 262.747,138.520 263.410,138.112 264.956 C 137.775 266.233,135.518 266.796,133.730 266.049 C 132.321 265.460,131.750 263.852,132.949 263.852 C 133.341 263.852,133.589 263.997,133.589 264.226 C 133.589 264.950,135.381 265.410,136.511 264.976 C 137.844 264.464,136.778 263.425,134.441 262.958 C 133.995 262.869,133.333 262.521,132.970 262.184 C 131.016 260.374,133.795 257.957,136.521 259.096 M157.594 259.406 C 158.435 259.948,159.179 261.283,159.180 262.252 L 159.181 263.084 156.134 263.084 C 152.794 263.084,152.401 263.367,154.001 264.625 C 154.918 265.347,157.390 265.126,157.390 264.322 C 157.390 264.204,157.735 264.107,158.157 264.107 C 159.344 264.107,159.135 264.665,157.546 265.738 C 155.288 267.263,152.395 266.009,151.884 263.284 C 151.291 260.123,154.901 257.671,157.594 259.406 M165.695 259.096 C 166.629 259.486,167.518 260.590,167.249 261.025 C 166.976 261.467,166.471 261.330,165.883 260.653 C 165.252 259.927,163.939 259.786,163.155 260.360 C 162.360 260.941,162.877 261.484,164.757 262.044 C 167.118 262.747,167.694 263.410,167.286 264.956 C 166.949 266.233,164.693 266.796,162.904 266.049 C 161.496 265.460,160.925 263.852,162.124 263.852 C 162.515 263.852,162.764 263.997,162.764 264.226 C 162.764 264.950,164.556 265.410,165.686 264.976 C 167.019 264.464,165.953 263.425,163.616 262.958 C 163.170 262.869,162.507 262.521,162.144 262.184 C 160.191 260.374,162.969 257.957,165.695 259.096 M180.131 258.892 C 181.123 259.091,182.214 260.073,182.214 260.768 C 182.214 261.492,181.509 261.435,180.784 260.653 C 179.838 259.632,177.863 259.816,177.863 260.926 C 177.863 261.418,178.061 261.581,178.951 261.818 C 180.735 262.293,181.652 262.770,182.101 263.456 C 183.683 265.869,178.944 267.587,176.864 265.354 C 176.112 264.548,176.160 263.852,176.967 263.852 C 177.319 263.852,177.607 263.959,177.607 264.089 C 177.607 265.012,180.255 265.566,180.907 264.780 C 181.447 264.129,180.911 263.610,179.157 263.088 C 176.787 262.382,176.106 261.540,176.722 260.075 C 177.162 259.027,178.493 258.565,180.131 258.892 M202.415 259.466 C 206.253 262.236,202.817 268.082,198.598 265.962 C 196.788 265.053,195.986 262.604,196.912 260.813 C 197.888 258.927,200.711 258.236,202.415 259.466 M211.813 259.382 C 212.287 259.688,212.385 259.685,212.508 259.363 C 212.587 259.158,212.886 258.989,213.172 258.989 C 213.833 258.989,213.969 265.508,213.339 267.016 C 212.343 269.400,208.205 269.871,207.060 267.731 C 206.372 266.446,207.361 265.822,208.158 267.039 C 209.036 268.379,211.619 268.097,212.139 266.604 C 212.608 265.260,212.504 265.082,211.580 265.646 C 208.831 267.322,205.530 264.515,206.488 261.316 C 207.150 259.108,209.858 258.124,211.813 259.382 M226.162 259.236 C 226.786 259.519,227.464 260.086,227.762 260.574 L 228.279 261.420 227.666 261.499 C 227.275 261.549,226.817 261.343,226.408 260.933 C 225.109 259.635,223.206 259.876,222.463 261.433 C 221.210 264.061,224.252 266.383,226.285 264.350 C 226.815 263.819,227.268 263.593,227.693 263.646 L 228.319 263.724 227.718 264.619 C 226.084 267.056,222.612 266.907,221.306 264.345 C 219.657 261.111,222.863 257.738,226.162 259.236 M240.638 259.412 C 241.405 259.809,242.339 261.498,242.349 262.508 C 242.354 263.073,242.299 263.084,239.283 263.084 C 235.921 263.084,235.754 263.177,236.960 264.383 C 237.866 265.289,239.148 265.385,240.121 264.619 C 241.617 263.443,242.616 264.112,241.208 265.348 C 238.392 267.820,234.297 265.430,235.034 261.745 C 235.535 259.243,238.181 258.141,240.638 259.412 M253.159 259.000 C 254.154 259.277,254.894 260.061,254.894 260.837 C 254.894 261.493,254.154 261.397,253.464 260.653 C 252.771 259.904,251.314 259.777,250.782 260.418 C 250.243 261.067,250.813 261.625,252.413 262.015 C 254.922 262.628,255.811 264.078,254.566 265.526 C 253.156 267.165,249.008 266.176,249.008 264.201 C 249.008 263.618,250.054 263.810,250.590 264.491 C 251.539 265.699,254.482 265.134,253.700 263.894 C 253.553 263.660,252.722 263.282,251.854 263.055 C 249.933 262.551,249.264 261.998,249.264 260.913 C 249.264 259.278,251.033 258.410,253.159 259.000 M218.042 262.572 L 218.042 266.155 217.402 266.155 L 216.763 266.155 216.763 262.743 C 216.763 259.185,216.805 258.989,217.573 258.989 C 218.006 258.989,218.042 259.268,218.042 262.572 M232.118 262.572 L 232.118 266.155 231.478 266.155 L 230.838 266.155 230.838 262.743 C 230.838 259.185,230.880 258.989,231.649 258.989 C 232.081 258.989,232.118 259.268,232.118 262.572 M114.879 260.397 C 113.452 261.172,113.273 263.590,114.567 264.608 C 115.759 265.546,117.678 265.174,118.350 263.875 C 119.592 261.474,117.237 259.115,114.879 260.397 M125.272 260.309 C 123.371 261.447,123.774 262.060,126.424 262.060 C 128.884 262.060,129.051 261.950,128.151 260.914 C 127.488 260.152,126.043 259.848,125.272 260.309 M154.447 260.309 C 152.545 261.447,152.949 262.060,155.598 262.060 C 158.059 262.060,158.226 261.950,157.326 260.914 C 156.663 260.152,155.217 259.848,154.447 260.309 M199.196 260.255 C 197.675 260.901,197.336 263.147,198.573 264.383 C 200.374 266.184,203.248 264.538,202.760 261.984 C 202.498 260.617,200.557 259.675,199.196 260.255 M208.753 260.409 C 206.663 261.579,207.569 264.875,209.981 264.875 C 211.264 264.875,212.412 263.743,212.412 262.478 C 212.412 260.651,210.377 259.500,208.753 260.409 M237.611 260.244 C 235.493 261.151,236.002 262.060,238.628 262.060 C 240.874 262.060,241.019 262.029,240.897 261.565 C 240.605 260.448,238.815 259.729,237.611 260.244 " stroke="none" fill="#fbfbfb" fill-rule="evenodd"></path><path id="path1" d="M202.943 166.987 L 202.943 171.209 214.971 171.209 L 226.999 171.209 226.999 202.559 L 226.999 233.909 231.478 233.909 L 235.956 233.909 235.956 202.559 L 235.956 171.209 247.985 171.209 L 260.013 171.209 260.013 166.987 L 260.013 162.764 231.478 162.764 L 202.943 162.764 202.943 166.987 M274.088 198.337 L 274.088 233.909 295.841 233.909 L 317.594 233.909 317.594 229.687 L 317.594 225.464 300.192 225.464 L 282.790 225.464 282.790 194.114 L 282.790 162.764 278.439 162.764 L 274.088 162.764 274.088 198.337 M131.926 166.696 C 131.363 166.888,129.993 167.465,128.881 167.978 C 125.571 169.506,124.732 169.704,120.018 170.061 C 112.825 170.606,110.049 172.230,108.011 177.086 C 107.688 177.856,106.968 179.208,106.409 180.091 C 105.522 181.497,105.371 181.962,105.202 183.811 C 105.094 184.993,104.775 186.452,104.479 187.121 C 103.879 188.474,103.929 188.608,105.033 188.621 C 105.467 188.626,106.110 188.800,106.462 189.007 C 107.073 189.368,107.034 189.383,105.566 189.361 C 104.722 189.348,103.885 189.347,103.708 189.358 C 103.418 189.377,102.437 191.276,101.991 192.681 C 101.833 193.180,101.918 193.219,103.182 193.230 C 105.818 193.252,106.457 193.941,103.864 193.965 L 101.650 193.986 101.381 194.756 C 101.233 195.180,101.034 196.216,100.939 197.060 L 100.766 198.592 102.014 198.618 C 104.890 198.677,104.714 199.360,101.823 199.360 L 100.832 199.360 100.832 201.408 C 100.832 202.654,100.936 203.455,101.098 203.455 C 101.812 203.455,103.678 202.188,105.448 200.503 C 108.275 197.810,109.855 197.499,112.320 199.150 C 112.938 199.564,113.533 199.810,113.643 199.696 C 114.142 199.178,114.908 196.172,114.916 194.698 C 114.925 193.175,114.945 193.124,115.291 193.730 C 115.821 194.658,115.760 197.084,115.163 198.782 C 114.704 200.090,114.445 202.943,114.786 202.943 C 114.861 202.943,115.926 202.123,117.154 201.121 C 119.856 198.915,121.147 198.298,123.395 198.137 L 125.110 198.014 125.282 196.960 C 125.376 196.380,125.728 194.754,126.062 193.346 C 126.495 191.529,126.736 189.486,126.896 186.298 C 127.182 180.569,127.614 179.395,130.109 177.570 C 131.506 176.547,131.815 176.660,130.738 177.799 C 128.335 180.341,127.979 181.477,127.716 187.460 C 127.553 191.190,127.381 192.578,126.816 194.754 C 125.552 199.623,126.145 202.865,128.989 206.632 C 131.403 209.830,132.852 209.892,135.765 206.921 C 136.982 205.680,138.042 204.963,140.883 203.463 C 145.497 201.026,146.259 200.498,149.078 197.780 C 152.001 194.960,153.005 194.181,156.366 192.118 C 159.437 190.234,159.352 190.494,157.871 187.496 C 155.374 182.438,143.318 169.550,139.180 167.513 C 136.902 166.392,133.834 166.047,131.926 166.696 M116.522 181.058 C 118.011 181.680,117.909 181.958,116.194 181.958 C 114.508 181.958,113.078 182.432,112.160 183.294 C 111.485 183.928,111.404 183.553,111.977 182.446 C 112.791 180.870,114.687 180.291,116.522 181.058 M106.626 200.995 C 103.690 204.033,101.432 204.878,96.799 204.673 C 93.407 204.523,92.989 204.956,95.205 206.324 C 99.849 209.190,107.352 207.295,111.496 202.209 C 112.756 200.662,112.720 200.458,111.032 199.597 C 109.259 198.693,108.671 198.880,106.626 200.995 M109.149 205.659 C 108.081 206.486,105.703 207.534,103.915 207.966 C 101.646 208.513,101.645 208.515,102.477 211.448 C 103.735 215.881,105.970 219.857,108.603 222.341 C 114.674 228.070,124.392 225.390,125.073 217.800 C 125.424 213.894,122.272 210.540,119.990 212.390 L 119.386 212.880 119.962 213.494 C 120.570 214.143,120.708 214.836,120.282 215.099 C 119.854 215.364,119.995 216.109,120.537 216.447 C 121.445 217.014,120.864 218.752,119.536 219.438 C 114.601 221.990,110.038 216.547,109.946 207.998 C 109.930 206.485,109.859 205.251,109.789 205.255 C 109.718 205.259,109.431 205.441,109.149 205.659 M297.499 241.354 C 278.441 260.648,242.956 277.204,206.142 283.978 C 198.974 285.297,216.054 284.949,227.639 283.540 C 236.951 282.407,246.558 280.451,255.150 277.938 C 277.410 271.428,295.274 261.514,307.961 248.631 C 310.704 245.846,315.803 239.764,315.803 239.278 C 315.803 239.120,312.849 239.028,307.800 239.028 L 299.797 239.028 297.499 241.354 M174.139 241.706 C 173.666 242.839,173.669 242.866,174.277 242.866 C 174.693 242.866,175.560 241.549,175.560 240.916 C 175.560 240.360,174.442 240.982,174.139 241.706 M160.010 241.372 C 159.544 241.838,159.622 242.299,160.221 242.619 C 160.893 242.979,161.542 242.505,161.433 241.737 C 161.345 241.120,160.483 240.899,160.010 241.372 M207.611 241.372 C 207.145 241.838,207.223 242.299,207.822 242.619 C 208.493 242.979,209.143 242.505,209.033 241.737 C 208.945 241.120,208.083 240.899,207.611 241.372 M218.981 241.245 C 218.691 241.535,218.792 242.277,219.161 242.583 C 219.882 243.182,220.917 242.147,220.319 241.426 C 220.012 241.057,219.270 240.956,218.981 241.245 M126.175 241.736 C 120.820 244.059,123.533 252.306,129.231 251.029 C 130.889 250.657,132.821 248.956,132.821 247.869 C 132.821 247.417,131.665 247.848,131.111 248.506 C 128.397 251.731,123.529 249.268,124.618 245.221 C 125.382 242.385,130.343 241.579,131.162 244.159 C 131.349 244.748,132.566 244.865,132.566 244.293 C 132.566 242.364,128.489 240.732,126.175 241.736 M184.773 246.321 L 184.773 251.056 185.413 251.056 L 186.052 251.056 186.052 246.321 L 186.052 241.587 185.413 241.587 L 184.773 241.587 184.773 246.321 M165.416 242.930 C 165.233 243.571,165.019 243.781,164.483 243.843 C 163.510 243.956,163.516 244.848,164.491 244.961 C 165.189 245.041,165.196 245.062,165.336 247.345 C 165.413 248.612,165.563 249.834,165.670 250.061 C 166.144 251.074,168.906 251.486,168.906 250.544 C 168.906 250.146,168.735 250.032,168.138 250.032 C 166.749 250.032,166.315 249.278,166.400 247.014 L 166.475 245.042 167.562 244.963 C 169.216 244.843,169.159 243.890,167.498 243.890 C 166.353 243.890,166.347 243.885,166.347 242.994 C 166.347 241.838,165.739 241.797,165.416 242.930 M136.709 244.408 C 135.737 245.001,135.124 246.257,135.126 247.657 C 135.130 252.175,141.972 252.392,142.479 247.889 C 142.826 244.813,139.418 242.757,136.709 244.408 M145.532 244.061 C 145.438 244.154,145.361 245.767,145.361 247.643 L 145.361 251.056 146.001 251.056 C 146.638 251.056,146.641 251.045,146.641 248.659 C 146.641 245.791,147.091 244.914,148.560 244.914 C 150.030 244.914,150.480 245.791,150.480 248.659 C 150.480 251.045,150.483 251.056,151.120 251.056 C 151.757 251.056,151.759 251.048,151.759 248.613 C 151.759 245.826,152.257 244.914,153.777 244.914 C 155.138 244.914,155.598 245.859,155.598 248.659 C 155.598 251.045,155.601 251.056,156.238 251.056 C 157.581 251.056,157.011 245.318,155.568 244.307 C 154.514 243.569,151.504 244.040,151.504 244.943 C 151.504 245.093,151.149 244.917,150.716 244.552 C 149.807 243.788,148.087 243.645,147.266 244.266 C 146.626 244.749,146.385 244.751,146.385 244.274 C 146.385 243.884,145.844 243.749,145.532 244.061 M160.205 247.473 C 160.205 250.885,160.229 251.056,160.717 251.056 C 161.204 251.056,161.228 250.885,161.228 247.473 C 161.228 244.061,161.204 243.890,160.717 243.890 C 160.229 243.890,160.205 244.061,160.205 247.473 M172.426 244.292 C 169.720 245.760,170.403 250.378,173.430 251.068 C 175.029 251.433,177.607 250.327,177.607 249.276 C 177.607 248.824,176.594 248.979,176.013 249.520 C 175.195 250.282,173.422 250.221,172.605 249.404 C 171.369 248.168,171.668 247.985,174.920 247.985 L 177.863 247.985 177.863 247.204 C 177.863 244.682,174.765 243.023,172.426 244.292 M188.619 244.064 C 188.623 244.179,189.289 245.771,190.100 247.601 C 192.108 252.134,192.237 252.131,194.271 247.492 C 196.027 243.488,195.924 243.890,195.189 243.890 C 194.686 243.890,194.438 244.275,193.462 246.573 C 192.079 249.829,192.275 249.824,190.895 246.641 C 189.986 244.546,189.642 244.001,189.184 243.936 C 188.869 243.891,188.615 243.949,188.619 244.064 M199.178 244.307 C 197.576 245.097,196.883 247.573,197.790 249.268 C 199.572 252.602,204.730 251.306,204.734 247.524 C 204.736 244.644,201.866 242.982,199.178 244.307 M207.806 247.473 C 207.806 250.885,207.830 251.056,208.317 251.056 C 208.805 251.056,208.829 250.885,208.829 247.473 C 208.829 244.061,208.805 243.890,208.317 243.890 C 207.830 243.890,207.806 244.061,207.806 247.473 M212.327 244.061 C 212.233 244.154,212.156 245.767,212.156 247.643 L 212.156 251.056 212.796 251.056 C 213.430 251.056,213.436 251.036,213.436 248.787 C 213.436 246.143,213.848 245.341,215.351 245.059 C 216.035 244.931,216.251 244.764,216.251 244.362 C 216.251 243.673,214.632 243.908,213.756 244.723 L 213.180 245.259 213.180 244.574 C 213.180 243.931,212.729 243.659,212.327 244.061 M219.066 247.473 C 219.066 250.885,219.090 251.056,219.578 251.056 C 220.065 251.056,220.090 250.885,220.090 247.473 C 220.090 244.061,220.065 243.890,219.578 243.890 C 219.090 243.890,219.066 244.061,219.066 247.473 M224.773 244.391 C 222.748 245.626,222.558 248.983,224.428 250.476 C 225.837 251.600,228.281 251.350,229.451 249.963 C 230.339 248.911,229.561 248.613,228.321 249.529 C 227.174 250.378,225.784 250.279,224.897 249.286 C 223.794 248.052,223.916 247.985,227.255 247.985 C 230.728 247.985,230.731 247.983,229.917 245.947 C 229.152 244.037,226.614 243.269,224.773 244.391 M233.141 247.473 C 233.141 250.885,233.166 251.056,233.653 251.056 C 234.114 251.056,234.165 250.885,234.166 249.328 C 234.169 246.177,234.875 244.914,236.635 244.914 C 238.062 244.914,238.516 245.817,238.516 248.659 L 238.516 251.056 239.190 251.056 L 239.864 251.056 239.743 248.558 C 239.542 244.380,237.311 242.476,234.868 244.398 C 234.224 244.904,234.222 244.904,234.090 244.398 C 234.017 244.118,233.774 243.890,233.549 243.890 C 233.195 243.890,233.141 244.365,233.141 247.473 M140.091 245.205 C 141.098 245.664,141.648 247.070,141.289 248.268 C 140.594 250.588,137.333 250.739,136.403 248.493 C 135.474 246.250,137.811 244.166,140.091 245.205 M176.091 245.662 C 177.262 246.833,177.096 246.961,174.408 246.961 C 171.702 246.961,171.464 246.775,172.652 245.588 C 173.621 244.619,175.079 244.650,176.091 245.662 M202.595 245.287 C 204.713 246.771,203.601 250.032,200.978 250.032 C 199.189 250.032,198.440 249.073,198.578 246.961 C 198.680 245.388,201.225 244.328,202.595 245.287 M228.419 245.591 C 229.532 246.792,229.310 246.961,226.615 246.961 C 223.927 246.961,223.761 246.833,224.932 245.662 C 225.955 244.639,227.508 244.608,228.419 245.591 M118.746 258.085 L 118.746 259.996 117.840 259.461 C 115.051 257.815,111.754 260.441,112.612 263.625 C 113.286 266.127,116.426 267.151,118.280 265.473 C 118.745 265.053,118.775 265.058,118.915 265.593 C 118.996 265.902,119.221 266.155,119.416 266.155 C 119.705 266.155,119.770 265.243,119.770 261.164 C 119.770 256.345,119.752 256.174,119.258 256.174 C 118.792 256.174,118.746 256.345,118.746 258.085 M216.780 256.653 C 216.571 257.044,216.601 257.255,216.909 257.564 C 217.593 258.247,218.391 257.862,218.257 256.913 C 218.144 256.113,217.162 255.940,216.780 256.653 M230.856 256.653 C 230.646 257.044,230.676 257.255,230.985 257.564 C 231.668 258.247,232.466 257.862,232.332 256.913 C 232.219 256.113,231.237 255.940,230.856 256.653 M245.170 261.164 C 245.170 265.984,245.187 266.155,245.681 266.155 C 246.176 266.155,246.193 265.984,246.193 261.164 C 246.193 256.345,246.176 256.174,245.681 256.174 C 245.187 256.174,245.170 256.345,245.170 261.164 M143.570 257.185 C 143.570 257.620,143.780 257.695,145.170 257.761 L 146.769 257.837 146.839 261.996 C 146.906 265.943,146.935 266.155,147.415 266.155 C 147.898 266.155,147.921 265.967,147.921 261.932 L 147.921 257.710 149.584 257.710 C 151.077 257.710,151.248 257.657,151.248 257.198 C 151.248 256.709,151.077 256.686,147.409 256.686 C 143.772 256.686,143.570 256.712,143.570 257.185 M189.379 261.420 L 189.379 266.155 192.194 266.155 C 194.820 266.155,195.010 266.121,195.010 265.653 C 195.010 265.198,194.799 265.144,192.770 265.077 L 190.531 265.003 190.461 260.845 C 190.394 256.898,190.365 256.686,189.885 256.686 C 189.400 256.686,189.379 256.876,189.379 261.420 M170.953 257.689 C 170.953 258.620,170.655 258.989,169.902 258.989 C 169.332 258.989,169.162 259.107,169.162 259.501 C 169.162 259.895,169.332 260.013,169.905 260.013 L 170.648 260.013 170.737 262.466 C 170.821 264.787,170.864 264.954,171.543 265.537 C 172.495 266.356,174.280 266.424,174.280 265.643 C 174.280 265.253,174.110 265.131,173.561 265.131 C 172.158 265.131,171.871 264.650,171.860 262.280 L 171.849 260.141 172.937 260.062 C 174.591 259.942,174.534 258.989,172.873 258.989 C 171.727 258.989,171.721 258.984,171.721 258.093 C 171.721 257.468,171.605 257.198,171.337 257.198 C 171.126 257.198,170.953 257.419,170.953 257.689 M124.453 259.491 C 122.428 260.725,122.238 264.082,124.109 265.575 C 125.517 266.699,127.961 266.449,129.131 265.062 C 130.019 264.011,129.241 263.712,128.001 264.629 C 126.854 265.477,125.464 265.378,124.577 264.385 C 123.474 263.151,123.596 263.084,126.935 263.084 C 130.408 263.084,130.411 263.082,129.597 261.047 C 128.832 259.136,126.294 258.368,124.453 259.491 M133.240 259.520 C 131.671 260.754,132.514 262.320,135.131 263.032 C 136.977 263.533,137.535 264.110,136.845 264.801 C 136.110 265.535,134.420 265.398,133.743 264.550 C 133.157 263.814,132.310 263.608,132.310 264.201 C 132.310 265.500,134.624 266.644,136.311 266.178 C 139.178 265.386,138.875 263.205,135.756 262.194 C 133.828 261.570,133.286 261.070,133.827 260.418 C 134.341 259.800,136.312 259.872,136.720 260.525 C 137.161 261.231,138.197 261.226,138.012 260.518 C 137.623 259.028,134.654 258.407,133.240 259.520 M153.627 259.491 C 151.603 260.725,151.413 264.082,153.283 265.575 C 154.691 266.699,157.136 266.449,158.306 265.062 C 159.194 264.011,158.416 263.712,157.176 264.629 C 156.029 265.477,154.639 265.378,153.751 264.385 C 152.649 263.151,152.771 263.084,156.110 263.084 C 159.583 263.084,159.586 263.082,158.771 261.047 C 158.007 259.136,155.469 258.368,153.627 259.491 M162.415 259.520 C 160.846 260.754,161.689 262.320,164.306 263.032 C 166.151 263.533,166.710 264.110,166.019 264.801 C 165.285 265.535,163.594 265.398,162.917 264.550 C 162.331 263.814,161.484 263.608,161.484 264.201 C 161.484 265.500,163.799 266.644,165.485 266.178 C 168.353 265.386,168.049 263.205,164.931 262.194 C 163.003 261.570,162.461 261.070,163.002 260.418 C 163.515 259.800,165.487 259.872,165.894 260.525 C 166.335 261.231,167.372 261.226,167.187 260.518 C 166.797 259.028,163.829 258.407,162.415 259.520 M177.258 259.520 C 175.722 260.728,176.515 262.294,178.989 262.938 C 181.276 263.534,181.787 264.216,180.551 265.026 C 179.686 265.593,178.253 265.318,177.704 264.479 C 177.159 263.647,176.219 263.608,176.469 264.427 C 177.275 267.073,182.214 266.934,182.214 264.265 C 182.214 263.149,181.616 262.648,179.648 262.112 C 177.886 261.633,177.297 261.079,177.845 260.418 C 178.359 259.800,180.330 259.872,180.738 260.525 C 181.071 261.058,182.214 261.241,182.214 260.761 C 182.214 259.251,178.714 258.374,177.258 259.520 M198.410 259.406 C 196.808 260.196,196.115 262.672,197.022 264.367 C 198.804 267.701,203.962 266.405,203.966 262.623 C 203.968 259.743,201.098 258.081,198.410 259.406 M208.054 259.425 C 204.280 262.027,207.912 268.068,211.742 265.558 L 212.412 265.119 212.412 265.905 C 212.412 267.771,209.803 268.688,208.422 267.306 C 207.125 266.009,206.288 266.617,207.501 267.975 C 208.779 269.406,211.726 269.283,212.933 267.749 C 213.608 266.891,213.715 258.989,213.052 258.989 C 212.841 258.989,212.668 259.162,212.668 259.373 C 212.668 259.844,212.468 259.844,211.644 259.373 C 210.754 258.864,208.828 258.892,208.054 259.425 M217.019 262.572 C 217.019 265.984,217.043 266.155,217.530 266.155 C 218.018 266.155,218.042 265.984,218.042 262.572 C 218.042 259.160,218.018 258.989,217.530 258.989 C 217.043 258.989,217.019 259.160,217.019 262.572 M223.161 259.169 C 220.077 260.291,220.381 265.269,223.587 266.132 C 225.331 266.601,228.023 265.307,228.023 263.999 C 228.023 263.352,227.264 263.532,226.488 264.363 C 225.313 265.620,223.215 265.397,222.435 263.932 C 221.022 261.280,224.072 258.806,226.320 260.781 C 227.632 261.932,228.369 261.820,227.677 260.573 C 226.962 259.284,224.741 258.594,223.161 259.169 M231.094 262.572 C 231.094 265.984,231.118 266.155,231.606 266.155 C 232.093 266.155,232.118 265.984,232.118 262.572 C 232.118 259.160,232.093 258.989,231.606 258.989 C 231.118 258.989,231.094 259.160,231.094 262.572 M237.236 259.155 C 235.004 260.048,234.340 263.538,236.073 265.271 C 237.511 266.709,240.337 266.529,241.609 264.919 L 242.150 264.235 241.624 264.155 C 241.335 264.111,240.776 264.305,240.383 264.587 C 239.173 265.454,237.716 265.399,236.840 264.454 C 235.685 263.208,235.905 263.084,239.283 263.084 C 242.626 263.084,242.542 263.130,242.099 261.534 C 241.582 259.672,239.046 258.432,237.236 259.155 M249.892 259.617 C 248.653 260.857,249.322 262.314,251.362 262.816 C 253.102 263.245,253.743 263.664,253.743 264.373 C 253.743 265.633,250.691 265.621,250.361 264.360 C 250.181 263.672,249.264 263.684,249.264 264.375 C 249.264 265.715,251.437 266.672,253.325 266.164 C 256.157 265.401,255.459 262.735,252.254 262.070 C 250.699 261.747,250.150 261.218,250.578 260.454 C 250.942 259.804,252.877 259.851,253.487 260.525 C 254.020 261.114,254.894 261.208,254.894 260.675 C 254.894 259.152,251.150 258.360,249.892 259.617 M117.998 260.761 C 119.646 262.409,118.518 265.131,116.187 265.131 C 115.353 265.131,114.962 264.970,114.376 264.383 C 112.727 262.735,113.855 260.013,116.187 260.013 C 117.021 260.013,117.411 260.174,117.998 260.761 M128.099 260.690 C 129.212 261.891,128.990 262.060,126.296 262.060 C 123.607 262.060,123.441 261.932,124.612 260.761 C 125.635 259.738,127.188 259.707,128.099 260.690 M157.274 260.690 C 158.387 261.891,158.164 262.060,155.470 262.060 C 152.782 262.060,152.616 261.932,153.787 260.761 C 154.810 259.738,156.363 259.707,157.274 260.690 M201.827 260.386 C 203.945 261.870,202.833 265.131,200.210 265.131 C 198.421 265.131,197.672 264.172,197.810 262.060 C 197.913 260.487,200.457 259.427,201.827 260.386 M211.625 260.675 C 212.675 261.559,212.752 263.279,211.784 264.247 C 210.270 265.761,207.550 264.650,207.550 262.517 C 207.550 260.337,209.939 259.257,211.625 260.675 M240.327 260.761 C 241.498 261.932,241.332 262.060,238.644 262.060 C 235.955 262.060,235.789 261.932,236.960 260.761 C 237.514 260.207,237.951 260.013,238.644 260.013 C 239.336 260.013,239.773 260.207,240.327 260.761 " stroke="none" fill="#3c7245" fill-rule="evenodd"></path><path id="path2" d="M175.304 115.451 C 162.892 116.165,152.084 117.969,138.196 121.645 C 136.443 122.109,133.258 123.108,129.750 124.294 C 107.100 131.950,89.277 143.685,77.737 158.541 L 75.947 160.845 84.080 160.912 L 92.212 160.980 95.434 157.836 C 100.649 152.749,105.027 149.218,111.226 145.098 C 113.180 143.800,115.067 142.540,115.419 142.299 C 121.440 138.178,134.946 131.636,147.409 126.803 C 158.186 122.625,177.496 117.303,187.460 115.765 L 188.740 115.567 187.460 115.388 C 185.786 115.153,179.967 115.183,175.304 115.451 M124.888 161.759 C 109.751 163.391,98.140 174.238,94.639 190.019 C 93.983 192.974,93.759 203.651,94.341 204.232 C 95.493 205.384,103.135 204.445,103.135 203.151 C 103.135 202.705,103.086 202.699,102.380 203.064 C 101.062 203.746,100.914 203.621,100.721 201.664 C 100.511 199.524,100.535 199.473,101.862 199.261 C 103.109 199.061,102.978 198.592,101.675 198.592 L 100.758 198.592 100.908 196.985 C 101.131 194.595,101.426 193.986,102.361 193.986 C 102.878 193.986,103.135 193.859,103.135 193.602 C 103.135 193.363,102.893 193.218,102.495 193.218 C 102.143 193.218,101.855 193.074,101.856 192.898 C 101.856 192.287,103.376 189.369,103.774 189.216 C 104.023 189.121,104.118 188.887,104.026 188.596 C 103.944 188.339,104.129 187.636,104.436 187.034 C 104.804 186.314,105.050 185.229,105.156 183.859 C 105.297 182.049,105.444 181.575,106.285 180.212 C 106.817 179.350,107.638 177.807,108.110 176.782 C 110.330 171.957,113.218 170.326,120.259 169.925 C 124.882 169.661,125.346 169.549,129.111 167.792 L 131.926 166.478 134.613 166.476 C 139.167 166.474,141.116 167.801,149.138 176.370 C 153.940 181.500,155.620 183.489,156.934 185.605 L 157.689 186.820 161.239 186.820 L 164.788 186.820 164.158 185.093 C 158.227 168.845,143.014 159.806,124.888 161.759 M179.399 198.337 L 179.399 233.909 183.749 233.909 L 188.100 233.909 188.100 198.337 L 188.100 162.764 183.749 162.764 L 179.399 162.764 179.399 198.337 M94.690 206.595 C 94.690 207.964,96.470 213.110,98.031 216.251 C 110.743 241.830,149.821 241.367,162.889 215.483 C 163.574 214.127,165.323 209.606,165.323 209.193 C 165.323 209.133,163.267 209.085,160.753 209.085 L 156.183 209.085 154.745 211.964 C 149.065 223.336,135.139 229.076,122.273 225.350 C 120.421 224.813,120.182 224.798,118.936 225.133 C 111.916 227.025,105.384 221.717,102.505 211.782 C 101.594 208.638,101.615 208.488,103.007 208.115 C 103.640 207.946,104.159 207.678,104.159 207.521 C 104.159 207.342,103.941 207.300,103.583 207.408 C 101.393 208.071,97.962 207.775,95.916 206.747 C 94.791 206.182,94.690 206.169,94.690 206.595 " stroke="none" fill="#e16919" fill-rule="evenodd"></path><path id="path3" d="M202.800 162.838 C 202.731 163.020,202.709 165.006,202.751 167.253 L 202.829 171.337 202.886 167.052 L 202.943 162.766 231.542 162.700 L 260.141 162.634 231.534 162.571 C 208.365 162.520,202.903 162.571,202.800 162.838 M273.953 162.822 C 273.885 163.001,273.859 179.098,273.895 198.592 L 273.962 234.037 274.025 198.401 L 274.088 162.764 278.438 162.764 L 282.787 162.764 282.854 194.178 L 282.921 225.592 282.919 194.114 L 282.917 162.636 278.497 162.566 C 275.101 162.512,274.048 162.571,273.953 162.822 M117.074 181.432 C 117.157 181.566,116.681 181.716,116.001 181.769 C 114.811 181.863,114.819 181.867,116.282 181.912 C 117.592 181.952,117.744 181.908,117.466 181.574 C 117.115 181.150,116.838 181.050,117.074 181.432 M126.744 189.251 C 126.747 189.814,126.799 190.015,126.860 189.696 C 126.922 189.378,126.919 188.917,126.855 188.673 C 126.791 188.428,126.741 188.688,126.744 189.251 M104.610 189.304 C 104.928 189.366,105.389 189.363,105.633 189.299 C 105.878 189.235,105.617 189.185,105.054 189.188 C 104.491 189.191,104.291 189.243,104.610 189.304 M127.507 190.403 C 127.507 190.896,127.559 191.097,127.624 190.851 C 127.688 190.605,127.688 190.202,127.624 189.955 C 127.559 189.709,127.507 189.910,127.507 190.403 M125.988 198.848 C 125.988 199.623,126.036 199.939,126.095 199.552 C 126.154 199.165,126.154 198.532,126.095 198.145 C 126.036 197.758,125.988 198.074,125.988 198.848 M105.558 200.448 L 104.031 202.047 105.630 200.520 C 107.116 199.101,107.347 198.848,107.158 198.848 C 107.118 198.848,106.398 199.568,105.558 200.448 M105.810 201.727 L 104.798 202.815 105.886 201.803 C 106.898 200.863,107.091 200.640,106.898 200.640 C 106.856 200.640,106.366 201.129,105.810 201.727 M114.442 201.712 C 114.384 203.212,114.764 203.473,115.638 202.534 L 116.315 201.806 115.658 202.374 C 114.759 203.154,114.693 203.114,114.584 201.727 L 114.488 200.512 114.442 201.712 M135.879 206.718 L 134.997 207.678 135.956 206.796 C 136.850 205.975,137.034 205.758,136.838 205.758 C 136.796 205.758,136.364 206.190,135.879 206.718 M109.873 207.678 C 109.874 208.663,109.920 209.035,109.976 208.504 C 110.031 207.973,110.030 207.166,109.974 206.712 C 109.917 206.258,109.872 206.692,109.873 207.678 M122.841 212.236 C 122.841 212.280,123.215 212.655,123.672 213.068 L 124.504 213.820 123.753 212.988 C 123.052 212.213,122.841 212.038,122.841 212.236 M116.638 220.015 C 116.956 220.076,117.417 220.074,117.661 220.009 C 117.906 219.945,117.646 219.895,117.083 219.898 C 116.520 219.901,116.319 219.953,116.638 220.015 M122.697 222.969 L 121.945 223.800 122.777 223.049 C 123.552 222.348,123.726 222.137,123.528 222.137 C 123.484 222.137,123.110 222.511,122.697 222.969 M296.733 241.907 L 293.666 245.042 296.737 242.038 L 299.808 239.035 307.742 238.963 L 315.675 238.892 307.738 238.832 L 299.800 238.772 296.733 241.907 M174.448 240.755 C 174.382 240.861,174.653 240.947,175.048 240.947 C 175.443 240.947,175.713 240.861,175.648 240.755 C 175.583 240.649,175.313 240.563,175.048 240.563 C 174.783 240.563,174.513 240.649,174.448 240.755 M313.599 242.279 C 313.056 242.941,312.746 243.400,312.909 243.299 C 313.257 243.084,314.878 241.075,314.704 241.075 C 314.638 241.075,314.141 241.617,313.599 242.279 M166.406 243.122 C 166.406 243.615,166.459 243.816,166.523 243.570 C 166.588 243.324,166.588 242.921,166.523 242.674 C 166.459 242.428,166.406 242.630,166.406 243.122 M160.051 247.473 C 160.051 249.514,160.090 250.349,160.139 249.328 C 160.187 248.308,160.187 246.638,160.139 245.617 C 160.090 244.597,160.051 245.432,160.051 247.473 M207.651 247.473 C 207.651 249.514,207.691 250.349,207.740 249.328 C 207.788 248.308,207.788 246.638,207.740 245.617 C 207.691 244.597,207.651 245.432,207.651 247.473 M216.271 244.319 C 216.260 244.625,216.049 244.929,215.803 244.993 C 215.383 245.103,215.384 245.112,215.811 245.140 C 216.307 245.172,216.633 244.613,216.423 244.090 C 216.351 243.910,216.282 244.013,216.271 244.319 M220.191 247.473 C 220.191 249.514,220.231 250.349,220.280 249.328 C 220.328 248.308,220.328 246.638,220.280 245.617 C 220.231 244.597,220.191 245.432,220.191 247.473 M168.650 244.472 C 168.650 244.774,168.359 244.905,167.562 244.963 L 166.475 245.042 166.457 247.026 L 166.440 249.010 166.532 247.090 L 166.624 245.170 167.645 245.170 C 168.609 245.170,169.242 244.653,168.810 244.220 C 168.722 244.132,168.650 244.246,168.650 244.472 M132.054 244.658 L 131.414 244.863 132.118 244.888 C 132.505 244.902,132.821 244.798,132.821 244.658 C 132.821 244.517,132.793 244.413,132.758 244.427 C 132.722 244.441,132.406 244.545,132.054 244.658 M164.480 245.097 C 164.985 245.190,165.055 245.385,165.137 246.913 L 165.229 248.624 165.212 246.833 C 165.196 245.104,165.173 245.041,164.555 245.017 C 164.021 244.996,164.009 245.009,164.480 245.097 M292.370 246.001 L 291.619 246.833 292.450 246.081 C 293.226 245.381,293.400 245.170,293.202 245.170 C 293.158 245.170,292.784 245.544,292.370 246.001 M309.652 246.897 L 308.253 248.369 309.725 246.970 C 311.092 245.670,311.314 245.425,311.124 245.425 C 311.084 245.425,310.422 246.088,309.652 246.897 M222.964 247.473 C 222.964 247.965,223.017 248.167,223.081 247.921 C 223.145 247.674,223.145 247.271,223.081 247.025 C 223.017 246.779,222.964 246.980,222.964 247.473 M234.253 249.136 C 234.254 250.262,234.299 250.691,234.353 250.089 C 234.407 249.487,234.406 248.566,234.351 248.042 C 234.296 247.518,234.252 248.010,234.253 249.136 M304.661 251.887 L 303.391 253.231 304.734 251.961 C 305.473 251.263,306.078 250.658,306.078 250.617 C 306.078 250.426,305.841 250.639,304.661 251.887 M302.351 253.935 L 301.599 254.766 302.431 254.015 C 303.207 253.314,303.381 253.103,303.183 253.103 C 303.139 253.103,302.765 253.477,302.351 253.935 M280.026 255.260 C 278.838 256.101,278.670 256.341,279.674 255.766 C 280.142 255.498,280.646 255.134,280.793 254.958 C 281.171 254.506,280.994 254.576,280.026 255.260 M119.189 256.098 C 119.752 256.207,119.760 256.267,119.834 261.246 L 119.909 266.283 119.967 261.100 L 120.026 255.918 119.322 255.953 C 118.726 255.982,118.706 256.005,119.189 256.098 M245.028 256.246 C 244.959 256.426,244.936 258.758,244.978 261.428 L 245.054 266.283 245.112 261.246 C 245.169 256.248,245.174 256.209,245.745 256.099 L 246.321 255.988 245.737 255.953 C 245.416 255.934,245.097 256.066,245.028 256.246 M145.425 256.620 C 146.516 256.668,148.301 256.668,149.392 256.620 C 150.483 256.572,149.591 256.533,147.409 256.533 C 145.227 256.533,144.335 256.572,145.425 256.620 M189.244 256.740 C 189.171 256.931,189.146 259.156,189.188 261.685 L 189.264 266.283 189.322 261.484 C 189.377 256.896,189.402 256.686,189.885 256.686 C 190.365 256.686,190.394 256.898,190.461 260.845 L 190.531 265.003 192.754 265.077 C 194.816 265.145,194.984 265.192,195.086 265.717 C 195.178 266.190,195.202 266.168,195.231 265.579 L 195.266 264.875 192.969 264.875 L 190.672 264.875 190.601 260.717 C 190.532 256.621,190.522 256.557,189.954 256.476 C 189.637 256.431,189.317 256.550,189.244 256.740 M297.889 257.485 C 296.997 258.267,296.996 258.268,297.817 257.722 C 298.270 257.421,298.709 257.064,298.792 256.930 C 299.039 256.530,298.834 256.656,297.889 257.485 M171.786 258.093 C 171.788 258.656,171.841 258.857,171.902 258.538 C 171.963 258.220,171.961 257.759,171.897 257.515 C 171.833 257.270,171.783 257.530,171.786 258.093 M146.745 262.060 C 146.745 264.383,146.784 265.333,146.831 264.171 C 146.879 263.010,146.879 261.110,146.831 259.949 C 146.784 258.788,146.745 259.738,146.745 262.060 M274.280 258.880 C 273.323 259.399,273.382 259.615,274.344 259.117 C 274.766 258.899,275.112 258.665,275.112 258.599 C 275.112 258.434,275.084 258.443,274.280 258.880 M174.045 259.422 C 174.027 259.896,173.854 259.996,172.937 260.062 L 171.849 260.141 171.830 261.869 L 171.811 263.598 171.906 261.933 L 172.000 260.269 173.020 260.269 C 174.049 260.269,174.474 259.879,174.197 259.190 C 174.124 259.009,174.056 259.114,174.045 259.422 M213.538 262.700 C 213.538 264.811,213.578 265.641,213.626 264.544 C 213.674 263.446,213.674 261.719,213.625 260.705 C 213.577 259.691,213.538 260.589,213.538 262.700 M216.864 262.700 C 216.864 264.671,216.904 265.443,216.953 264.416 C 217.002 263.390,217.001 261.777,216.952 260.833 C 216.903 259.889,216.863 260.729,216.864 262.700 M230.939 262.700 C 230.940 264.671,230.980 265.443,231.028 264.416 C 231.077 263.390,231.077 261.777,231.028 260.833 C 230.979 259.889,230.939 260.729,230.939 262.700 M294.178 260.163 L 293.410 260.823 294.242 260.272 C 294.699 259.970,295.074 259.672,295.074 259.611 C 295.074 259.420,294.965 259.487,294.178 260.163 M169.482 260.189 C 169.728 260.254,170.131 260.254,170.377 260.189 C 170.624 260.125,170.422 260.072,169.930 260.072 C 169.437 260.072,169.235 260.125,169.482 260.189 M270.697 260.927 C 269.741 261.446,269.799 261.662,270.761 261.164 C 271.184 260.946,271.529 260.713,271.529 260.646 C 271.529 260.481,271.502 260.491,270.697 260.927 M292.126 261.456 C 290.820 262.322,290.360 262.779,291.380 262.197 C 292.277 261.685,293.475 260.795,293.278 260.786 C 293.205 260.783,292.686 261.085,292.126 261.456 M268.650 262.078 C 268.122 262.356,267.690 262.641,267.690 262.711 C 267.690 262.781,268.151 262.603,268.714 262.316 C 269.277 262.029,269.738 261.739,269.738 261.671 C 269.738 261.504,269.736 261.504,268.650 262.078 M122.644 262.572 C 122.644 263.065,122.697 263.266,122.761 263.020 C 122.826 262.774,122.826 262.370,122.761 262.124 C 122.697 261.878,122.644 262.079,122.644 262.572 M151.819 262.572 C 151.819 263.065,151.871 263.266,151.936 263.020 C 152.000 262.774,152.000 262.370,151.936 262.124 C 151.871 261.878,151.819 262.079,151.819 262.572 M263.340 264.875 C 262.284 265.424,261.510 265.879,261.619 265.886 C 261.891 265.904,265.387 264.132,265.387 263.976 C 265.387 263.804,265.471 263.766,263.340 264.875 M287.588 264.254 C 286.631 264.773,286.689 264.989,287.652 264.491 C 288.074 264.273,288.420 264.040,288.420 263.973 C 288.420 263.808,288.392 263.818,287.588 264.254 M173.065 265.052 C 173.311 265.116,173.714 265.116,173.960 265.052 C 174.207 264.987,174.005 264.935,173.512 264.935 C 173.020 264.935,172.818 264.987,173.065 265.052 M285.797 265.278 C 284.840 265.797,284.898 266.013,285.861 265.515 C 286.283 265.297,286.628 265.063,286.628 264.997 C 286.628 264.832,286.601 264.841,285.797 265.278 M118.199 265.582 C 117.887 265.980,117.895 265.992,118.277 265.693 C 118.638 265.411,118.721 265.430,118.823 265.821 C 118.927 266.223,118.946 266.226,118.972 265.850 C 119.016 265.215,118.600 265.070,118.199 265.582 M283.237 266.684 C 282.710 266.963,282.278 267.248,282.278 267.318 C 282.278 267.388,282.738 267.210,283.301 266.923 C 283.864 266.635,284.325 266.345,284.325 266.278 C 284.325 266.110,284.323 266.111,283.237 266.684 M254.894 268.842 C 254.543 269.043,254.370 269.208,254.511 269.208 C 254.651 269.208,255.054 269.043,255.406 268.842 C 255.758 268.641,255.931 268.476,255.790 268.476 C 255.649 268.476,255.246 268.641,254.894 268.842 M278.887 268.860 C 277.895 269.399,278.007 269.584,279.015 269.072 C 279.979 268.581,280.150 268.454,279.825 268.468 C 279.696 268.474,279.274 268.650,278.887 268.860 M274.600 270.889 C 274.248 271.090,274.075 271.255,274.216 271.255 C 274.357 271.255,274.760 271.090,275.112 270.889 C 275.464 270.688,275.637 270.524,275.496 270.524 C 275.355 270.524,274.952 270.688,274.600 270.889 M249.392 271.154 C 248.752 271.462,248.731 271.498,249.264 271.368 C 249.989 271.190,250.804 270.775,250.416 270.781 C 250.275 270.783,249.814 270.951,249.392 271.154 M269.098 273.202 C 268.458 273.510,268.437 273.545,268.970 273.415 C 269.695 273.238,270.510 272.822,270.122 272.828 C 269.981 272.830,269.520 272.998,269.098 273.202 M240.563 274.472 C 240.070 274.662,239.840 274.821,240.051 274.825 C 240.262 274.829,240.781 274.675,241.203 274.481 C 242.191 274.029,241.731 274.022,240.563 274.472 M265.771 274.481 C 265.131 274.789,265.110 274.825,265.643 274.695 C 266.368 274.517,267.183 274.102,266.795 274.108 C 266.654 274.110,266.193 274.278,265.771 274.481 M260.141 276.392 C 259.818 276.530,259.771 276.611,260.013 276.611 C 260.224 276.611,260.627 276.513,260.909 276.392 C 261.231 276.253,261.278 276.172,261.036 276.172 C 260.825 276.172,260.422 276.271,260.141 276.392 M233.269 276.903 C 232.947 277.042,232.899 277.123,233.141 277.123 C 233.353 277.123,233.756 277.024,234.037 276.903 C 234.360 276.765,234.407 276.683,234.165 276.683 C 233.954 276.683,233.551 276.782,233.269 276.903 M256.046 277.671 C 255.723 277.810,255.676 277.891,255.918 277.891 C 256.129 277.891,256.532 277.792,256.814 277.671 C 257.136 277.533,257.184 277.451,256.942 277.451 C 256.731 277.451,256.328 277.550,256.046 277.671 M254.255 278.183 C 253.932 278.322,253.885 278.403,254.127 278.403 C 254.338 278.403,254.741 278.304,255.022 278.183 C 255.345 278.044,255.392 277.963,255.150 277.963 C 254.939 277.963,254.536 278.062,254.255 278.183 M251.440 278.951 C 250.787 279.231,251.460 279.231,252.335 278.951 C 252.850 278.786,252.875 278.744,252.463 278.738 C 252.182 278.734,251.721 278.830,251.440 278.951 M248.496 279.718 C 247.982 279.883,247.957 279.925,248.369 279.931 C 248.650 279.935,249.111 279.839,249.392 279.718 C 250.044 279.438,249.372 279.438,248.496 279.718 M246.321 280.230 C 245.669 280.511,246.342 280.511,247.217 280.230 C 247.731 280.066,247.756 280.024,247.345 280.018 C 247.063 280.014,246.603 280.109,246.321 280.230 M228.855 283.478 C 229.101 283.542,229.504 283.542,229.750 283.478 C 229.997 283.413,229.795 283.361,229.303 283.361 C 228.810 283.361,228.608 283.413,228.855 283.478 M226.807 283.734 C 227.054 283.798,227.457 283.798,227.703 283.734 C 227.949 283.669,227.748 283.617,227.255 283.617 C 226.763 283.617,226.561 283.669,226.807 283.734 M224.760 283.990 C 225.006 284.054,225.409 284.054,225.656 283.990 C 225.902 283.925,225.701 283.873,225.208 283.873 C 224.715 283.873,224.514 283.925,224.760 283.990 M221.693 284.253 C 222.082 284.312,222.657 284.310,222.972 284.249 C 223.287 284.189,222.969 284.140,222.265 284.142 C 221.561 284.144,221.304 284.194,221.693 284.253 M202.546 284.559 C 202.640 284.712,203.363 284.837,204.152 284.837 C 205.935 284.837,205.834 284.701,203.874 284.463 C 202.819 284.335,202.425 284.363,202.546 284.559 M217.973 284.510 C 218.427 284.566,219.233 284.567,219.764 284.512 C 220.295 284.456,219.923 284.410,218.938 284.409 C 217.953 284.408,217.518 284.453,217.973 284.510 M213.632 284.766 C 214.092 284.823,214.783 284.822,215.168 284.764 C 215.552 284.705,215.176 284.659,214.331 284.660 C 213.487 284.662,213.172 284.709,213.632 284.766 " stroke="none" fill="#99aa9b" fill-rule="evenodd"></path><path id="path4" d="M177.163 115.347 C 177.552 115.406,178.128 115.404,178.442 115.343 C 178.757 115.283,178.439 115.234,177.735 115.236 C 177.031 115.238,176.774 115.288,177.163 115.347 M186.586 115.255 C 186.644 115.306,187.326 115.418,188.100 115.505 C 189.040 115.610,189.380 115.580,189.123 115.416 C 188.775 115.194,186.335 115.039,186.586 115.255 M172.425 115.600 C 172.742 115.661,173.260 115.661,173.576 115.600 C 173.893 115.539,173.634 115.489,173.001 115.489 C 172.367 115.489,172.108 115.539,172.425 115.600 M166.667 116.107 C 166.913 116.172,167.316 116.172,167.562 116.107 C 167.809 116.043,167.607 115.990,167.115 115.990 C 166.622 115.990,166.420 116.043,166.667 116.107 M87.636 147.729 L 86.884 148.560 87.716 147.809 C 88.491 147.108,88.665 146.897,88.468 146.897 C 88.424 146.897,88.049 147.271,87.636 147.729 M107.614 147.559 L 106.846 148.219 107.678 147.668 C 108.135 147.366,108.509 147.068,108.509 147.008 C 108.509 146.816,108.401 146.883,107.614 147.559 M84.453 150.608 C 83.831 151.241,83.380 151.759,83.451 151.759 C 83.521 151.759,84.087 151.241,84.709 150.608 C 85.331 149.974,85.782 149.456,85.711 149.456 C 85.641 149.456,85.075 149.974,84.453 150.608 M81.494 153.871 L 80.742 154.702 81.574 153.951 C 82.349 153.250,82.523 153.039,82.326 153.039 C 82.282 153.039,81.907 153.413,81.494 153.871 M97.361 155.918 L 96.609 156.750 97.441 155.998 C 97.898 155.585,98.273 155.210,98.273 155.166 C 98.273 154.969,98.061 155.143,97.361 155.918 M88.996 161.160 C 89.594 161.214,90.573 161.214,91.171 161.160 C 91.769 161.106,91.280 161.062,90.083 161.062 C 88.887 161.062,88.397 161.106,88.996 161.160 M129.818 161.412 C 130.207 161.471,130.783 161.469,131.098 161.409 C 131.412 161.348,131.094 161.300,130.390 161.302 C 129.687 161.304,129.429 161.353,129.818 161.412 M125.464 161.661 C 125.710 161.725,126.113 161.725,126.360 161.661 C 126.606 161.596,126.404 161.544,125.912 161.544 C 125.419 161.544,125.218 161.596,125.464 161.661 M183.684 162.696 L 188.098 162.776 188.164 198.279 L 188.230 233.781 188.229 198.209 L 188.228 162.636 183.749 162.626 L 179.271 162.617 183.684 162.696 M118.298 170.113 C 118.685 170.172,119.319 170.172,119.706 170.113 C 120.093 170.054,119.776 170.006,119.002 170.006 C 118.228 170.006,117.911 170.054,118.298 170.113 M144.978 172.233 C 146.239 173.500,147.328 174.536,147.398 174.536 C 147.469 174.536,146.494 173.500,145.234 172.233 C 143.973 170.966,142.883 169.930,142.813 169.930 C 142.743 169.930,143.717 170.966,144.978 172.233 M155.726 171.721 C 156.562 172.566,157.303 173.257,157.374 173.257 C 157.444 173.257,156.818 172.566,155.982 171.721 C 155.146 170.877,154.405 170.186,154.335 170.186 C 154.264 170.186,154.890 170.877,155.726 171.721 M102.991 172.809 L 102.239 173.640 103.071 172.889 C 103.846 172.188,104.020 171.977,103.823 171.977 C 103.779 171.977,103.404 172.351,102.991 172.809 M93.748 197.569 C 93.748 198.484,93.794 198.858,93.851 198.401 C 93.908 197.943,93.908 197.194,93.851 196.737 C 93.794 196.280,93.748 196.654,93.748 197.569 M100.640 200.512 C 100.643 201.075,100.696 201.275,100.757 200.957 C 100.818 200.638,100.816 200.178,100.752 199.933 C 100.688 199.688,100.638 199.949,100.640 200.512 M156.021 209.021 C 155.955 209.127,157.359 209.183,159.141 209.146 C 165.118 209.023,165.743 208.930,160.924 208.879 C 158.293 208.852,156.087 208.916,156.021 209.021 M150.466 217.978 L 149.584 218.938 150.544 218.056 C 151.437 217.235,151.621 217.019,151.426 217.019 C 151.383 217.019,150.951 217.450,150.466 217.978 M104.287 225.208 C 105.264 226.193,106.122 226.999,106.192 226.999 C 106.263 226.999,105.520 226.193,104.543 225.208 C 103.565 224.223,102.707 223.417,102.637 223.417 C 102.567 223.417,103.309 224.223,104.287 225.208 M156.228 224.760 L 154.958 226.104 156.302 224.834 C 157.550 223.654,157.763 223.417,157.572 223.417 C 157.531 223.417,156.927 224.021,156.228 224.760 M129.181 226.419 C 129.783 226.473,130.705 226.473,131.229 226.418 C 131.753 226.363,131.260 226.318,130.134 226.319 C 129.008 226.320,128.579 226.365,129.181 226.419 M126.107 235.114 C 126.425 235.175,126.886 235.173,127.130 235.109 C 127.375 235.045,127.115 234.995,126.552 234.997 C 125.988 235.000,125.788 235.053,126.107 235.114 " stroke="none" fill="#d98b4e" fill-rule="evenodd"></path></g></svg>