<svg id="svg" version="1.1" xmlns="http://www.w3.org/2000/svg" xmlns:xlink="http://www.w3.org/1999/xlink" width="400" height="266.023166023166" viewBox="0, 0, 400,266.023166023166"><g id="svgg"><path id="path0" d="M212.819 74.163 C 212.721 74.260,212.641 77.314,212.641 80.949 L 212.641 87.558 230.873 87.558 L 249.105 87.558 249.100 134.839 C 249.098 160.843,249.140 182.163,249.193 182.216 C 249.247 182.269,252.422 182.341,256.249 182.374 L 263.207 182.435 263.207 134.997 L 263.207 87.558 281.304 87.558 L 299.401 87.558 299.401 80.933 C 299.401 75.138,299.348 74.288,298.980 74.147 C 298.403 73.925,213.040 73.941,212.819 74.163 M320.093 128.067 C 320.130 157.799,320.200 182.165,320.250 182.215 C 320.300 182.265,335.121 182.306,353.185 182.306 L 386.028 182.307 386.099 175.518 L 386.170 168.729 360.086 168.729 L 334.002 168.729 333.934 121.649 C 333.895 94.601,333.965 74.630,334.100 74.713 C 334.228 74.793,334.278 74.691,334.211 74.488 C 334.110 74.187,332.785 74.108,327.057 74.064 L 320.027 74.009 320.093 128.067 M96.669 129.075 C 96.669 129.587,96.723 129.797,96.790 129.541 C 96.857 129.285,96.857 128.866,96.790 128.609 C 96.723 128.353,96.669 128.563,96.669 129.075 M359.755 188.999 C 360.007 189.096,363.387 189.176,367.265 189.177 C 371.144 189.177,374.198 189.131,374.052 189.073 C 373.906 189.015,370.526 188.935,366.542 188.895 C 362.558 188.855,359.504 188.902,359.755 188.999 M374.451 188.955 C 374.451 189.122,376.048 189.222,378.709 189.222 C 381.371 189.222,382.967 189.122,382.967 188.955 C 382.967 188.789,381.371 188.689,378.709 188.689 C 376.048 188.689,374.451 188.789,374.451 188.955 M383.292 191.091 C 382.980 191.590,382.994 191.604,383.494 191.293 C 383.790 191.108,384.032 190.866,384.032 190.754 C 384.032 190.370,383.626 190.554,383.292 191.091 M380.908 194.217 C 380.296 194.965,380.111 195.495,380.560 195.217 C 380.964 194.968,381.962 193.479,381.721 193.485 C 381.602 193.488,381.236 193.817,380.908 194.217 M352.804 194.763 C 352.305 195.315,352.240 195.609,352.619 195.609 C 352.903 195.609,353.535 194.564,353.358 194.387 C 353.296 194.325,353.047 194.495,352.804 194.763 M348.558 198.810 C 348.311 199.099,348.213 199.335,348.340 199.335 C 348.633 199.335,349.284 198.563,349.126 198.405 C 349.060 198.339,348.805 198.522,348.558 198.810 M377.043 198.946 C 376.642 199.318,376.314 199.700,376.314 199.794 C 376.314 199.889,376.673 199.622,377.112 199.202 C 377.846 198.499,378.025 198.270,377.842 198.270 C 377.804 198.270,377.444 198.574,377.043 198.946 M346.256 200.903 C 345.936 201.502,346.125 201.613,346.771 201.205 C 347.070 201.016,347.092 200.878,346.862 200.648 C 346.632 200.418,346.482 200.481,346.256 200.903 M372.103 204.405 C 371.763 204.836,371.643 205.123,371.837 205.044 C 372.256 204.873,373.239 203.586,372.933 203.608 C 372.817 203.616,372.443 203.975,372.103 204.405 M365.608 210.444 C 365.209 210.692,364.824 211.048,364.752 211.235 C 364.530 211.814,364.969 211.615,365.759 210.778 C 366.624 209.862,366.607 209.825,365.608 210.444 M362.874 212.908 C 362.454 213.347,361.932 213.706,361.716 213.706 C 361.499 213.706,361.391 213.775,361.475 213.859 C 361.560 213.944,361.263 214.363,360.815 214.791 C 360.367 215.219,360.137 215.569,360.304 215.569 C 360.471 215.569,360.757 215.329,360.940 215.037 C 361.123 214.744,361.369 214.504,361.486 214.504 C 361.604 214.504,362.023 214.205,362.417 213.839 C 362.812 213.473,363.272 213.174,363.439 213.174 C 363.607 213.174,363.806 212.934,363.883 212.641 C 364.078 211.895,363.765 211.978,362.874 212.908 M327.545 214.793 C 327.289 215.073,327.180 215.303,327.304 215.303 C 327.428 215.303,327.746 215.063,328.011 214.770 C 328.276 214.478,328.384 214.248,328.251 214.260 C 328.119 214.273,327.801 214.512,327.545 214.793 M324.958 216.357 C 324.307 216.768,324.768 216.883,325.483 216.488 C 325.868 216.275,325.980 216.118,325.749 216.115 C 325.529 216.112,325.173 216.221,324.958 216.357 M323.450 217.299 C 323.365 217.518,323.142 217.698,322.954 217.698 C 322.766 217.698,322.543 217.878,322.458 218.098 C 322.325 218.446,322.388 218.444,322.940 218.082 C 323.517 217.704,324.058 216.900,323.736 216.900 C 323.663 216.900,323.534 217.079,323.450 217.299 M355.939 218.385 C 355.466 218.770,355.464 218.793,355.910 218.651 C 356.178 218.566,356.507 218.496,356.642 218.496 C 356.776 218.496,356.886 218.377,356.886 218.230 C 356.886 217.845,356.531 217.903,355.939 218.385 M319.284 219.827 C 319.121 220.453,319.497 220.551,319.730 219.943 C 319.818 219.714,320.010 219.602,320.158 219.693 C 320.305 219.784,320.426 219.732,320.426 219.577 C 320.426 219.064,319.426 219.283,319.284 219.827 M353.424 220.229 C 353.157 220.551,353.173 220.625,353.511 220.625 C 354.008 220.625,354.333 220.191,353.993 219.981 C 353.861 219.900,353.605 220.011,353.424 220.229 M351.031 221.823 C 351.031 222.043,351.151 222.222,351.297 222.222 C 351.444 222.222,351.564 222.043,351.564 221.823 C 351.564 221.603,351.444 221.424,351.297 221.424 C 351.151 221.424,351.031 221.603,351.031 221.823 M314.970 222.286 C 314.677 222.459,314.199 222.639,313.907 222.686 C 313.180 222.802,312.566 223.434,312.949 223.670 C 313.116 223.774,313.240 223.660,313.240 223.403 C 313.240 223.049,313.318 223.020,313.614 223.265 C 313.819 223.436,314.028 223.465,314.079 223.330 C 314.130 223.195,314.649 222.831,315.232 222.520 C 315.816 222.210,316.115 221.960,315.898 221.964 C 315.680 221.969,315.263 222.114,314.970 222.286 M308.250 225.870 C 307.921 225.933,307.651 226.080,307.651 226.196 C 307.651 226.312,307.951 226.349,308.317 226.279 C 308.683 226.209,308.982 226.046,308.982 225.917 C 308.982 225.788,308.952 225.698,308.916 225.718 C 308.879 225.738,308.580 225.806,308.250 225.870 M344.758 225.886 C 344.601 225.993,344.393 226.295,344.297 226.556 C 344.129 227.011,344.148 227.011,344.774 226.556 C 345.644 225.922,345.629 225.289,344.758 225.886 M342.433 227.399 C 342.220 227.612,341.953 227.702,341.839 227.599 C 341.725 227.496,341.717 227.562,341.823 227.745 C 342.068 228.171,342.057 228.173,342.781 227.545 C 343.119 227.252,343.265 227.013,343.107 227.013 C 342.949 227.013,342.645 227.187,342.433 227.399 M335.411 231.398 L 334.664 232.058 335.391 231.731 C 335.791 231.551,336.176 231.254,336.248 231.071 C 336.437 230.585,336.248 230.659,335.411 231.398 M296.325 231.648 C 296.042 231.856,295.905 232.122,296.023 232.239 C 296.140 232.357,296.336 232.291,296.458 232.094 C 296.580 231.896,296.785 231.799,296.913 231.878 C 297.040 231.957,297.376 231.853,297.659 231.646 C 298.151 231.286,298.145 231.271,297.507 231.271 C 297.141 231.271,296.609 231.441,296.325 231.648 M294.724 232.729 C 294.442 232.942,294.331 233.119,294.478 233.121 C 294.873 233.128,295.549 232.653,295.382 232.486 C 295.302 232.406,295.006 232.515,294.724 232.729 M289.893 234.700 C 288.963 235.165,288.788 235.440,289.421 235.440 C 289.641 235.440,289.820 235.340,289.820 235.218 C 289.820 235.096,289.985 234.997,290.187 234.997 C 290.389 234.997,290.703 234.817,290.885 234.597 C 291.290 234.109,291.018 234.137,289.893 234.700 M286.361 236.327 C 286.361 236.474,286.540 236.593,286.760 236.593 C 286.979 236.593,287.159 236.474,287.159 236.327 C 287.159 236.181,286.979 236.061,286.760 236.061 C 286.540 236.061,286.361 236.181,286.361 236.327 M285.296 236.618 C 285.296 236.768,285.205 236.835,285.094 236.766 C 284.982 236.697,284.660 236.810,284.377 237.016 C 283.723 237.495,284.313 237.504,285.420 237.031 C 286.068 236.755,286.127 236.663,285.753 236.519 C 285.502 236.423,285.296 236.467,285.296 236.618 M277.344 239.760 C 277.023 240.037,276.556 240.216,276.305 240.157 C 276.054 240.098,275.549 240.298,275.183 240.601 C 274.579 241.102,274.573 241.126,275.116 240.860 C 275.446 240.699,275.715 240.655,275.715 240.762 C 275.715 240.870,275.850 240.824,276.014 240.660 C 276.178 240.495,276.462 240.418,276.645 240.489 C 276.828 240.559,277.429 240.310,277.980 239.935 C 278.746 239.416,278.858 239.255,278.454 239.255 C 278.164 239.255,277.664 239.482,277.344 239.760 M315.768 240.585 C 315.859 240.732,315.746 240.852,315.518 240.852 C 315.290 240.852,315.103 240.971,315.103 241.118 C 315.103 241.547,315.595 241.425,316.168 240.852 L 316.700 240.319 316.152 240.319 C 315.851 240.319,315.678 240.439,315.768 240.585 M268.594 242.849 C 268.410 243.058,268.097 243.166,267.897 243.090 C 267.683 243.008,267.476 243.175,267.392 243.498 C 267.222 244.148,267.360 244.188,267.902 243.646 C 268.122 243.426,268.520 243.247,268.786 243.247 C 269.053 243.247,269.340 243.067,269.424 242.848 C 269.618 242.342,269.039 242.343,268.594 242.849 M309.647 243.158 L 309.115 243.585 309.647 243.384 C 309.940 243.274,310.324 243.178,310.501 243.171 C 310.677 243.164,310.760 243.058,310.684 242.936 C 310.490 242.621,310.255 242.671,309.647 243.158 M301.161 246.025 C 300.597 246.274,300.487 246.422,300.746 246.582 C 300.958 246.713,301.142 246.675,301.205 246.486 C 301.262 246.313,301.407 246.231,301.525 246.304 C 301.644 246.377,301.809 246.258,301.893 246.040 C 301.977 245.821,302.020 245.652,301.988 245.664 C 301.956 245.676,301.584 245.838,301.161 246.025 M297.790 247.080 C 297.269 247.260,296.684 247.353,296.489 247.288 C 296.266 247.214,296.207 247.289,296.331 247.489 C 296.439 247.664,296.725 247.728,296.966 247.632 C 297.208 247.535,297.679 247.423,298.013 247.383 C 298.638 247.308,299.042 247.056,298.847 246.863 C 298.786 246.803,298.310 246.901,297.790 247.080 M252.881 247.824 C 252.705 248.000,252.562 248.223,252.562 248.320 C 252.562 248.588,253.876 248.278,254.070 247.964 C 254.169 247.805,254.111 247.769,253.933 247.879 C 253.764 247.983,253.626 247.942,253.626 247.787 C 253.626 247.412,253.276 247.430,252.881 247.824 M294.345 248.037 C 293.797 248.213,293.773 248.254,294.212 248.273 C 294.504 248.285,294.923 248.179,295.143 248.037 C 295.609 247.736,295.286 247.736,294.345 248.037 M290.885 249.102 C 290.885 249.248,290.681 249.368,290.432 249.368 C 290.108 249.368,290.061 249.449,290.268 249.656 C 290.475 249.862,290.715 249.844,291.120 249.592 C 291.778 249.181,291.853 248.836,291.284 248.836 C 291.065 248.836,290.885 248.955,290.885 249.102 M286.893 250.233 C 286.893 250.343,287.192 250.432,287.558 250.432 C 287.924 250.432,288.224 250.325,288.224 250.194 C 288.224 250.064,287.924 249.974,287.558 249.995 C 287.193 250.016,286.893 250.123,286.893 250.233 M240.508 251.497 C 240.432 251.790,240.464 252.029,240.579 252.029 C 240.695 252.029,240.852 251.790,240.929 251.497 C 241.005 251.204,240.973 250.965,240.858 250.965 C 240.742 250.965,240.585 251.204,240.508 251.497 M270.012 254.128 C 269.862 254.371,270.939 254.765,271.157 254.547 C 271.225 254.480,271.133 254.424,270.953 254.424 C 270.774 254.424,270.701 254.305,270.792 254.158 C 270.882 254.012,270.777 253.892,270.557 253.892 C 270.337 253.892,270.092 253.998,270.012 254.128 M226.747 254.824 C 226.747 255.272,226.976 255.322,227.501 254.990 C 227.784 254.810,227.766 254.730,227.412 254.595 C 226.793 254.357,226.747 254.373,226.747 254.824 M266.534 254.939 C 266.241 255.054,265.822 255.088,265.602 255.014 C 265.327 254.921,265.286 254.967,265.469 255.163 C 265.769 255.484,267.199 255.288,267.199 254.926 C 267.199 254.796,267.169 254.699,267.132 254.709 C 267.096 254.720,266.826 254.823,266.534 254.939 M214.167 257.037 C 213.762 257.084,213.484 257.209,213.550 257.315 C 213.719 257.588,216.199 257.456,216.295 257.168 C 216.375 256.930,215.547 256.879,214.167 257.037 M248.071 257.712 C 247.891 257.931,248.073 258.023,248.713 258.037 C 249.658 258.057,249.736 257.776,248.850 257.545 C 248.560 257.469,248.210 257.544,248.071 257.712 M246.041 257.884 C 245.616 258.067,245.598 258.117,245.953 258.132 C 246.197 258.142,246.556 258.191,246.751 258.240 C 246.946 258.289,247.015 258.279,246.905 258.217 C 246.794 258.155,246.771 257.995,246.854 257.862 C 247.035 257.568,246.759 257.576,246.041 257.884 M236.796 258.871 C 237.127 258.935,237.606 258.932,237.861 258.865 C 238.115 258.799,237.844 258.747,237.259 258.750 C 236.673 258.753,236.465 258.807,236.796 258.871 " stroke="none" fill="#3c7c4c" fill-rule="evenodd"></path><path id="path1" d="M365.729 188.707 C 366.265 189.019,384.048 188.937,383.856 188.623 C 383.789 188.513,379.580 188.427,374.502 188.431 C 368.184 188.437,365.414 188.524,365.729 188.707 M169.794 192.415 C 169.794 192.708,169.679 192.947,169.540 192.947 C 169.400 192.947,169.207 193.368,169.110 193.882 C 169.014 194.396,168.829 194.882,168.699 194.962 C 168.105 195.329,168.578 195.609,169.794 195.609 C 170.799 195.609,171.124 195.511,171.124 195.210 C 171.124 194.990,171.239 194.810,171.378 194.810 C 171.518 194.810,171.711 194.391,171.807 193.879 C 171.903 193.367,172.088 192.947,172.219 192.947 C 172.349 192.947,172.455 192.708,172.455 192.415 C 172.455 191.954,172.278 191.883,171.124 191.883 C 169.971 191.883,169.794 191.954,169.794 192.415 M148.503 192.415 C 148.503 192.562,148.317 192.681,148.090 192.681 C 147.759 192.681,147.693 192.959,147.757 194.079 L 147.838 195.476 148.996 195.559 C 151.029 195.705,151.942 193.985,150.497 192.729 C 149.818 192.139,148.503 191.932,148.503 192.415 M220.359 192.415 C 220.359 192.562,220.173 192.681,219.946 192.681 C 219.615 192.681,219.549 192.959,219.614 194.079 L 219.694 195.476 220.856 195.559 C 222.151 195.652,223.021 195.027,223.021 194.004 C 223.021 193.406,222.448 192.681,221.975 192.681 C 221.818 192.681,221.690 192.562,221.690 192.415 C 221.690 192.269,221.391 192.149,221.025 192.149 C 220.659 192.149,220.359 192.269,220.359 192.415 M237.192 192.595 C 235.821 193.551,236.660 195.609,238.422 195.609 C 239.645 195.609,240.053 195.229,240.053 194.092 C 240.053 192.457,238.531 191.661,237.192 192.595 M98.603 192.937 C 95.940 193.247,92.881 195.980,92.881 198.049 C 92.881 198.405,92.749 198.827,92.589 198.988 C 92.082 199.495,92.720 203.952,93.358 204.364 C 93.495 204.452,93.692 204.794,93.794 205.123 C 93.897 205.452,94.093 205.722,94.230 205.722 C 94.366 205.722,94.478 205.902,94.478 206.121 C 94.478 206.341,94.589 206.520,94.725 206.520 C 94.861 206.520,95.130 206.672,95.324 206.856 C 96.603 208.079,97.210 208.250,100.276 208.250 C 102.194 208.250,103.348 208.143,103.469 207.953 C 103.574 207.790,103.909 207.579,104.214 207.484 C 104.938 207.258,106.720 205.669,106.720 205.249 C 106.720 205.070,106.821 204.923,106.944 204.923 C 107.161 204.923,107.784 203.174,107.784 202.564 C 107.784 201.560,105.160 202.262,104.582 203.421 C 104.175 204.235,103.734 204.685,103.099 204.934 C 102.602 205.129,102.196 205.386,102.196 205.505 C 102.196 205.624,101.297 205.722,100.200 205.722 C 99.102 205.722,98.204 205.631,98.204 205.521 C 98.204 205.410,97.874 205.171,97.472 204.990 C 94.523 203.662,94.628 198.153,97.641 196.133 C 98.672 195.442,102.003 195.172,102.405 195.747 C 102.509 195.897,102.898 196.152,103.268 196.314 C 103.638 196.476,104.177 197.101,104.466 197.702 C 104.973 198.762,105.031 198.796,106.289 198.799 L 107.588 198.802 107.437 197.677 C 107.354 197.058,107.159 196.509,107.003 196.457 C 106.847 196.405,106.720 196.235,106.720 196.079 C 106.720 195.558,104.625 193.777,103.393 193.251 C 102.619 192.921,100.140 192.759,98.603 192.937 M185.496 200.532 L 185.496 208.117 186.693 208.117 L 187.891 208.117 187.891 200.532 L 187.891 192.947 186.693 192.947 L 185.496 192.947 185.496 200.532 M381.770 193.746 C 381.505 194.039,381.422 194.278,381.586 194.278 C 381.750 194.278,382.012 194.039,382.169 193.746 C 382.326 193.453,382.408 193.214,382.353 193.214 C 382.297 193.214,382.035 193.453,381.770 193.746 M156.221 195.046 C 156.221 196.225,156.010 196.439,154.633 196.661 C 153.745 196.804,153.688 196.876,153.611 197.941 L 153.529 199.069 154.609 199.069 L 155.689 199.069 155.689 202.129 C 155.689 203.992,155.793 205.190,155.955 205.190 C 156.101 205.190,156.221 205.456,156.221 205.782 C 156.221 207.103,157.986 208.147,160.073 208.061 L 161.943 207.984 162.025 206.853 L 162.106 205.722 160.723 205.722 C 158.793 205.722,158.635 205.436,158.625 201.929 L 158.616 199.069 160.346 199.069 L 162.076 199.069 162.076 198.032 C 162.076 196.831,161.828 196.673,159.940 196.673 L 158.645 196.673 158.564 195.409 L 158.483 194.145 157.352 194.063 L 156.221 193.981 156.221 195.046 M114.704 196.569 C 112.987 197.223,112.354 197.662,111.283 198.941 C 111.085 199.178,110.859 199.842,110.782 200.418 C 110.705 200.993,110.538 201.464,110.411 201.464 C 110.088 201.464,110.120 203.258,110.446 203.460 C 110.592 203.550,110.712 203.958,110.712 204.367 C 110.712 205.188,112.070 207.248,112.785 207.511 C 113.035 207.604,113.320 207.799,113.418 207.945 C 114.381 209.386,121.330 207.731,121.353 206.055 C 121.355 205.872,121.472 205.722,121.611 205.722 C 121.751 205.722,121.940 205.273,122.031 204.724 C 122.122 204.175,122.321 203.396,122.474 202.994 C 122.658 202.510,122.664 202.149,122.490 201.929 C 122.346 201.746,122.160 201.067,122.078 200.421 C 121.993 199.755,121.746 199.143,121.510 199.010 C 121.279 198.881,121.091 198.631,121.091 198.455 C 121.091 197.356,116.329 195.950,114.704 196.569 M129.098 196.890 C 128.407 197.232,128.163 197.259,128.078 197.006 C 128.017 196.823,127.557 196.673,127.057 196.673 L 126.148 196.673 126.148 202.395 L 126.148 208.117 127.212 208.117 L 128.277 208.117 128.277 204.964 C 128.277 200.185,129.705 198.050,132.120 199.220 C 133.475 199.877,133.866 201.142,133.866 204.878 L 133.866 208.117 134.930 208.117 L 135.995 208.117 135.995 204.790 C 135.995 202.750,136.098 201.464,136.261 201.464 C 136.407 201.464,136.527 201.242,136.527 200.970 C 136.527 198.903,140.450 198.307,140.950 200.298 C 141.037 200.646,141.216 200.931,141.346 200.931 C 141.477 200.931,141.583 202.548,141.583 204.524 L 141.583 208.117 142.670 208.117 L 143.757 208.117 143.668 203.519 C 143.568 198.343,143.398 197.852,141.366 196.889 C 139.575 196.041,136.249 196.571,135.396 197.840 C 135.253 198.053,135.134 198.040,134.975 197.795 C 134.147 196.514,130.879 196.010,129.098 196.890 M167.160 197.129 C 166.370 197.522,165.668 198.060,165.599 198.323 C 165.530 198.587,165.376 198.802,165.258 198.802 C 165.139 198.802,164.854 199.180,164.624 199.642 C 164.167 200.557,164.017 204.923,164.442 204.923 C 164.573 204.923,164.755 205.226,164.848 205.596 C 165.568 208.463,171.377 209.433,173.985 207.122 C 174.315 206.830,174.584 206.468,174.584 206.318 C 174.584 206.168,174.764 205.976,174.983 205.892 C 175.217 205.802,175.383 205.403,175.383 204.932 C 175.383 203.926,173.247 203.676,172.740 204.623 C 172.055 205.902,169.072 206.369,168.058 205.355 C 167.827 205.124,167.480 204.843,167.287 204.730 C 167.094 204.617,166.852 204.255,166.750 203.925 L 166.564 203.327 171.240 203.327 L 175.915 203.327 175.915 202.278 C 175.915 201.701,175.795 201.155,175.649 201.065 C 175.502 200.974,175.383 200.626,175.383 200.290 C 175.383 197.338,170.506 195.463,167.160 197.129 M207.714 196.911 C 206.617 197.444,205.313 198.717,204.724 199.831 C 204.366 200.507,204.255 204.818,204.591 204.968 C 204.701 205.017,204.972 205.412,205.195 205.846 C 206.753 208.888,212.398 209.332,214.920 206.610 C 215.277 206.225,215.569 205.758,215.569 205.572 C 215.569 205.386,215.719 205.184,215.902 205.123 C 216.467 204.935,216.338 200.749,215.727 199.474 C 214.484 196.877,210.446 195.586,207.714 196.911 M246.417 196.882 C 245.092 197.515,243.804 198.877,243.610 199.850 C 243.520 200.298,243.342 200.665,243.214 200.665 C 243.085 200.665,242.981 201.444,242.981 202.395 C 242.981 203.347,243.085 204.125,243.214 204.125 C 243.342 204.125,243.521 204.498,243.612 204.954 C 243.796 205.871,245.543 207.725,246.603 208.128 C 249.203 209.117,254.158 207.440,254.158 205.572 C 254.158 205.386,254.300 205.187,254.472 205.129 C 255.239 204.874,254.418 204.125,253.371 204.125 C 252.380 204.125,251.894 204.369,250.795 205.416 C 249.783 206.379,246.682 205.838,246.299 204.632 C 246.211 204.353,246.027 204.125,245.890 204.125 C 245.754 204.125,245.642 203.945,245.642 203.726 C 245.642 203.387,246.322 203.327,250.166 203.327 L 254.691 203.327 254.691 201.863 C 254.691 201.058,254.571 200.399,254.424 200.399 C 254.278 200.399,254.158 200.096,254.158 199.726 C 254.158 199.355,253.979 198.983,253.759 198.899 C 253.540 198.814,253.360 198.622,253.360 198.471 C 253.360 196.989,248.512 195.880,246.417 196.882 M261.743 196.929 C 260.842 197.355,260.646 197.374,260.466 197.053 C 260.236 196.643,259.027 196.548,258.477 196.896 C 258.218 197.061,258.156 198.376,258.211 202.547 L 258.283 207.984 259.527 208.064 L 260.771 208.145 260.858 204.450 L 260.945 200.756 261.824 199.878 C 263.366 198.337,266.134 199.023,266.134 200.945 C 266.134 201.230,266.254 201.464,266.401 201.464 C 266.564 201.464,266.667 202.750,266.667 204.790 L 266.667 208.117 267.754 208.117 L 268.841 208.117 268.752 203.612 C 268.672 199.566,268.607 199.029,268.115 198.355 C 266.821 196.583,263.871 195.922,261.743 196.929 M148.148 196.851 C 148.051 196.948,147.971 199.523,147.971 202.573 L 147.971 208.117 149.168 208.117 L 150.366 208.117 150.366 202.395 L 150.366 196.673 149.346 196.673 C 148.785 196.673,148.246 196.753,148.148 196.851 M191.127 196.908 C 190.874 197.068,190.843 197.281,191.021 197.636 C 191.886 199.360,193.214 202.475,193.214 202.780 C 193.214 202.934,193.324 203.061,193.459 203.061 C 193.593 203.061,193.787 203.450,193.888 203.925 C 193.990 204.401,194.233 205.090,194.427 205.456 C 194.622 205.822,194.981 206.570,195.225 207.119 C 195.850 208.522,198.108 208.664,198.403 207.319 C 198.500 206.880,198.678 206.520,198.800 206.520 C 198.922 206.520,199.103 206.041,199.202 205.456 C 199.301 204.870,199.468 204.391,199.573 204.391 C 199.796 204.391,200.553 202.725,200.811 201.663 C 200.909 201.261,201.080 200.931,201.192 200.931 C 201.303 200.931,201.551 200.363,201.742 199.667 C 201.933 198.972,202.185 198.338,202.302 198.258 C 202.419 198.179,202.548 197.820,202.588 197.460 C 202.694 196.512,200.417 196.463,200.003 197.405 C 199.859 197.735,199.655 198.004,199.550 198.004 C 199.445 198.004,199.280 198.423,199.184 198.935 C 199.088 199.448,198.914 199.867,198.797 199.867 C 198.681 199.867,198.432 200.466,198.244 201.198 C 198.057 201.929,197.816 202.528,197.709 202.528 C 197.602 202.528,197.435 202.888,197.339 203.327 C 197.242 203.766,197.063 204.125,196.939 204.125 C 196.816 204.125,196.637 203.766,196.540 203.327 C 196.444 202.888,196.255 202.528,196.120 202.528 C 195.985 202.528,195.871 202.379,195.866 202.196 C 195.861 202.013,195.625 201.384,195.343 200.798 C 195.060 200.213,194.824 199.584,194.819 199.401 C 194.814 199.218,194.700 199.069,194.565 199.069 C 194.431 199.069,194.237 198.679,194.135 198.204 C 193.826 196.755,192.362 196.125,191.127 196.908 M220.004 196.851 C 219.907 196.948,219.827 199.523,219.827 202.573 L 219.827 208.117 221.025 208.117 L 222.222 208.117 222.222 202.395 L 222.222 196.673 221.202 196.673 C 220.641 196.673,220.102 196.753,220.004 196.851 M226.924 196.851 C 226.826 196.948,226.747 199.523,226.747 202.573 L 226.747 208.117 227.918 208.117 L 229.089 208.117 229.182 204.540 L 229.275 200.963 230.339 200.016 C 231.204 199.246,231.616 199.069,232.535 199.069 L 233.666 199.069 233.666 197.871 L 233.666 196.673 232.322 196.673 C 231.583 196.673,230.614 196.862,230.169 197.092 C 229.433 197.473,229.318 197.473,228.897 197.092 C 228.429 196.669,227.250 196.524,226.924 196.851 M237.192 196.850 C 236.941 196.951,236.860 198.314,236.860 202.389 C 236.860 208.356,236.787 208.117,238.611 208.117 L 239.521 208.117 239.521 202.395 L 239.521 196.673 238.523 196.694 C 237.974 196.706,237.375 196.776,237.192 196.850 M350.233 197.073 C 350.004 197.348,349.994 197.472,350.200 197.472 C 350.365 197.472,350.499 197.361,350.499 197.225 C 350.499 197.089,350.709 196.924,350.965 196.857 C 351.358 196.754,351.363 196.730,350.997 196.704 C 350.759 196.687,350.415 196.853,350.233 197.073 M117.898 199.332 C 117.971 199.440,118.282 199.607,118.588 199.703 C 119.999 200.143,120.144 203.982,118.791 205.070 C 117.060 206.462,113.373 205.844,113.373 204.161 C 113.373 203.995,113.253 203.859,113.107 203.859 C 112.961 203.859,112.841 203.200,112.841 202.395 C 112.841 201.590,112.953 200.931,113.089 200.931 C 113.226 200.931,113.408 200.710,113.494 200.440 C 113.641 199.975,114.442 199.450,115.635 199.035 C 116.224 198.831,117.689 199.023,117.898 199.332 M172.326 200.022 C 173.698 201.394,173.588 201.464,170.060 201.464 C 167.399 201.464,166.866 201.397,166.866 201.065 C 166.866 200.845,166.986 200.665,167.132 200.665 C 167.279 200.665,167.399 200.474,167.399 200.241 C 167.399 200.008,167.638 199.754,167.931 199.678 C 168.224 199.601,168.463 199.441,168.463 199.322 C 168.463 198.420,171.225 198.920,172.326 200.022 M211.799 199.357 C 211.847 199.491,212.023 199.601,212.189 199.601 C 213.544 199.601,214.336 204.001,213.106 204.690 C 212.865 204.825,212.489 205.114,212.271 205.331 C 211.607 205.996,209.714 206.094,208.670 205.518 C 205.317 203.669,207.002 198.444,210.778 198.981 C 211.291 199.053,211.750 199.223,211.799 199.357 M250.079 199.065 C 250.522 199.070,252.029 200.631,252.029 201.085 C 252.029 201.392,251.420 201.464,248.836 201.464 C 245.287 201.464,245.281 201.460,246.540 200.090 C 247.437 199.113,248.238 198.778,249.235 198.963 C 249.528 199.017,249.908 199.063,250.079 199.065 M343.580 202.790 C 342.959 203.271,342.953 203.295,343.495 203.157 C 343.814 203.075,344.139 202.840,344.218 202.635 C 344.399 202.164,344.382 202.168,343.580 202.790 M332.499 211.176 C 332.415 211.395,332.247 211.513,332.126 211.438 C 332.005 211.363,331.838 211.413,331.754 211.549 C 331.670 211.685,331.795 211.768,332.031 211.733 C 332.428 211.675,333.155 210.778,332.806 210.778 C 332.721 210.778,332.583 210.957,332.499 211.176 M85.873 215.214 C 85.775 215.312,85.695 216.505,85.695 217.867 C 85.695 220.347,85.361 220.896,84.574 219.713 C 84.293 219.292,79.516 219.336,79.374 219.762 C 79.313 219.944,79.118 220.093,78.939 220.093 C 78.466 220.093,76.992 221.699,76.663 222.572 C 76.086 224.104,76.486 228.876,77.191 228.876 C 77.331 228.876,77.445 229.055,77.445 229.275 C 77.445 229.494,77.547 229.674,77.671 229.674 C 77.795 229.674,78.172 229.914,78.510 230.206 C 78.847 230.499,79.345 230.739,79.615 230.739 C 79.885 230.739,80.106 230.858,80.106 231.005 C 80.106 231.157,80.905 231.271,81.969 231.271 C 83.034 231.271,83.832 231.157,83.832 231.005 C 83.832 230.858,84.063 230.739,84.346 230.739 C 84.628 230.739,85.038 230.559,85.258 230.339 C 85.478 230.120,85.726 229.940,85.809 229.940 C 85.893 229.940,85.961 230.120,85.961 230.339 C 85.961 230.628,86.257 230.739,87.026 230.739 L 88.090 230.739 88.090 222.888 L 88.090 215.037 87.070 215.037 C 86.509 215.037,85.970 215.116,85.873 215.214 M233.818 215.455 C 233.296 215.977,233.273 217.609,233.780 218.116 C 234.323 218.659,235.889 218.596,236.419 218.010 C 237.486 216.831,236.708 215.037,235.130 215.037 C 234.638 215.037,234.048 215.225,233.818 215.455 M255.109 215.455 C 254.616 215.948,254.552 217.719,255.010 218.177 C 255.532 218.699,257.173 218.567,257.692 217.961 C 259.116 216.298,256.654 213.909,255.109 215.455 M276.248 222.888 L 276.248 230.739 277.578 230.739 L 278.909 230.739 278.909 222.888 L 278.909 215.037 277.578 215.037 L 276.248 215.037 276.248 222.888 M123.006 217.099 L 123.087 218.363 125.549 218.440 L 128.011 218.516 128.011 224.627 L 128.011 230.739 129.341 230.739 L 130.672 230.739 130.672 224.617 L 130.672 218.496 132.934 218.496 L 135.196 218.496 135.196 217.166 L 135.196 215.835 129.061 215.835 L 122.925 215.835 123.006 217.099 M192.149 223.287 L 192.149 230.739 196.955 230.739 L 201.760 230.739 201.679 229.607 L 201.597 228.476 198.204 228.402 L 194.810 228.327 194.810 222.081 L 194.810 215.835 193.480 215.835 L 192.149 215.835 192.149 223.287 M164.340 217.232 C 164.277 217.415,164.191 217.984,164.149 218.496 C 164.077 219.364,164.004 219.433,163.074 219.510 C 162.083 219.592,162.076 219.601,162.076 220.775 L 162.076 221.956 163.140 221.956 L 164.205 221.956 164.205 225.416 C 164.205 227.545,164.307 228.876,164.471 228.876 C 164.617 228.876,164.737 229.029,164.737 229.216 C 164.737 230.066,165.910 230.597,168.014 230.697 L 170.093 230.796 170.010 229.636 L 169.927 228.476 168.514 228.334 C 166.703 228.153,166.609 227.973,166.604 224.684 L 166.600 221.956 168.330 221.956 L 170.060 221.956 170.060 220.758 L 170.060 219.561 168.330 219.561 L 166.600 219.561 166.600 218.230 L 166.600 216.900 165.527 216.900 C 164.907 216.900,164.406 217.040,164.340 217.232 M95.542 219.475 C 95.176 219.552,94.817 219.692,94.744 219.787 C 94.671 219.882,94.377 220.089,94.090 220.248 C 92.262 221.258,91.294 224.652,92.046 227.419 C 92.383 228.661,94.245 230.739,95.020 230.739 C 95.307 230.739,95.542 230.858,95.542 231.005 C 95.542 231.336,99.445 231.364,99.649 231.034 C 99.730 230.904,100.099 230.721,100.470 230.628 C 101.502 230.369,103.260 228.404,103.260 227.509 C 103.260 226.558,101.026 226.833,99.728 227.944 C 98.087 229.349,96.429 229.167,94.952 227.420 C 93.991 226.283,94.216 226.214,98.899 226.214 L 103.320 226.214 103.217 224.388 C 103.103 222.363,102.266 220.878,100.904 220.280 C 100.517 220.110,100.123 219.864,100.030 219.733 C 99.835 219.458,96.531 219.268,95.542 219.475 M108.735 219.472 C 108.452 219.552,108.057 219.782,107.857 219.983 C 107.656 220.183,107.288 220.462,107.039 220.601 C 105.927 221.223,106.748 225.407,107.984 225.417 C 108.094 225.418,108.495 225.582,108.876 225.781 C 109.257 225.979,110.147 226.229,110.853 226.335 C 113.906 226.792,114.187 228.876,111.196 228.876 C 110.003 228.876,108.583 228.014,108.583 227.291 C 108.583 227.134,108.002 227.013,107.252 227.013 C 106.013 227.013,105.564 227.293,106.188 227.678 C 106.334 227.768,106.454 228.126,106.454 228.472 C 106.454 229.228,107.886 230.739,108.603 230.739 C 108.885 230.739,109.115 230.858,109.115 231.005 C 109.115 231.160,110.002 231.271,111.244 231.271 C 112.415 231.271,113.373 231.166,113.373 231.038 C 113.373 230.910,113.720 230.736,114.144 230.651 C 114.669 230.546,115.029 230.238,115.273 229.686 C 115.471 229.240,115.723 228.876,115.833 228.876 C 116.492 228.876,115.462 225.438,114.799 225.423 C 114.632 225.419,114.432 225.251,114.354 225.050 C 114.277 224.849,113.636 224.598,112.929 224.492 C 112.222 224.386,111.524 224.221,111.377 224.126 C 111.231 224.030,110.693 223.829,110.182 223.678 C 109.074 223.351,108.844 222.647,109.612 221.932 C 110.179 221.403,111.776 221.225,111.776 221.690 C 111.776 221.836,111.949 221.956,112.161 221.956 C 112.372 221.956,112.757 222.315,113.016 222.754 C 113.582 223.712,115.475 223.962,115.534 223.087 C 115.625 221.744,115.083 220.430,114.343 220.199 C 114.029 220.101,113.694 219.899,113.597 219.749 C 113.407 219.452,109.570 219.234,108.735 219.472 M139.521 219.467 C 139.192 219.539,138.922 219.709,138.922 219.846 C 138.922 219.982,138.750 220.093,138.539 220.093 C 138.033 220.093,136.738 221.359,136.250 222.331 C 135.746 223.334,135.702 227.847,136.194 228.011 C 136.377 228.072,136.527 228.254,136.527 228.417 C 136.527 228.896,138.656 230.739,139.211 230.739 C 139.491 230.739,139.721 230.858,139.721 231.005 C 139.721 231.336,143.358 231.364,143.561 231.034 C 143.642 230.904,144.019 230.719,144.400 230.624 C 145.392 230.375,146.874 228.837,147.071 227.852 L 147.239 227.013 145.941 227.020 C 144.856 227.026,144.516 227.158,143.860 227.827 C 142.789 228.918,139.987 229.283,139.987 228.331 C 139.987 228.192,139.807 228.077,139.587 228.077 C 139.368 228.077,139.188 227.894,139.188 227.670 C 139.188 227.445,139.009 227.193,138.789 227.109 C 137.216 226.505,138.526 226.214,142.816 226.214 L 147.242 226.214 147.117 224.266 C 146.980 222.134,146.394 220.999,145.082 220.323 C 144.695 220.124,144.300 219.854,144.206 219.723 C 144.013 219.457,140.456 219.263,139.521 219.467 M152.628 219.470 C 149.917 220.222,149.708 224.999,152.362 225.571 C 152.801 225.666,153.280 225.833,153.426 225.943 C 153.573 226.052,154.210 226.221,154.842 226.317 C 157.858 226.778,158.138 228.876,155.184 228.876 C 153.914 228.876,152.761 228.139,152.761 227.328 C 152.761 227.127,152.276 227.013,151.418 227.013 L 150.076 227.013 150.262 228.004 C 150.364 228.549,150.579 229.135,150.739 229.305 C 150.900 229.475,151.240 229.867,151.494 230.177 C 151.749 230.486,152.198 230.739,152.492 230.739 C 152.787 230.739,153.027 230.858,153.027 231.005 C 153.027 231.160,153.914 231.271,155.156 231.271 C 156.398 231.271,157.285 231.160,157.285 231.005 C 157.285 230.858,157.507 230.739,157.779 230.739 C 159.271 230.739,160.804 226.722,159.481 226.281 C 159.298 226.220,159.148 226.049,159.148 225.902 C 159.148 225.355,157.912 224.630,156.687 224.459 C 155.991 224.362,155.422 224.194,155.422 224.085 C 155.422 223.976,154.951 223.812,154.376 223.720 C 153.024 223.503,152.651 222.646,153.595 221.920 C 154.723 221.053,156.821 221.663,157.145 222.952 C 157.438 224.120,159.681 223.818,159.681 222.610 C 159.681 221.558,159.514 221.295,157.930 219.863 C 157.511 219.484,153.618 219.196,152.628 219.470 M175.391 219.473 C 173.645 219.845,171.446 223.819,172.987 223.819 C 173.134 223.819,173.253 223.972,173.253 224.159 C 173.253 224.663,174.236 225.413,175.131 225.592 C 175.562 225.678,175.915 225.838,175.915 225.947 C 175.915 226.056,176.543 226.229,177.311 226.331 C 179.425 226.611,180.417 227.909,179.069 228.630 C 177.864 229.276,175.116 228.388,175.116 227.353 C 175.116 227.127,174.713 227.013,173.919 227.013 C 172.728 227.013,172.721 227.018,172.721 227.944 C 172.721 228.456,172.841 228.876,172.987 228.876 C 173.134 228.876,173.253 229.029,173.253 229.216 C 173.253 230.579,179.053 232.170,179.774 231.005 C 179.864 230.858,180.144 230.739,180.396 230.739 C 181.777 230.739,182.764 227.997,182.055 226.132 C 181.774 225.391,179.847 224.351,178.758 224.351 C 178.365 224.351,178.044 224.247,178.044 224.120 C 178.044 223.993,177.624 223.820,177.110 223.737 C 175.375 223.456,174.956 222.600,176.204 221.890 C 177.097 221.381,178.310 221.266,178.310 221.690 C 178.310 221.836,178.487 221.956,178.702 221.956 C 178.918 221.956,179.281 222.315,179.508 222.754 C 179.861 223.438,180.072 223.553,180.978 223.553 L 182.036 223.553 182.036 222.402 C 182.036 221.261,181.264 220.093,180.511 220.093 C 180.349 220.093,180.175 219.966,180.123 219.811 C 180.021 219.503,176.449 219.248,175.391 219.473 M207.186 219.506 C 204.224 220.561,203.460 221.735,203.460 225.226 C 203.460 227.046,203.568 228.166,203.757 228.286 C 203.920 228.391,204.134 228.716,204.232 229.009 C 204.423 229.577,206.050 230.739,206.656 230.739 C 206.857 230.739,207.095 230.858,207.186 231.005 C 207.389 231.334,210.958 231.360,211.159 231.034 C 211.240 230.904,211.622 230.718,212.009 230.621 C 212.958 230.383,214.487 228.764,214.681 227.791 C 214.768 227.357,214.943 226.937,215.071 226.858 C 215.393 226.659,215.363 223.888,215.037 223.686 C 214.890 223.595,214.770 223.307,214.770 223.045 C 214.770 220.749,209.975 218.512,207.186 219.506 M221.823 219.474 C 221.530 219.556,221.231 219.701,221.158 219.797 C 221.084 219.893,220.708 220.110,220.320 220.280 C 217.602 221.472,217.070 226.791,219.413 229.337 C 219.714 229.664,220.100 229.933,220.271 229.936 C 220.441 229.938,220.631 230.090,220.692 230.273 C 220.866 230.796,226.151 230.735,226.486 230.206 C 226.678 229.903,226.738 229.999,226.738 230.605 C 226.738 233.218,222.330 233.870,221.215 231.422 C 220.826 230.569,218.613 230.391,218.307 231.188 C 218.211 231.439,218.273 231.684,218.448 231.743 C 218.621 231.800,218.762 232.068,218.762 232.339 C 218.762 233.077,220.439 234.706,221.394 234.898 C 221.856 234.990,222.298 235.170,222.377 235.297 C 222.868 236.092,226.865 235.103,228.083 233.886 C 229.242 232.727,229.405 231.675,229.406 225.349 L 229.408 219.561 228.343 219.561 C 227.574 219.561,227.279 219.672,227.279 219.960 C 227.279 220.475,227.038 220.465,226.442 219.925 C 225.946 219.477,222.884 219.177,221.823 219.474 M243.713 219.469 C 243.310 219.539,242.981 219.708,242.981 219.845 C 242.981 219.981,242.823 220.093,242.631 220.093 C 242.213 220.093,240.852 221.462,240.852 221.882 C 240.852 222.045,240.702 222.228,240.519 222.289 C 240.003 222.462,240.061 227.804,240.585 228.447 C 241.695 229.807,242.779 230.739,243.252 230.739 C 243.542 230.739,243.779 230.858,243.779 231.005 C 243.779 231.157,244.572 231.271,245.626 231.271 C 246.642 231.271,247.548 231.151,247.638 231.005 C 247.729 230.858,247.967 230.739,248.168 230.739 C 248.766 230.739,250.399 229.581,250.591 229.021 C 250.689 228.735,250.933 228.337,251.133 228.137 C 251.333 227.937,251.497 227.422,251.497 226.994 C 251.497 225.815,249.214 225.795,248.770 226.970 C 247.862 229.376,243.296 229.189,242.803 226.725 C 242.717 226.291,242.542 225.873,242.414 225.794 C 242.093 225.595,242.122 224.617,242.448 224.617 C 242.595 224.617,242.715 224.387,242.715 224.106 C 242.715 223.454,244.197 221.956,244.842 221.956 C 245.111 221.956,245.401 221.806,245.487 221.623 C 245.611 221.357,245.673 221.357,245.797 221.623 C 245.883 221.806,246.237 221.956,246.585 221.956 C 246.966 221.956,247.655 222.385,248.318 223.035 C 249.815 224.502,251.409 224.518,251.293 223.064 C 251.254 222.576,251.045 221.998,250.828 221.781 C 250.610 221.564,250.432 221.300,250.432 221.196 C 250.432 221.092,250.043 220.780,249.568 220.503 C 249.092 220.227,248.631 219.893,248.543 219.763 C 248.361 219.493,244.816 219.277,243.713 219.469 M264.870 219.467 C 264.541 219.539,264.271 219.709,264.271 219.846 C 264.271 219.982,264.119 220.093,263.932 220.093 C 262.241 220.093,259.966 226.294,261.344 227.146 C 261.490 227.236,261.610 227.534,261.610 227.808 C 261.610 228.081,261.767 228.464,261.958 228.657 C 262.149 228.850,262.385 229.218,262.482 229.474 C 262.579 229.731,262.790 229.940,262.951 229.940 C 263.113 229.940,263.425 230.120,263.644 230.339 C 263.864 230.559,264.274 230.739,264.557 230.739 C 264.839 230.739,265.070 230.858,265.070 231.005 C 265.070 231.157,265.868 231.271,266.933 231.271 C 267.997 231.271,268.796 231.157,268.796 231.005 C 268.796 230.858,269.048 230.739,269.356 230.739 C 270.039 230.739,271.989 229.243,271.989 228.720 C 271.989 228.513,272.117 228.343,272.274 228.343 C 272.431 228.343,272.520 228.074,272.474 227.745 C 272.330 226.735,270.500 226.764,269.346 227.795 C 267.378 229.552,264.005 228.710,264.005 226.463 C 264.005 226.319,265.850 226.214,268.397 226.214 L 272.788 226.214 272.788 224.913 C 272.788 222.845,271.197 220.093,270.002 220.093 C 269.802 220.093,269.593 219.957,269.538 219.791 C 269.432 219.473,265.948 219.232,264.870 219.467 M285.096 219.466 C 284.767 219.538,284.498 219.696,284.498 219.817 C 284.498 219.937,284.200 220.110,283.836 220.201 C 283.042 220.401,282.736 221.465,282.859 223.609 C 282.909 224.474,283.822 225.396,284.830 225.600 C 285.233 225.682,285.562 225.853,285.562 225.981 C 285.562 226.109,285.847 226.214,286.194 226.214 C 287.418 226.214,288.422 226.538,289.158 227.171 L 289.902 227.810 289.288 228.343 C 288.142 229.337,285.276 228.781,284.941 227.499 C 284.723 226.666,282.369 226.802,282.369 227.648 C 282.369 228.916,283.427 230.327,284.599 230.621 C 284.982 230.717,285.296 230.903,285.296 231.034 C 285.296 231.519,289.138 231.295,290.281 230.743 C 293.707 229.087,292.252 224.351,288.317 224.351 C 287.973 224.351,287.691 224.247,287.691 224.120 C 287.691 223.993,287.271 223.820,286.757 223.737 C 285.169 223.479,284.467 222.374,285.695 222.065 C 286.061 221.974,286.361 221.792,286.361 221.661 C 286.361 221.531,286.780 221.424,287.292 221.424 C 287.804 221.424,288.224 221.530,288.224 221.659 C 288.224 221.788,288.453 221.954,288.733 222.027 C 289.014 222.101,289.283 222.443,289.332 222.790 C 289.410 223.340,289.585 223.430,290.722 223.502 L 292.023 223.585 291.845 222.438 C 291.475 220.053,288.458 218.724,285.096 219.466 M233.666 225.150 L 233.666 230.739 235.130 230.739 L 236.593 230.739 236.593 225.150 L 236.593 219.561 235.130 219.561 L 233.666 219.561 233.666 225.150 M254.957 225.150 L 254.957 230.739 256.287 230.739 L 257.618 230.739 257.618 225.150 L 257.618 219.561 256.287 219.561 L 254.957 219.561 254.957 225.150 M82.502 221.690 C 82.502 221.836,82.792 221.956,83.147 221.956 C 83.892 221.956,85.429 223.368,85.429 224.052 C 85.429 224.305,85.570 224.652,85.743 224.825 C 85.984 225.066,85.976 225.310,85.708 225.876 C 85.515 226.282,85.242 226.868,85.101 227.178 C 84.125 229.319,80.305 229.210,79.288 227.013 C 79.118 226.647,78.874 226.139,78.745 225.885 C 78.431 225.268,78.447 224.617,78.776 224.617 C 78.922 224.617,79.042 224.387,79.042 224.106 C 79.042 223.451,80.526 221.956,81.176 221.956 C 81.449 221.956,81.746 221.836,81.836 221.690 C 81.927 221.544,82.114 221.424,82.251 221.424 C 82.389 221.424,82.502 221.544,82.502 221.690 M98.052 221.660 C 98.133 221.791,98.524 221.979,98.921 222.078 C 99.627 222.256,100.273 222.925,100.657 223.877 C 100.834 224.316,100.612 224.351,97.663 224.351 C 95.202 224.351,94.478 224.271,94.478 224.000 C 94.478 223.405,95.956 221.956,96.564 221.956 C 96.880 221.956,97.139 221.836,97.139 221.690 C 97.139 221.360,97.853 221.337,98.052 221.660 M142.674 221.870 C 143.684 222.367,144.511 223.193,144.511 223.705 C 144.511 223.889,144.661 224.101,144.844 224.175 C 145.027 224.249,143.649 224.319,141.783 224.330 C 139.234 224.346,138.390 224.269,138.391 224.019 C 138.393 223.476,139.971 221.956,140.532 221.956 C 140.818 221.956,141.051 221.836,141.051 221.690 C 141.051 221.299,141.648 221.365,142.674 221.870 M209.448 221.657 C 209.448 221.785,209.801 221.960,210.232 222.046 C 211.127 222.225,212.109 222.975,212.109 223.479 C 212.109 223.666,212.229 223.819,212.375 223.819 C 212.817 223.819,212.674 226.114,212.178 226.978 C 210.315 230.225,205.722 228.842,205.722 225.035 C 205.722 223.722,207.111 221.956,208.143 221.956 C 208.404 221.956,208.692 221.836,208.782 221.690 C 208.985 221.362,209.448 221.339,209.448 221.657 M267.465 221.660 C 267.465 221.790,267.884 221.975,268.397 222.072 C 268.909 222.168,269.328 222.406,269.328 222.601 C 269.328 222.796,269.508 223.105,269.727 223.287 C 270.761 224.145,270.220 224.351,266.937 224.351 L 263.748 224.351 264.180 223.445 C 264.418 222.946,264.925 222.393,265.307 222.216 C 265.689 222.039,266.181 221.796,266.401 221.675 C 266.940 221.378,267.465 221.371,267.465 221.660 M225.845 222.488 C 226.152 222.708,226.489 223.157,226.593 223.486 C 226.697 223.816,226.894 224.085,227.031 224.085 C 227.365 224.085,227.349 225.607,227.013 225.815 C 226.866 225.906,226.747 226.178,226.747 226.421 C 226.747 228.714,221.978 228.858,220.884 226.599 C 219.350 223.429,222.965 220.433,225.845 222.488 M345.176 226.129 C 344.606 226.732,344.590 226.791,345.065 226.538 C 345.709 226.196,346.415 225.414,346.074 225.420 C 345.946 225.423,345.542 225.742,345.176 226.129 M329.822 234.589 C 329.411 234.950,329.204 235.250,329.361 235.254 C 329.519 235.259,329.929 234.963,330.273 234.597 C 331.076 233.742,330.791 233.737,329.822 234.589 M289.621 234.595 C 289.145 234.802,288.756 235.030,288.756 235.103 C 288.756 235.309,290.335 234.707,290.502 234.438 C 290.688 234.136,290.667 234.140,289.621 234.595 M278.776 238.989 C 278.039 239.176,278.029 239.194,278.643 239.219 C 279.009 239.234,279.488 239.131,279.707 238.989 C 280.160 238.696,279.926 238.696,278.776 238.989 M309.514 243.513 C 309.159 243.742,309.159 243.771,309.514 243.771 C 309.734 243.771,310.093 243.655,310.313 243.513 C 310.668 243.284,310.668 243.255,310.313 243.255 C 310.093 243.255,309.734 243.371,309.514 243.513 M258.034 246.422 C 257.588 246.915,257.592 246.930,258.126 246.790 C 258.432 246.710,258.683 246.547,258.683 246.429 C 258.683 246.310,258.892 246.159,259.148 246.092 C 259.524 245.994,259.506 245.964,259.057 245.939 C 258.750 245.922,258.290 246.139,258.034 246.422 M300.084 246.698 C 299.757 246.814,299.678 246.948,299.866 247.064 C 300.029 247.165,300.235 247.131,300.323 246.989 C 300.411 246.846,300.659 246.797,300.873 246.880 C 301.088 246.962,301.264 246.970,301.264 246.897 C 301.264 246.632,300.588 246.518,300.084 246.698 M239.521 251.630 C 239.242 251.966,239.290 252.029,239.821 252.025 C 240.290 252.022,240.357 251.961,240.081 251.786 C 239.783 251.597,239.809 251.526,240.214 251.422 C 240.597 251.324,240.614 251.285,240.285 251.262 C 240.047 251.245,239.703 251.411,239.521 251.630 M282.814 251.682 C 281.884 252.171,282.039 252.434,283.000 251.997 C 283.505 251.766,284.117 251.054,283.633 251.259 C 283.596 251.275,283.228 251.465,282.814 251.682 M279.035 252.838 C 278.923 253.020,279.124 253.053,279.618 252.934 C 280.638 252.689,280.735 252.562,279.900 252.562 C 279.519 252.562,279.129 252.686,279.035 252.838 M268.546 254.947 C 268.344 255.071,267.998 255.104,267.778 255.020 C 267.517 254.920,267.445 254.975,267.570 255.178 C 267.676 255.349,267.905 255.487,268.080 255.485 C 268.508 255.479,269.212 255.019,269.046 254.853 C 268.973 254.779,268.748 254.822,268.546 254.947 M261.884 256.011 C 261.669 256.147,261.573 256.339,261.672 256.438 C 261.770 256.536,262.045 256.423,262.282 256.186 C 262.750 255.718,262.513 255.613,261.884 256.011 M218.113 256.262 C 218.031 256.395,217.734 256.444,217.453 256.370 C 216.688 256.170,215.784 256.713,216.454 256.971 C 216.988 257.177,219.029 256.601,219.029 256.245 C 219.029 255.945,218.300 255.959,218.113 256.262 M250.962 257.754 C 250.603 258.187,250.885 258.277,251.459 257.913 C 251.678 257.774,251.716 257.620,251.556 257.521 C 251.410 257.431,251.143 257.536,250.962 257.754 M232.668 259.139 C 233.071 259.200,233.729 259.200,234.132 259.139 C 234.534 259.078,234.205 259.029,233.400 259.029 C 232.595 259.029,232.265 259.078,232.668 259.139 M218.845 259.414 C 220.866 259.459,224.100 259.459,226.031 259.414 C 227.961 259.368,226.307 259.331,222.355 259.331 C 218.403 259.332,216.824 259.369,218.845 259.414 " stroke="none" fill="#040404" fill-rule="evenodd"></path><path id="path2" d="M183.965 2.579 C 184.222 2.646,184.641 2.646,184.897 2.579 C 185.153 2.512,184.943 2.457,184.431 2.457 C 183.919 2.457,183.709 2.512,183.965 2.579 M193.408 2.947 C 193.562 3.537,194.012 3.642,194.012 3.089 C 194.012 2.885,193.846 2.655,193.643 2.577 C 193.384 2.477,193.314 2.588,193.408 2.947 M96.607 72.390 C 93.010 72.733,85.970 74.107,85.695 74.519 C 85.622 74.629,85.053 74.804,84.431 74.908 C 83.809 75.012,83.300 75.192,83.300 75.309 C 83.300 75.426,82.761 75.603,82.102 75.701 C 81.444 75.800,80.905 75.993,80.905 76.131 C 80.905 76.268,80.755 76.382,80.572 76.383 C 79.843 76.388,72.921 80.021,72.921 80.399 C 72.921 80.531,72.779 80.639,72.607 80.639 C 72.170 80.639,68.929 82.777,68.929 83.065 C 68.929 83.194,68.773 83.300,68.584 83.300 C 68.394 83.300,67.945 83.654,67.586 84.087 C 67.227 84.520,66.811 84.879,66.661 84.886 C 66.322 84.900,63.253 87.898,62.030 89.410 C 61.529 90.029,60.781 90.875,60.367 91.289 C 59.953 91.703,59.614 92.120,59.614 92.217 C 59.614 92.313,59.195 92.904,58.683 93.529 C 58.170 94.154,57.751 94.793,57.751 94.949 C 57.751 95.104,57.660 95.272,57.549 95.320 C 57.016 95.554,53.138 102.689,53.138 103.436 C 53.138 103.632,53.044 103.792,52.928 103.792 C 52.813 103.792,52.640 104.212,52.544 104.724 C 52.448 105.236,52.272 105.655,52.154 105.655 C 52.035 105.655,51.854 106.045,51.751 106.520 C 51.648 106.996,51.482 107.445,51.383 107.518 C 51.206 107.649,50.831 108.984,50.223 111.643 C 50.056 112.375,49.827 113.040,49.713 113.121 C 49.600 113.201,49.364 114.519,49.188 116.048 C 49.013 117.578,48.772 118.896,48.653 118.978 C 48.311 119.213,48.076 128.262,48.293 132.837 C 48.533 137.919,48.225 137.633,53.642 137.799 C 58.857 137.959,63.074 136.862,63.074 135.344 C 63.074 134.507,63.092 134.506,61.166 135.371 C 59.176 136.264,59.115 136.192,59.063 132.890 C 59.012 129.633,59.024 129.608,60.761 129.603 C 62.585 129.598,63.154 129.248,61.995 128.844 C 61.520 128.678,60.670 128.543,60.107 128.543 C 58.875 128.543,58.778 127.864,59.505 124.340 C 60.006 121.908,60.200 121.623,61.355 121.623 C 62.496 121.623,63.074 121.390,63.074 120.930 C 63.074 120.667,62.719 120.559,61.855 120.559 L 60.636 120.559 60.823 119.694 C 60.926 119.218,61.445 117.934,61.976 116.841 C 62.853 115.032,63.254 114.599,64.538 114.070 C 64.684 114.010,64.539 113.765,64.216 113.527 L 63.629 113.093 64.267 111.893 C 65.218 110.104,65.734 108.055,65.747 106.014 C 65.761 103.850,66.118 102.743,67.453 100.732 C 68.000 99.909,69.164 97.718,70.040 95.864 C 73.491 88.563,78.079 85.857,87.558 85.533 C 94.190 85.306,96.212 84.840,101.796 82.251 C 103.114 81.640,104.431 81.031,104.724 80.899 C 109.085 78.920,114.977 79.906,119.894 83.438 C 123.928 86.336,140.199 103.637,142.869 107.868 C 143.406 108.719,144.176 109.886,144.579 110.463 L 145.313 111.510 150.434 111.506 C 156.277 111.502,156.502 111.443,155.864 110.098 C 155.621 109.586,155.422 108.976,155.422 108.742 C 155.422 108.508,155.322 108.317,155.199 108.317 C 155.076 108.317,154.828 107.658,154.647 106.853 C 154.467 106.048,154.209 105.389,154.073 105.389 C 153.937 105.389,153.826 105.098,153.826 104.743 C 153.826 104.387,153.646 103.917,153.426 103.697 C 153.207 103.478,153.027 103.164,153.027 102.999 C 153.027 102.683,151.944 100.560,151.666 100.333 C 151.576 100.260,151.418 99.930,151.315 99.601 C 151.213 99.271,151.010 99.002,150.865 99.002 C 150.719 99.002,150.658 98.910,150.728 98.797 C 150.797 98.684,150.329 97.815,149.686 96.867 C 149.043 95.919,148.514 95.037,148.510 94.907 C 148.506 94.778,148.204 94.394,147.838 94.055 C 147.472 93.716,147.172 93.343,147.172 93.226 C 147.171 92.347,141.334 86.385,137.591 83.440 C 136.043 82.221,136.067 82.239,134.664 81.305 C 134.005 80.866,133.405 80.426,133.331 80.328 C 133.256 80.229,132.867 80.066,132.466 79.966 C 132.065 79.865,131.737 79.688,131.737 79.573 C 131.737 79.330,127.483 77.179,127.003 77.179 C 126.825 77.179,126.680 77.073,126.680 76.942 C 126.680 76.812,126.261 76.627,125.749 76.531 C 125.236 76.435,124.817 76.253,124.817 76.126 C 124.817 75.999,124.338 75.814,123.752 75.715 C 123.167 75.616,122.688 75.441,122.688 75.327 C 122.688 75.212,122.183 75.037,121.565 74.938 C 120.947 74.840,120.378 74.665,120.301 74.551 C 120.223 74.436,119.142 74.131,117.898 73.872 C 116.653 73.613,115.156 73.299,114.571 73.173 C 113.985 73.047,113.007 72.939,112.397 72.932 C 111.788 72.926,111.247 72.795,111.195 72.641 C 111.076 72.284,99.759 72.089,96.607 72.390 M176.979 128.277 L 176.979 182.568 184.165 182.568 L 191.351 182.568 191.351 128.277 L 191.351 73.985 184.165 73.985 L 176.979 73.985 176.979 128.277 M49.333 141.176 C 49.431 142.017,49.618 142.901,49.746 143.142 C 49.875 143.383,50.066 144.148,50.170 144.844 C 50.275 145.539,50.466 146.108,50.596 146.108 C 50.726 146.108,50.832 146.437,50.833 146.840 C 50.834 147.242,51.009 147.906,51.223 148.315 C 51.436 148.723,51.688 149.472,51.783 149.978 C 51.878 150.484,52.049 150.898,52.162 150.898 C 52.276 150.898,52.448 151.317,52.544 151.830 C 52.640 152.342,52.817 152.761,52.938 152.761 C 53.059 152.761,53.309 153.300,53.493 153.959 C 53.677 154.617,53.903 155.159,53.993 155.162 C 54.084 155.165,54.458 155.821,54.824 156.620 C 55.190 157.419,55.579 158.075,55.689 158.078 C 55.798 158.081,55.888 158.239,55.888 158.429 C 55.888 158.619,56.070 159.008,56.293 159.294 C 56.516 159.580,57.336 160.787,58.115 161.976 C 59.695 164.389,59.769 164.483,61.544 166.362 C 62.239 167.098,62.808 167.759,62.808 167.830 C 62.808 168.006,65.700 170.811,66.827 171.727 C 68.427 173.030,69.908 174.175,70.524 174.584 C 70.853 174.804,71.258 175.110,71.423 175.265 C 71.588 175.420,72.083 175.728,72.522 175.948 C 73.642 176.511,74.627 177.085,74.784 177.267 C 75.044 177.568,80.517 180.173,80.907 180.181 C 81.125 180.186,81.525 180.357,81.794 180.561 C 82.064 180.766,82.753 181.012,83.325 181.109 C 83.897 181.205,84.365 181.380,84.365 181.497 C 84.365 181.614,84.933 181.794,85.629 181.898 C 86.324 182.001,87.013 182.180,87.159 182.295 C 87.500 182.563,90.029 183.068,92.748 183.410 C 93.919 183.558,95.057 183.770,95.276 183.881 C 96.383 184.444,109.800 184.450,110.579 183.888 C 110.725 183.782,111.893 183.611,113.174 183.507 C 114.454 183.404,115.502 183.227,115.502 183.114 C 115.502 183.002,116.244 182.833,117.151 182.738 C 118.057 182.643,118.866 182.461,118.947 182.333 C 119.029 182.206,119.604 182.016,120.226 181.912 C 120.848 181.808,121.357 181.629,121.357 181.514 C 121.357 181.399,121.852 181.227,122.456 181.130 C 123.060 181.033,123.805 180.779,124.112 180.564 C 124.418 180.349,124.852 180.169,125.076 180.164 C 125.299 180.159,125.961 179.924,126.547 179.641 C 127.132 179.358,127.751 179.122,127.922 179.117 C 128.093 179.113,128.272 179.019,128.321 178.909 C 128.434 178.655,130.763 177.512,131.167 177.512 C 131.334 177.512,131.470 177.406,131.470 177.277 C 131.470 177.147,131.680 176.965,131.936 176.871 C 132.192 176.777,132.881 176.406,133.466 176.047 C 134.052 175.687,134.800 175.252,135.130 175.079 C 135.459 174.906,135.729 174.664,135.729 174.541 C 135.729 174.419,135.902 174.318,136.115 174.318 C 136.327 174.318,136.596 174.160,136.713 173.967 C 136.830 173.774,137.477 173.242,138.149 172.785 C 138.822 172.328,140.001 171.348,140.769 170.607 C 141.537 169.867,142.274 169.261,142.407 169.261 C 142.540 169.261,142.648 169.071,142.648 168.837 C 142.648 168.604,142.888 168.351,143.180 168.274 C 143.473 168.197,143.713 168.052,143.713 167.952 C 143.713 167.851,144.431 167.023,145.309 166.111 C 146.188 165.200,146.906 164.334,146.906 164.188 C 146.906 164.042,147.081 163.855,147.295 163.773 C 147.509 163.691,147.763 163.376,147.859 163.074 C 147.955 162.772,148.318 162.261,148.667 161.937 C 149.016 161.614,149.301 161.253,149.301 161.135 C 149.301 161.017,149.469 160.731,149.674 160.500 C 149.879 160.269,150.376 159.481,150.779 158.749 C 151.182 158.017,151.583 157.359,151.670 157.285 C 151.758 157.212,152.129 156.554,152.495 155.822 C 152.861 155.090,153.250 154.451,153.360 154.402 C 153.470 154.354,153.560 154.172,153.560 153.999 C 153.560 153.826,153.791 153.254,154.073 152.727 C 154.355 152.200,154.668 151.333,154.768 150.801 C 154.868 150.269,155.045 149.834,155.163 149.834 C 155.280 149.834,155.457 149.355,155.556 148.769 C 155.654 148.184,155.837 147.705,155.962 147.705 C 156.086 147.705,156.269 147.164,156.368 146.504 C 156.467 145.843,156.654 145.237,156.784 145.157 C 156.913 145.077,157.019 144.779,157.019 144.495 C 157.019 143.996,156.765 143.979,149.434 143.979 C 144.292 143.979,141.850 144.069,141.850 144.259 C 141.850 144.846,139.019 150.788,138.456 151.383 C 138.273 151.576,138.124 151.893,138.124 152.086 C 138.124 152.280,137.944 152.507,137.725 152.591 C 137.505 152.676,137.325 152.928,137.325 153.152 C 137.325 153.376,137.202 153.560,137.051 153.560 C 136.900 153.560,136.697 153.769,136.600 154.025 C 136.503 154.281,136.297 154.627,136.143 154.792 C 135.988 154.958,135.486 155.557,135.027 156.123 C 133.769 157.673,131.281 160.213,131.020 160.213 C 130.894 160.213,130.599 160.436,130.366 160.708 C 130.133 160.981,129.268 161.651,128.444 162.198 C 127.620 162.745,126.946 163.300,126.946 163.432 C 126.946 163.565,126.775 163.673,126.566 163.673 C 126.357 163.673,126.027 163.822,125.834 164.005 C 125.302 164.509,120.980 166.600,120.472 166.600 C 120.227 166.600,120.027 166.718,120.027 166.863 C 120.027 167.008,119.548 167.203,118.962 167.296 C 118.377 167.390,117.898 167.560,117.898 167.675 C 117.898 167.790,117.389 167.968,116.766 168.071 C 116.144 168.173,115.508 168.360,115.351 168.486 C 114.999 168.768,111.116 169.473,107.917 169.834 C 105.442 170.114,97.061 169.943,96.516 169.602 C 96.346 169.496,96.028 169.384,95.808 169.353 C 92.932 168.944,91.121 168.582,90.989 168.389 C 90.700 167.969,88.003 168.065,86.361 168.553 C 76.144 171.594,66.306 163.821,61.896 149.224 C 60.289 143.907,60.321 143.391,62.272 143.079 C 63.457 142.889,64.671 142.395,64.671 142.102 C 64.671 141.686,63.929 141.663,62.271 142.026 C 58.621 142.825,54.221 142.267,51.057 140.604 C 50.274 140.193,49.526 139.810,49.394 139.753 C 49.255 139.693,49.229 140.294,49.333 141.176 M361.221 188.620 C 362.068 188.673,363.385 188.673,364.148 188.619 C 364.911 188.565,364.218 188.522,362.608 188.523 C 360.998 188.523,360.374 188.567,361.221 188.620 " stroke="none" fill="#e16919" fill-rule="evenodd"></path><path id="path3" d="M333.999 121.703 L 334.132 168.862 334.199 121.904 C 334.236 96.076,334.176 74.855,334.066 74.745 C 333.956 74.634,333.925 95.766,333.999 121.703 M320.024 128.277 C 320.024 157.771,320.055 169.837,320.093 155.090 C 320.131 140.343,320.131 116.211,320.093 101.464 C 320.055 86.717,320.024 98.782,320.024 128.277 M106.720 80.271 C 105.915 80.482,105.017 80.763,104.724 80.897 C 104.431 81.031,103.114 81.640,101.796 82.251 C 96.212 84.840,94.190 85.306,87.558 85.533 C 78.079 85.857,73.491 88.563,70.040 95.864 C 69.164 97.718,68.000 99.909,67.453 100.732 C 66.118 102.743,65.761 103.850,65.747 106.014 C 65.734 108.051,65.218 110.104,64.272 111.882 C 63.626 113.098,63.688 113.378,64.671 113.698 C 64.932 113.783,64.704 114.002,64.008 114.333 C 62.902 114.860,61.277 117.595,60.823 119.694 L 60.636 120.559 61.855 120.559 C 62.719 120.559,63.074 120.667,63.074 120.930 C 63.074 121.390,62.496 121.623,61.355 121.623 C 60.200 121.623,60.006 121.908,59.505 124.340 C 58.784 127.838,58.879 128.541,60.080 128.555 C 60.629 128.561,61.667 128.722,62.388 128.912 L 63.698 129.257 62.654 129.429 C 62.080 129.524,61.108 129.603,60.495 129.605 C 59.051 129.608,59.013 129.697,59.063 132.890 C 59.115 136.192,59.176 136.264,61.166 135.371 C 62.032 134.982,62.864 134.664,63.013 134.664 C 63.381 134.664,64.679 133.547,66.688 131.502 C 68.980 129.170,70.792 128.098,70.792 129.075 C 70.792 129.222,70.575 129.341,70.310 129.341 C 69.809 129.341,68.663 130.255,68.663 130.654 C 68.663 131.077,64.292 135.275,63.996 135.135 C 63.913 135.096,63.547 135.349,63.184 135.698 C 61.398 137.417,53.939 138.518,50.299 137.600 C 48.426 137.127,48.368 137.136,48.256 137.925 C 48.136 138.769,48.564 139.721,49.064 139.721 C 49.252 139.721,50.056 140.070,50.851 140.497 C 53.967 142.172,57.582 142.772,61.078 142.193 C 62.395 141.974,63.928 141.764,64.485 141.724 C 65.041 141.685,65.907 141.431,66.410 141.161 C 67.127 140.774,67.392 140.739,67.647 140.993 C 67.901 141.248,67.878 141.317,67.536 141.317 C 67.296 141.317,66.763 141.446,66.351 141.602 C 65.939 141.759,65.602 141.861,65.602 141.829 C 65.602 141.797,65.104 142.025,64.495 142.336 C 63.887 142.646,62.901 142.978,62.305 143.073 C 60.317 143.391,60.284 143.890,61.896 149.224 C 66.280 163.736,76.073 171.537,86.228 168.606 C 87.033 168.373,88.170 168.107,88.756 168.014 C 89.341 167.921,89.940 167.691,90.086 167.503 C 90.233 167.315,90.527 167.125,90.741 167.080 C 91.266 166.971,93.566 164.589,94.275 163.420 C 94.591 162.900,94.930 162.415,95.029 162.342 C 95.188 162.224,95.606 160.801,95.692 160.080 C 95.724 159.816,95.999 158.674,96.261 157.718 C 96.362 157.350,96.303 157.276,96.036 157.436 C 95.751 157.608,95.740 157.573,95.983 157.270 C 96.152 157.059,96.290 156.419,96.289 155.849 C 96.288 155.093,96.216 154.913,96.025 155.184 C 95.830 155.459,95.798 155.395,95.899 154.935 C 95.974 154.594,95.874 153.857,95.676 153.296 C 95.479 152.736,95.385 152.209,95.468 152.126 C 95.551 152.043,95.422 151.900,95.183 151.808 C 94.943 151.716,94.813 151.534,94.894 151.403 C 94.975 151.272,94.915 151.164,94.760 151.164 C 94.605 151.164,94.478 150.978,94.478 150.749 C 94.478 150.521,94.367 150.403,94.231 150.487 C 94.095 150.571,93.907 150.399,93.814 150.104 C 93.720 149.809,93.554 149.568,93.445 149.568 C 93.337 149.568,92.963 149.302,92.615 148.978 C 91.574 148.008,88.987 147.965,87.878 148.898 C 86.715 149.876,86.688 151.116,87.814 151.781 C 88.576 152.232,88.552 153.560,87.782 153.560 C 87.322 153.560,87.544 155.382,88.024 155.545 C 90.504 156.387,88.505 159.925,85.304 160.359 C 83.749 160.570,80.575 160.265,80.785 159.925 C 80.868 159.791,80.700 159.681,80.410 159.681 C 79.837 159.681,75.806 155.840,76.025 155.502 C 76.148 155.311,75.753 154.358,75.551 154.358 C 75.422 154.358,75.316 154.246,75.316 154.109 C 75.316 153.972,75.177 153.523,75.007 153.111 C 74.837 152.699,74.721 152.260,74.750 152.134 C 74.779 152.009,74.674 151.751,74.516 151.562 C 74.358 151.372,74.161 150.636,74.076 149.926 C 73.992 149.217,73.801 148.483,73.650 148.297 C 73.497 148.106,73.320 145.763,73.246 142.942 C 73.122 138.214,73.086 137.934,72.618 138.056 C 72.346 138.127,72.122 138.299,72.122 138.437 C 72.122 138.575,72.015 138.621,71.884 138.540 C 71.753 138.459,71.585 138.552,71.510 138.746 C 71.399 139.037,70.570 139.512,68.064 140.720 C 67.954 140.773,67.864 140.692,67.864 140.540 C 67.864 140.388,68.164 140.188,68.530 140.096 C 68.896 140.004,69.195 139.812,69.195 139.670 C 69.195 139.527,69.342 139.459,69.522 139.519 C 69.883 139.639,70.001 139.556,71.793 137.924 C 72.476 137.302,73.248 136.725,73.510 136.642 C 73.771 136.559,73.985 136.320,73.985 136.110 C 73.985 135.900,74.157 135.729,74.367 135.729 C 74.576 135.729,74.822 135.495,74.913 135.210 C 75.003 134.925,75.432 134.312,75.865 133.848 C 76.919 132.720,77.328 130.219,76.361 130.817 C 76.226 130.901,76.114 130.843,76.114 130.688 C 76.114 130.533,75.941 130.406,75.728 130.406 C 75.516 130.406,75.247 130.250,75.130 130.059 C 74.847 129.599,72.702 128.809,71.737 128.809 C 71.314 128.809,71.047 128.731,71.143 128.635 C 71.398 128.380,73.719 128.344,73.719 128.595 C 73.719 128.713,73.809 128.785,73.919 128.756 C 74.193 128.684,75.345 129.088,75.695 129.379 C 76.988 130.455,77.309 130.678,77.793 130.831 C 78.378 131.017,79.308 130.166,79.308 129.445 C 79.308 129.242,79.417 129.075,79.549 129.075 C 79.682 129.075,79.728 128.836,79.651 128.543 C 79.575 128.250,79.635 128.011,79.784 128.011 C 79.934 128.011,80.139 127.412,80.240 126.680 C 80.358 125.817,80.551 125.349,80.788 125.349 C 80.990 125.349,81.105 125.499,81.046 125.682 C 80.986 125.865,80.874 126.518,80.797 127.134 C 80.720 127.750,80.550 128.469,80.420 128.731 C 79.101 131.373,78.937 135.729,80.155 135.729 C 80.544 135.729,82.648 134.045,83.868 132.757 C 84.400 132.196,84.946 131.737,85.082 131.737 C 85.218 131.737,85.618 131.467,85.972 131.138 C 86.325 130.808,86.707 130.524,86.820 130.506 C 86.933 130.487,87.153 130.457,87.308 130.439 C 87.463 130.421,87.515 130.285,87.423 130.137 C 87.331 129.987,87.619 129.795,88.073 129.704 C 88.522 129.614,88.889 129.450,88.889 129.338 C 88.889 129.227,89.425 129.055,90.080 128.957 C 90.736 128.859,91.346 128.658,91.436 128.512 C 91.529 128.362,91.954 128.323,92.407 128.423 C 92.851 128.520,93.150 128.497,93.073 128.372 C 92.995 128.246,93.452 128.113,94.088 128.076 C 94.723 128.039,95.318 128.130,95.410 128.278 C 95.790 128.893,96.278 127.744,96.460 125.806 C 96.565 124.678,96.753 123.693,96.877 123.617 C 97.001 123.541,97.186 122.791,97.290 121.952 C 97.393 121.113,97.577 120.361,97.698 120.283 C 97.820 120.204,98.002 119.425,98.102 118.553 C 98.202 117.680,98.408 116.885,98.559 116.787 C 98.740 116.669,98.703 116.445,98.453 116.137 C 98.242 115.878,98.210 115.750,98.381 115.853 C 98.611 115.990,98.686 115.358,98.666 113.442 C 98.629 109.787,98.981 104.328,99.292 103.748 C 99.435 103.480,99.474 103.260,99.378 103.260 C 99.282 103.260,99.327 103.110,99.478 102.927 C 99.629 102.745,99.837 102.146,99.939 101.597 C 100.042 101.048,100.203 100.599,100.297 100.599 C 100.392 100.599,100.632 100.230,100.831 99.780 C 101.201 98.945,101.803 98.521,102.140 98.858 C 102.243 98.961,102.142 99.185,101.914 99.356 C 101.353 99.778,100.042 102.473,100.241 102.795 C 100.329 102.937,100.267 103.137,100.102 103.238 C 99.938 103.339,99.735 104.314,99.651 105.404 C 99.568 106.494,99.437 107.745,99.361 108.184 C 99.130 109.519,99.133 112.409,99.365 112.974 C 99.543 113.405,99.527 113.430,99.284 113.107 C 99.049 112.795,98.996 113.000,99.043 114.039 C 99.121 115.744,98.740 119.812,98.470 120.160 C 98.356 120.306,98.176 121.084,98.071 121.890 C 97.965 122.695,97.761 123.498,97.619 123.674 C 97.476 123.851,97.437 124.120,97.531 124.273 C 97.625 124.426,97.576 124.551,97.421 124.551 C 97.266 124.551,97.139 125.030,97.139 125.615 C 97.139 126.201,97.049 126.680,96.939 126.680 C 96.674 126.680,96.735 130.766,97.008 131.207 C 97.155 131.445,97.117 131.488,96.887 131.346 C 96.627 131.186,96.618 131.261,96.846 131.687 C 97.007 131.988,97.139 132.601,97.139 133.050 C 97.139 133.498,97.252 133.866,97.390 133.866 C 97.528 133.866,97.595 134.105,97.538 134.398 C 97.482 134.691,97.535 134.930,97.657 134.930 C 97.779 134.930,97.957 135.349,98.053 135.862 C 98.149 136.374,98.342 136.793,98.482 136.793 C 98.622 136.793,98.736 136.957,98.736 137.156 C 98.736 137.356,98.975 137.824,99.268 138.196 C 99.561 138.569,99.800 139.084,99.800 139.341 C 99.800 139.599,99.884 139.726,99.986 139.623 C 100.089 139.521,100.538 140.016,100.984 140.723 C 102.226 142.690,104.811 145.001,105.378 144.651 C 105.530 144.557,105.655 144.609,105.655 144.766 C 105.655 144.939,106.181 145.034,106.976 145.006 C 107.702 144.981,108.234 144.859,108.158 144.735 C 108.082 144.612,108.116 144.502,108.234 144.491 C 109.019 144.416,109.490 144.234,109.683 143.930 C 109.805 143.737,109.907 143.685,109.909 143.815 C 109.912 143.945,110.179 143.705,110.503 143.283 C 110.827 142.860,111.217 142.427,111.368 142.319 C 111.519 142.212,111.541 142.122,111.416 142.120 C 111.079 142.114,113.674 139.721,114.017 139.721 C 114.178 139.721,114.456 139.487,114.634 139.201 C 114.813 138.915,115.437 138.538,116.020 138.363 C 116.604 138.188,117.021 137.946,116.946 137.826 C 116.872 137.706,117.145 137.525,117.554 137.425 C 117.963 137.325,118.357 137.172,118.430 137.085 C 118.693 136.771,119.762 136.261,120.156 136.261 C 120.378 136.261,120.559 136.155,120.559 136.026 C 120.559 135.896,120.768 135.724,121.025 135.643 C 121.281 135.562,121.790 135.322,122.156 135.109 C 122.522 134.897,123.270 134.503,123.819 134.234 C 124.368 133.965,124.817 133.662,124.817 133.560 C 124.817 133.459,125.184 133.295,125.633 133.196 C 126.082 133.098,126.514 132.849,126.593 132.643 C 126.672 132.437,126.904 132.269,127.108 132.269 C 127.312 132.269,127.478 132.129,127.478 131.958 C 127.478 131.788,127.554 131.724,127.647 131.816 C 127.739 131.909,128.042 131.696,128.319 131.344 C 128.596 130.992,129.059 130.628,129.348 130.537 C 129.637 130.445,129.874 130.242,129.874 130.086 C 129.874 129.713,131.127 128.555,131.321 128.748 C 131.403 128.830,131.470 128.698,131.470 128.454 C 131.470 128.210,131.592 128.011,131.740 128.011 C 132.048 128.011,134.761 125.352,134.461 125.345 C 134.353 125.342,134.684 125.078,135.196 124.757 C 135.709 124.436,136.224 124.018,136.341 123.830 C 136.458 123.641,136.657 123.486,136.784 123.486 C 136.991 123.486,137.548 123.068,138.906 121.890 C 139.337 121.516,139.619 121.337,141.104 120.492 C 141.426 120.309,141.928 119.950,142.219 119.694 C 142.510 119.438,142.905 119.228,143.097 119.228 C 143.289 119.228,143.690 118.984,143.988 118.686 C 144.287 118.388,144.633 118.208,144.759 118.286 C 144.885 118.363,145.063 118.231,145.155 117.991 C 145.247 117.751,145.396 117.629,145.486 117.719 C 145.576 117.810,145.993 117.681,146.411 117.434 C 147.292 116.913,147.434 115.757,146.790 114.345 C 146.579 113.884,146.221 113.087,145.993 112.575 C 145.764 112.063,145.188 111.146,144.712 110.538 C 144.235 109.931,143.406 108.733,142.869 107.877 C 140.231 103.672,123.945 86.348,119.894 83.438 C 115.640 80.382,110.773 79.212,106.720 80.271 M248.966 134.664 C 248.966 160.645,248.997 171.274,249.035 158.283 C 249.073 145.293,249.073 124.035,249.035 111.045 C 248.997 98.054,248.966 108.683,248.966 134.664 M102.859 97.939 C 102.594 98.233,102.306 98.403,102.220 98.317 C 102.134 98.230,102.296 97.990,102.580 97.783 C 103.309 97.249,103.425 97.314,102.859 97.939 M82.169 102.347 C 83.174 102.557,82.836 102.994,81.668 102.994 C 80.283 102.994,78.718 103.445,77.179 104.289 C 76.487 104.668,76.121 104.776,76.312 104.544 C 76.493 104.323,76.570 104.070,76.481 103.982 C 76.393 103.893,76.693 103.595,77.148 103.318 C 77.603 103.041,77.886 102.725,77.777 102.616 C 77.668 102.507,77.698 102.446,77.844 102.482 C 77.991 102.517,78.290 102.477,78.510 102.392 C 79.475 102.019,80.538 102.006,82.169 102.347 M252.910 182.501 C 254.784 182.547,257.779 182.547,259.563 182.501 C 261.348 182.455,259.814 182.417,256.154 182.417 C 252.495 182.418,251.035 182.455,252.910 182.501 M336.860 182.502 C 345.825 182.540,360.496 182.540,369.461 182.502 C 378.426 182.463,371.091 182.431,353.160 182.431 C 335.230 182.431,327.894 182.463,336.860 182.502 M358.984 188.895 C 358.966 189.002,358.966 189.178,358.984 189.288 C 359.001 189.398,358.854 189.488,358.657 189.488 C 358.210 189.488,357.357 190.402,357.588 190.633 C 357.682 190.727,357.426 190.930,357.019 191.084 C 356.613 191.239,356.356 191.441,356.449 191.534 C 356.541 191.627,356.362 191.833,356.050 191.992 C 355.738 192.152,355.504 192.378,355.531 192.496 C 355.557 192.613,355.105 193.092,354.527 193.560 C 353.948 194.028,353.346 194.681,353.190 195.010 C 353.034 195.339,352.727 195.609,352.509 195.609 C 352.265 195.609,352.172 195.763,352.267 196.011 C 352.370 196.281,352.298 196.366,352.048 196.270 C 351.829 196.186,351.425 196.464,351.073 196.940 C 350.743 197.387,350.358 197.682,350.219 197.596 C 350.080 197.511,349.967 197.574,349.967 197.738 C 349.967 197.902,349.847 197.961,349.701 197.871 C 349.554 197.780,349.434 197.834,349.434 197.991 C 349.434 198.147,349.075 198.651,348.636 199.110 C 348.197 199.570,347.838 200.062,347.838 200.204 C 347.838 200.345,347.593 200.397,347.294 200.319 C 346.864 200.207,346.783 200.277,346.904 200.658 C 347.019 201.022,346.851 201.211,346.215 201.433 C 345.753 201.594,345.096 202.026,344.756 202.393 C 344.415 202.760,343.973 203.061,343.772 203.061 C 343.395 203.061,342.173 204.209,342.335 204.411 C 342.385 204.473,342.207 204.734,341.938 204.990 C 341.670 205.246,341.450 205.329,341.450 205.174 C 341.450 205.019,341.329 204.967,341.180 205.059 C 341.031 205.151,340.978 205.337,341.061 205.471 C 341.144 205.606,341.046 205.652,340.843 205.574 C 340.640 205.496,340.184 205.686,339.831 205.997 C 339.477 206.307,339.356 206.473,339.562 206.366 C 339.808 206.238,339.871 206.277,339.746 206.479 C 339.642 206.648,339.294 206.795,338.973 206.805 C 338.411 206.823,338.409 206.832,338.922 207.053 C 339.394 207.255,339.371 207.283,338.723 207.300 C 338.258 207.312,337.991 207.464,337.991 207.718 C 337.991 207.937,337.876 208.117,337.735 208.117 C 337.594 208.117,337.235 208.379,336.937 208.700 C 336.637 209.021,336.394 209.133,336.394 208.950 C 336.394 208.767,336.272 208.693,336.123 208.785 C 335.975 208.877,335.922 209.064,336.006 209.201 C 336.091 209.337,335.850 209.567,335.472 209.710 C 335.093 209.854,334.713 210.156,334.627 210.380 C 334.541 210.604,334.334 210.762,334.168 210.731 C 333.685 210.640,332.668 211.056,332.668 211.344 C 332.668 211.490,332.530 211.523,332.361 211.418 C 332.170 211.301,332.126 211.345,332.243 211.536 C 332.348 211.705,332.351 211.976,332.251 212.138 C 332.124 212.343,332.000 212.323,331.840 212.071 C 331.662 211.790,331.611 211.813,331.608 212.176 C 331.605 212.432,331.429 212.641,331.216 212.641 C 331.003 212.641,330.537 212.934,330.180 213.291 C 329.823 213.648,329.458 213.867,329.368 213.777 C 329.279 213.688,328.928 213.876,328.589 214.195 C 328.249 214.514,327.880 214.684,327.769 214.573 C 327.658 214.462,327.607 214.548,327.656 214.764 C 327.710 215.003,327.510 215.193,327.148 215.248 C 326.820 215.298,326.401 215.553,326.217 215.814 C 325.860 216.319,324.152 217.301,324.152 217.001 C 324.152 216.902,323.852 217.145,323.485 217.541 C 323.110 217.946,322.685 218.178,322.513 218.071 C 322.323 217.954,322.279 217.999,322.396 218.189 C 322.517 218.384,322.381 218.496,322.023 218.496 C 321.660 218.496,321.528 218.607,321.651 218.808 C 321.780 219.016,321.700 219.064,321.408 218.952 C 321.130 218.845,320.826 218.994,320.566 219.365 C 320.343 219.684,320.156 219.829,320.151 219.687 C 320.147 219.544,319.997 219.615,319.819 219.844 C 319.483 220.273,318.580 220.742,318.230 220.668 C 318.120 220.644,318.031 220.765,318.031 220.936 C 318.031 221.107,317.956 221.172,317.865 221.080 C 317.773 220.989,317.324 221.186,316.867 221.517 C 316.409 221.848,315.585 222.349,315.037 222.631 C 314.488 222.912,314.039 223.247,314.039 223.376 C 314.039 223.505,313.859 223.541,313.639 223.457 C 313.420 223.372,313.240 223.427,313.240 223.577 C 313.240 223.727,313.136 223.786,313.010 223.708 C 312.883 223.630,312.565 223.802,312.303 224.091 C 312.041 224.381,311.718 224.617,311.584 224.617 C 311.451 224.617,310.928 224.933,310.423 225.318 C 309.785 225.805,309.555 225.886,309.671 225.585 C 309.768 225.331,309.704 225.150,309.518 225.150 C 309.342 225.150,309.136 225.389,309.059 225.682 C 308.983 225.975,308.746 226.214,308.533 226.214 C 308.320 226.214,307.635 226.513,307.011 226.879 C 306.387 227.245,305.797 227.464,305.699 227.367 C 305.602 227.270,305.522 227.330,305.522 227.501 C 305.522 227.671,305.343 227.811,305.123 227.811 C 304.904 227.811,304.724 227.945,304.724 228.110 C 304.724 228.304,304.567 228.281,304.275 228.043 C 303.882 227.723,303.848 227.736,304.000 228.144 C 304.105 228.423,304.045 228.622,303.851 228.640 C 302.870 228.733,302.029 229.114,301.605 229.657 C 301.427 229.886,301.277 229.970,301.273 229.843 C 301.268 229.716,300.993 229.790,300.661 230.008 C 300.330 230.225,299.670 230.488,299.195 230.592 C 298.721 230.697,298.389 230.874,298.459 230.987 C 298.611 231.234,297.279 231.919,296.806 231.837 C 296.623 231.806,296.474 231.918,296.474 232.086 C 296.474 232.254,296.312 232.330,296.114 232.254 C 295.916 232.178,295.558 232.345,295.318 232.625 C 295.078 232.905,294.648 233.134,294.363 233.134 C 294.077 233.134,293.763 233.264,293.665 233.423 C 293.567 233.582,293.260 233.653,292.984 233.581 C 292.708 233.509,292.482 233.565,292.482 233.707 C 292.482 233.848,292.363 233.890,292.219 233.801 C 292.074 233.712,291.626 233.944,291.223 234.318 C 290.821 234.691,290.340 234.997,290.156 234.997 C 289.971 234.997,289.820 235.091,289.820 235.206 C 289.820 235.321,289.611 235.439,289.355 235.468 C 289.098 235.497,288.649 235.573,288.357 235.638 C 288.064 235.702,287.675 235.764,287.492 235.775 C 287.309 235.786,287.159 235.989,287.159 236.225 C 287.159 236.525,286.997 236.613,286.627 236.516 C 286.334 236.440,286.094 236.476,286.094 236.598 C 286.094 236.906,284.301 237.467,283.971 237.262 C 283.821 237.170,283.697 237.311,283.695 237.576 C 283.692 237.984,283.652 237.996,283.433 237.658 C 283.246 237.368,283.174 237.354,283.171 237.607 C 283.169 237.799,283.056 237.887,282.919 237.802 C 282.783 237.718,282.598 237.768,282.509 237.913 C 282.260 238.316,280.136 239.211,278.931 239.421 C 278.723 239.457,278.219 239.734,277.810 240.036 C 276.902 240.708,276.477 240.740,276.691 240.120 C 276.827 239.725,276.791 239.732,276.453 240.165 C 276.234 240.446,275.889 240.709,275.686 240.749 C 274.501 240.979,274.090 241.124,273.473 241.528 C 273.096 241.775,272.788 241.880,272.788 241.760 C 272.788 241.641,272.653 241.678,272.489 241.842 C 272.325 242.006,272.026 242.077,271.824 242.000 C 271.622 241.923,271.457 241.962,271.456 242.087 C 271.456 242.213,271.077 242.329,270.614 242.346 C 270.146 242.363,269.620 242.585,269.429 242.846 C 269.207 243.150,268.885 243.263,268.515 243.166 C 268.202 243.084,268.011 243.083,268.091 243.163 C 268.416 243.488,267.445 244.045,266.553 244.045 C 266.030 244.045,265.602 244.172,265.602 244.327 C 265.602 244.482,265.469 244.527,265.306 244.426 C 265.144 244.325,264.924 244.382,264.819 244.553 C 264.714 244.723,264.069 244.888,263.387 244.920 C 262.704 244.951,262.145 245.106,262.144 245.265 C 262.142 245.538,261.810 245.632,260.745 245.662 C 260.489 245.669,260.279 245.795,260.279 245.940 C 260.279 246.086,260.168 246.137,260.032 246.053 C 259.895 245.968,259.704 246.029,259.606 246.188 C 259.507 246.347,259.253 246.410,259.041 246.329 C 258.829 246.247,258.722 246.289,258.804 246.422 C 258.886 246.555,258.563 246.747,258.086 246.849 C 257.609 246.951,257.046 247.170,256.835 247.336 C 256.543 247.566,256.498 247.561,256.645 247.315 C 256.784 247.085,256.578 247.101,255.932 247.371 C 255.433 247.579,254.949 247.675,254.857 247.583 C 254.766 247.491,254.691 247.549,254.691 247.711 C 254.691 247.874,254.448 247.960,254.151 247.903 C 253.855 247.846,253.674 247.899,253.749 248.021 C 253.824 248.143,253.588 248.299,253.224 248.369 C 252.860 248.439,252.562 248.393,252.562 248.266 C 252.562 248.140,252.435 248.037,252.280 248.037 C 252.125 248.037,252.075 248.162,252.169 248.314 C 252.281 248.495,252.088 248.528,251.609 248.407 C 250.999 248.254,250.905 248.297,251.046 248.663 C 251.241 249.172,250.944 249.241,250.494 248.791 C 250.258 248.554,250.143 248.586,250.014 248.923 C 249.921 249.166,249.724 249.290,249.576 249.199 C 249.429 249.108,249.230 249.161,249.134 249.316 C 249.037 249.472,248.636 249.643,248.242 249.695 C 247.848 249.748,247.441 249.876,247.338 249.979 C 247.235 250.082,246.871 250.166,246.529 250.166 C 246.188 250.166,245.908 250.280,245.908 250.420 C 245.908 250.559,245.550 250.628,245.113 250.573 C 244.676 250.517,244.247 250.588,244.159 250.729 C 244.072 250.871,243.771 250.914,243.491 250.825 C 243.210 250.736,242.981 250.787,242.981 250.938 C 242.981 251.090,242.795 251.143,242.569 251.056 C 242.331 250.965,241.997 251.109,241.779 251.397 C 241.560 251.686,241.397 251.756,241.392 251.564 C 241.380 251.064,240.852 251.163,240.852 251.665 C 240.852 252.018,240.652 252.073,239.787 251.957 C 239.009 251.852,238.723 251.909,238.723 252.166 C 238.723 252.404,238.158 252.580,236.993 252.704 C 236.041 252.806,235.263 252.992,235.263 253.116 C 235.263 253.241,235.082 253.274,234.860 253.189 C 234.639 253.104,234.309 253.150,234.128 253.292 C 233.624 253.686,232.620 253.871,232.453 253.601 C 232.371 253.468,232.184 253.360,232.038 253.360 C 231.891 253.360,231.840 253.471,231.924 253.607 C 232.133 253.944,231.192 254.213,230.599 253.986 C 230.261 253.856,230.178 253.897,230.318 254.124 C 230.463 254.358,230.330 254.399,229.829 254.273 C 229.409 254.168,229.142 254.212,229.142 254.387 C 229.142 254.545,228.972 254.609,228.764 254.529 C 228.556 254.449,228.107 254.563,227.766 254.783 C 227.425 255.002,226.607 255.258,225.948 255.352 C 224.442 255.567,223.686 255.702,223.686 255.757 C 223.686 255.780,223.446 255.838,223.154 255.885 C 222.861 255.932,222.083 256.062,221.424 256.174 C 220.765 256.286,220.017 256.383,219.760 256.390 C 219.504 256.396,219.295 256.488,219.295 256.594 C 219.295 256.700,219.085 256.788,218.829 256.789 C 218.310 256.791,216.980 257.053,216.367 257.272 C 216.148 257.351,215.309 257.416,214.504 257.416 C 213.699 257.417,212.921 257.489,212.774 257.577 C 212.628 257.664,212.343 257.761,212.141 257.792 C 211.551 257.881,211.314 258.257,211.578 258.685 C 211.850 259.125,228.227 259.234,236.061 258.847 C 238.184 258.742,240.489 258.644,241.184 258.628 C 241.880 258.612,242.448 258.483,242.448 258.341 C 242.448 258.185,242.961 258.150,243.732 258.252 C 244.668 258.376,245.255 258.303,245.897 257.983 C 246.712 257.576,246.795 257.576,247.021 257.980 C 247.155 258.220,247.446 258.417,247.667 258.417 C 247.888 258.417,248.003 258.310,247.923 258.181 C 247.625 257.699,248.489 257.429,250.332 257.427 C 251.375 257.426,252.381 257.330,252.569 257.214 C 252.808 257.067,252.845 257.109,252.692 257.356 C 252.532 257.615,252.597 257.661,252.939 257.530 C 253.194 257.432,253.685 257.352,254.028 257.352 C 254.372 257.352,254.837 257.168,255.061 256.943 C 255.286 256.718,255.504 256.554,255.546 256.578 C 255.588 256.602,256.281 256.528,257.086 256.414 C 257.891 256.299,259.029 256.175,259.614 256.138 C 260.200 256.100,260.679 256.042,260.679 256.008 C 260.679 255.974,261.337 255.919,262.142 255.886 C 262.947 255.853,263.786 255.754,264.005 255.666 C 264.225 255.578,264.644 255.532,264.937 255.564 C 265.262 255.599,265.440 255.483,265.394 255.264 C 265.353 255.068,265.473 254.961,265.660 255.027 C 265.848 255.093,266.263 255.050,266.582 254.932 C 266.963 254.791,267.208 254.827,267.293 255.037 C 267.389 255.273,267.429 255.268,267.444 255.018 C 267.458 254.788,267.689 254.737,268.170 254.857 C 268.604 254.966,268.813 254.934,268.714 254.774 C 268.625 254.630,268.727 254.513,268.941 254.513 C 269.154 254.513,269.328 254.613,269.328 254.735 C 269.328 254.857,269.513 254.957,269.739 254.957 C 269.983 254.957,270.118 254.767,270.072 254.491 C 270.006 254.102,270.201 254.025,271.258 254.025 C 271.953 254.025,272.522 253.951,272.522 253.860 C 272.522 253.770,272.731 253.696,272.987 253.697 C 274.097 253.702,274.407 253.611,274.235 253.333 C 274.115 253.140,274.256 253.149,274.651 253.360 C 275.046 253.571,275.186 253.580,275.066 253.386 C 274.889 253.099,275.541 252.972,276.609 253.085 C 276.881 253.114,277.031 253.019,276.942 252.874 C 276.846 252.720,276.999 252.669,277.312 252.750 C 277.605 252.827,277.844 252.769,277.844 252.621 C 277.844 252.318,279.930 252.045,280.038 252.333 C 280.179 252.712,281.570 252.228,281.574 251.799 C 281.578 251.421,281.612 251.416,281.836 251.763 C 282.024 252.053,282.095 252.067,282.098 251.814 C 282.101 251.622,282.222 251.540,282.369 251.630 C 282.515 251.721,282.637 251.638,282.639 251.446 C 282.642 251.193,282.713 251.207,282.901 251.497 C 283.043 251.717,283.161 251.760,283.163 251.593 C 283.167 251.310,284.756 250.824,285.496 250.880 C 285.679 250.894,285.828 250.799,285.828 250.669 C 285.828 250.539,286.068 250.432,286.361 250.432 C 286.653 250.432,286.893 250.329,286.893 250.203 C 286.893 250.077,287.312 250.008,287.824 250.048 C 288.337 250.089,288.756 250.005,288.756 249.861 C 288.756 249.718,288.965 249.621,289.222 249.645 C 289.892 249.710,290.885 249.351,290.885 249.044 C 290.885 248.894,291.392 248.833,292.073 248.901 C 292.752 248.969,293.197 248.916,293.111 248.777 C 293.028 248.643,293.122 248.556,293.320 248.583 C 293.518 248.610,293.919 248.610,294.212 248.582 L 294.744 248.532 294.212 248.303 C 293.718 248.091,293.728 248.070,294.345 248.015 C 294.711 247.983,295.130 247.928,295.276 247.894 C 295.422 247.860,295.759 247.819,296.024 247.802 C 296.288 247.785,296.432 247.653,296.343 247.509 C 296.246 247.351,296.504 247.284,296.986 247.340 C 297.429 247.391,297.736 247.344,297.668 247.234 C 297.600 247.124,297.842 246.977,298.207 246.907 C 298.589 246.834,298.873 246.906,298.877 247.076 C 298.882 247.239,299.046 247.160,299.243 246.902 C 299.455 246.622,299.775 246.498,300.033 246.597 C 300.271 246.689,300.466 246.644,300.466 246.498 C 300.466 246.175,301.682 245.812,302.595 245.863 C 303.200 245.896,303.212 245.878,302.728 245.656 C 302.233 245.430,303.131 245.208,303.992 245.344 C 304.102 245.362,304.192 245.267,304.192 245.135 C 304.192 245.002,304.450 244.961,304.766 245.044 C 305.159 245.146,305.279 245.097,305.149 244.886 C 305.028 244.690,305.159 244.578,305.507 244.578 C 305.808 244.578,306.055 244.473,306.055 244.345 C 306.055 244.217,306.324 244.099,306.653 244.084 C 308.320 244.008,308.941 243.838,309.517 243.301 C 309.863 242.979,310.384 242.715,310.675 242.715 C 310.965 242.715,311.421 242.516,311.689 242.274 C 312.031 241.964,312.176 241.934,312.176 242.174 C 312.176 242.435,312.262 242.442,312.548 242.205 C 312.752 242.035,313.193 241.844,313.526 241.779 C 313.860 241.715,314.220 241.521,314.327 241.348 C 314.434 241.175,314.964 241.018,315.506 241.000 C 316.093 240.979,316.624 240.783,316.821 240.514 C 317.003 240.265,317.411 240.023,317.728 239.974 C 318.045 239.926,318.446 239.744,318.620 239.571 C 318.793 239.397,319.112 239.255,319.327 239.255 C 319.542 239.255,319.958 239.045,320.251 238.789 C 320.544 238.533,320.696 238.473,320.589 238.656 C 320.309 239.135,320.697 239.065,321.696 238.455 C 322.176 238.163,322.782 237.924,323.043 237.924 C 323.305 237.924,323.751 237.709,324.035 237.445 C 324.585 236.934,325.486 236.482,325.815 236.551 C 325.925 236.574,326.015 236.488,326.015 236.358 C 326.015 236.101,326.844 235.779,327.860 235.641 C 328.217 235.593,328.613 235.366,328.741 235.136 C 328.870 234.907,329.075 234.781,329.197 234.856 C 329.319 234.932,329.485 234.821,329.565 234.611 C 329.646 234.400,330.198 234.083,330.791 233.905 C 331.384 233.727,331.870 233.510,331.870 233.423 C 331.870 233.143,333.444 232.556,333.726 232.730 C 333.875 232.823,334.403 232.456,334.898 231.916 C 335.482 231.278,335.916 231.007,336.137 231.143 C 336.338 231.268,336.410 231.246,336.314 231.090 C 336.158 230.838,338.580 229.674,339.260 229.674 C 339.440 229.674,339.587 229.507,339.587 229.303 C 339.587 228.902,340.299 228.525,340.648 228.740 C 340.766 228.813,340.931 228.694,341.015 228.475 C 341.099 228.256,341.324 228.077,341.516 228.077 C 341.708 228.077,342.078 227.828,342.339 227.523 C 342.600 227.218,342.986 227.034,343.197 227.115 C 343.438 227.208,343.581 227.092,343.584 226.805 C 343.587 226.411,343.624 226.403,343.850 226.747 C 344.072 227.085,344.134 227.065,344.260 226.613 C 344.348 226.296,345.046 225.773,345.986 225.318 C 346.854 224.898,347.499 224.449,347.419 224.320 C 347.301 224.129,347.932 223.969,348.170 224.130 C 348.424 224.302,349.415 223.467,349.266 223.207 C 349.165 223.031,349.178 222.974,349.295 223.079 C 349.585 223.341,351.031 222.279,351.031 221.805 C 351.031 221.338,351.559 221.291,351.574 221.756 C 351.580 221.939,351.764 221.760,351.982 221.357 C 352.200 220.955,352.525 220.627,352.703 220.629 C 352.911 220.632,352.887 220.722,352.636 220.881 C 352.420 221.017,352.318 221.202,352.407 221.292 C 352.497 221.381,352.832 221.087,353.152 220.638 C 353.472 220.188,353.834 219.883,353.956 219.959 C 354.079 220.034,354.221 220.006,354.271 219.895 C 354.490 219.415,356.118 218.139,356.552 218.107 C 357.205 218.059,357.723 217.709,357.552 217.433 C 357.474 217.307,357.652 217.127,357.947 217.034 C 358.242 216.940,358.483 216.760,358.483 216.633 C 358.483 216.507,358.721 216.328,359.011 216.236 C 359.650 216.033,361.683 214.067,361.472 213.856 C 361.389 213.773,361.499 213.706,361.716 213.706 C 361.932 213.706,362.454 213.347,362.874 212.908 C 363.295 212.468,363.856 212.109,364.122 212.109 C 364.387 212.109,364.604 211.938,364.604 211.729 C 364.604 211.197,365.387 210.471,365.731 210.684 C 365.894 210.785,365.940 210.737,365.839 210.573 C 365.741 210.414,365.905 210.207,366.206 210.112 C 366.876 209.899,367.912 208.941,368.139 208.324 C 368.232 208.072,368.762 207.652,369.317 207.390 C 369.872 207.129,370.328 206.796,370.330 206.651 C 370.338 206.155,370.761 205.713,371.055 205.894 C 371.247 206.013,371.286 205.913,371.167 205.603 C 371.030 205.247,371.088 205.170,371.401 205.290 C 371.630 205.378,371.754 205.347,371.677 205.222 C 371.599 205.097,371.773 204.780,372.062 204.519 C 372.351 204.257,372.588 204.136,372.588 204.249 C 372.588 204.363,372.766 204.308,372.984 204.128 C 373.202 203.947,373.315 203.692,373.235 203.563 C 373.155 203.433,373.216 203.327,373.371 203.327 C 373.526 203.327,373.653 203.195,373.653 203.034 C 373.653 202.702,375.173 201.209,375.340 201.377 C 375.575 201.612,376.815 199.829,376.674 199.461 C 376.591 199.245,376.626 199.064,376.751 199.059 C 376.877 199.054,377.339 198.741,377.778 198.364 C 378.217 197.988,378.397 197.764,378.177 197.868 C 377.957 197.972,378.206 197.656,378.730 197.166 C 379.254 196.675,379.833 195.963,380.017 195.583 C 380.466 194.658,381.397 193.615,381.961 193.406 C 382.213 193.313,382.496 192.932,382.589 192.560 C 382.683 192.187,382.873 191.883,383.012 191.883 C 383.151 191.883,383.209 191.792,383.140 191.680 C 382.967 191.401,383.534 190.689,384.098 190.478 C 384.804 190.213,384.700 189.224,383.965 189.210 C 383.636 189.204,379.393 189.206,374.537 189.215 C 368.801 189.227,365.648 189.137,365.539 188.961 C 365.439 188.799,364.274 188.710,362.659 188.741 L 359.947 188.793 362.741 188.955 L 365.536 189.117 362.958 189.169 C 361.540 189.198,360.073 189.105,359.698 188.962 C 359.323 188.819,359.001 188.789,358.984 188.895 M249.501 257.884 C 249.591 258.031,249.831 258.150,250.033 258.150 C 250.236 258.150,250.475 258.031,250.566 257.884 C 250.659 257.733,250.430 257.618,250.033 257.618 C 249.637 257.618,249.407 257.733,249.501 257.884 " stroke="none" fill="#46814c" fill-rule="evenodd"></path><path id="path4" d="M168.355 2.620 C 168.279 2.744,166.984 2.925,165.479 3.022 C 162.257 3.230,160.774 3.411,160.401 3.641 C 160.247 3.736,160.212 3.676,160.321 3.501 C 160.441 3.307,160.309 3.194,159.962 3.194 C 159.661 3.194,159.414 3.283,159.414 3.393 C 159.414 3.503,158.905 3.618,158.283 3.648 C 156.989 3.711,154.743 3.983,153.959 4.172 C 153.172 4.362,149.340 4.794,147.971 4.847 C 147.751 4.856,147.444 4.962,147.289 5.084 C 147.133 5.206,145.995 5.381,144.760 5.475 C 143.525 5.568,142.395 5.735,142.249 5.847 C 141.989 6.046,138.517 6.634,136.925 6.749 C 136.486 6.781,136.004 6.882,135.855 6.974 C 135.603 7.130,133.896 7.461,132.668 7.593 C 132.375 7.624,131.956 7.708,131.737 7.780 C 129.508 8.507,128.447 8.759,127.127 8.876 C 126.276 8.952,125.414 9.151,125.212 9.318 C 125.010 9.486,124.210 9.722,123.434 9.842 C 122.658 9.963,121.783 10.129,121.490 10.210 C 119.619 10.734,117.892 11.084,117.772 10.964 C 117.695 10.886,117.631 10.963,117.631 11.133 C 117.631 11.304,117.339 11.444,116.982 11.444 C 116.624 11.444,116.267 11.549,116.188 11.677 C 116.109 11.805,115.773 11.912,115.441 11.916 C 115.109 11.920,114.287 12.162,113.615 12.454 C 112.943 12.746,111.845 13.060,111.175 13.151 C 110.505 13.241,109.618 13.493,109.203 13.709 C 108.789 13.925,108.210 14.103,107.917 14.105 C 107.625 14.107,107.026 14.297,106.587 14.527 C 106.148 14.757,105.326 15.002,104.760 15.071 C 104.195 15.140,103.468 15.370,103.145 15.582 C 102.822 15.793,102.237 15.993,101.845 16.025 C 101.452 16.058,101.131 16.168,101.131 16.271 C 101.131 16.374,100.772 16.537,100.333 16.633 C 99.894 16.730,99.534 16.908,99.534 17.030 C 99.534 17.152,99.025 17.336,98.403 17.439 C 97.781 17.541,96.973 17.775,96.607 17.957 C 95.792 18.364,94.429 18.856,93.014 19.253 C 92.428 19.417,91.890 19.620,91.816 19.703 C 91.743 19.786,91.124 20.064,90.440 20.320 C 89.756 20.577,89.053 20.960,88.877 21.172 C 88.701 21.384,88.236 21.557,87.843 21.557 C 87.449 21.557,86.895 21.735,86.611 21.952 C 86.327 22.169,85.615 22.481,85.030 22.645 C 84.444 22.809,83.900 23.047,83.821 23.175 C 83.741 23.302,83.442 23.447,83.155 23.496 C 82.869 23.545,82.230 23.838,81.735 24.146 C 81.240 24.455,80.693 24.653,80.520 24.586 C 80.347 24.520,79.889 24.758,79.502 25.116 C 79.116 25.474,78.435 25.848,77.989 25.945 C 77.544 26.043,77.179 26.244,77.179 26.391 C 77.179 26.538,77.030 26.608,76.849 26.548 C 76.667 26.487,76.359 26.597,76.164 26.792 C 75.970 26.986,75.579 27.146,75.297 27.146 C 75.015 27.146,74.784 27.265,74.784 27.412 C 74.784 27.558,74.604 27.678,74.385 27.678 C 74.165 27.678,73.985 27.774,73.985 27.892 C 73.985 28.009,73.368 28.327,72.613 28.599 C 71.858 28.870,71.045 29.283,70.805 29.516 C 70.566 29.749,70.135 29.977,69.849 30.022 C 69.562 30.067,69.129 30.337,68.885 30.622 C 68.569 30.992,68.403 31.045,68.307 30.807 C 68.200 30.541,68.168 30.541,68.151 30.805 C 68.140 30.988,67.951 31.138,67.731 31.138 C 67.512 31.138,67.332 31.253,67.332 31.394 C 67.332 31.534,66.853 31.778,66.267 31.936 C 65.682 32.094,65.203 32.326,65.203 32.452 C 65.203 32.578,64.754 32.918,64.205 33.207 C 61.702 34.528,61.332 34.749,61.148 35.034 C 61.040 35.200,60.651 35.412,60.283 35.504 C 59.915 35.597,59.614 35.790,59.614 35.933 C 59.614 36.077,59.443 36.194,59.234 36.194 C 59.025 36.194,58.695 36.344,58.502 36.527 C 57.874 37.121,56.000 38.323,55.703 38.323 C 55.543 38.323,55.337 38.520,55.245 38.761 C 55.153 39.001,55.009 39.130,54.927 39.047 C 54.844 38.964,54.410 39.247,53.962 39.675 C 53.514 40.102,53.005 40.452,52.829 40.452 C 52.654 40.452,52.294 40.692,52.029 40.985 C 51.764 41.277,51.386 41.517,51.190 41.517 C 50.993 41.517,50.832 41.622,50.832 41.751 C 50.832 41.879,50.481 42.130,50.052 42.307 C 49.624 42.485,49.208 42.799,49.129 43.005 C 49.050 43.211,48.795 43.380,48.562 43.380 C 48.329 43.380,48.213 43.500,48.303 43.646 C 48.394 43.792,48.277 43.912,48.045 43.912 C 47.812 43.912,47.552 44.092,47.468 44.311 C 47.384 44.531,47.170 44.711,46.992 44.711 C 46.815 44.711,46.423 44.980,46.121 45.309 C 45.820 45.639,45.173 46.208,44.685 46.574 C 44.197 46.939,43.583 47.448,43.322 47.705 C 43.061 47.961,42.728 48.170,42.582 48.170 C 42.435 48.170,42.315 48.357,42.315 48.585 C 42.315 48.813,42.214 48.937,42.089 48.860 C 41.965 48.784,41.607 49.016,41.293 49.377 C 40.979 49.738,40.535 50.033,40.305 50.033 C 40.076 50.033,39.968 50.161,40.064 50.317 C 40.161 50.474,39.989 50.667,39.681 50.748 C 39.373 50.828,39.122 51.053,39.122 51.247 C 39.122 51.442,38.792 51.765,38.390 51.966 C 37.987 52.167,37.687 52.469,37.722 52.638 C 37.757 52.807,37.518 53.083,37.190 53.252 C 36.862 53.421,36.271 53.904,35.877 54.325 C 35.482 54.746,35.033 55.090,34.879 55.090 C 34.724 55.090,34.597 55.220,34.597 55.379 C 34.597 55.538,33.469 56.791,32.090 58.163 C 30.711 59.536,29.506 60.902,29.411 61.201 C 29.316 61.499,29.146 61.743,29.032 61.743 C 28.917 61.743,28.384 62.192,27.846 62.741 C 26.314 64.305,26.081 64.570,26.081 64.756 C 26.081 64.972,25.310 65.933,24.684 66.498 C 24.428 66.729,24.218 67.051,24.218 67.214 C 24.218 67.377,23.889 67.826,23.486 68.212 C 22.201 69.445,21.823 69.898,21.823 70.202 C 21.823 70.365,21.633 70.606,21.400 70.736 C 21.146 70.878,21.013 71.230,21.067 71.614 L 21.158 72.255 33.866 72.329 C 45.107 72.393,46.574 72.355,46.574 71.996 C 46.574 71.773,46.699 71.590,46.852 71.590 C 47.177 71.590,48.436 70.290,48.436 69.954 C 48.436 69.829,48.564 69.727,48.721 69.727 C 48.877 69.727,49.717 69.009,50.587 68.130 C 51.457 67.252,52.287 66.534,52.432 66.534 C 52.576 66.534,52.695 66.350,52.695 66.126 C 52.695 65.902,52.904 65.638,53.160 65.540 C 53.839 65.279,54.822 64.228,54.608 63.991 C 54.507 63.879,54.557 63.862,54.719 63.955 C 55.011 64.121,55.534 63.702,56.319 62.675 C 56.543 62.382,56.636 62.322,56.525 62.542 C 56.415 62.761,56.691 62.582,57.139 62.142 C 57.587 61.703,58.417 60.959,58.983 60.488 C 59.550 60.018,60.301 59.389,60.653 59.091 C 61.005 58.793,61.396 58.550,61.523 58.550 C 61.651 58.550,61.891 58.250,62.058 57.884 C 62.224 57.518,62.538 57.219,62.753 57.219 C 62.969 57.219,63.417 56.927,63.747 56.570 C 64.078 56.213,64.418 55.991,64.503 56.076 C 64.588 56.161,64.734 56.034,64.826 55.793 C 64.918 55.553,65.162 55.356,65.367 55.356 C 65.572 55.356,65.945 55.116,66.196 54.824 C 66.447 54.531,66.797 54.291,66.974 54.291 C 67.151 54.291,67.373 54.050,67.466 53.755 C 67.560 53.460,67.748 53.288,67.885 53.373 C 68.022 53.458,68.206 53.340,68.294 53.111 C 68.382 52.882,68.620 52.695,68.824 52.695 C 69.028 52.695,69.434 52.455,69.727 52.162 C 70.020 51.870,70.259 51.717,70.259 51.822 C 70.259 51.928,70.607 51.634,71.032 51.169 C 71.458 50.703,72.108 50.246,72.477 50.154 C 72.846 50.061,73.213 49.816,73.292 49.610 C 73.372 49.404,73.607 49.235,73.815 49.235 C 74.024 49.235,74.254 49.085,74.327 48.902 C 74.400 48.719,74.921 48.331,75.486 48.040 C 76.051 47.749,76.609 47.359,76.726 47.175 C 76.844 46.991,77.114 46.840,77.328 46.840 C 77.542 46.840,77.922 46.600,78.172 46.307 C 78.423 46.015,78.781 45.775,78.968 45.775 C 79.155 45.775,79.308 45.670,79.308 45.541 C 79.308 45.413,79.697 45.148,80.173 44.952 C 80.649 44.757,81.266 44.387,81.544 44.131 C 81.822 43.874,82.152 43.728,82.278 43.805 C 82.403 43.883,82.577 43.759,82.664 43.531 C 82.752 43.303,82.932 43.184,83.064 43.265 C 83.196 43.347,83.373 43.234,83.457 43.014 C 83.542 42.794,83.950 42.540,84.365 42.448 C 84.779 42.357,85.185 42.111,85.265 41.900 C 85.346 41.689,85.596 41.517,85.820 41.517 C 86.044 41.517,86.228 41.397,86.228 41.251 C 86.228 41.104,86.317 41.004,86.427 41.028 C 86.818 41.112,88.090 40.461,88.090 40.177 C 88.090 40.019,88.210 39.963,88.357 40.053 C 88.503 40.144,88.624 40.121,88.626 40.002 C 88.627 39.884,89.103 39.560,89.682 39.283 C 90.261 39.005,90.672 38.676,90.595 38.551 C 90.518 38.426,90.691 38.323,90.980 38.323 C 91.747 38.323,92.368 38.038,92.198 37.763 C 92.117 37.632,92.341 37.525,92.696 37.525 C 93.051 37.525,93.646 37.285,94.018 36.993 C 94.390 36.700,94.889 36.460,95.127 36.460 C 95.365 36.460,95.625 36.288,95.706 36.077 C 95.787 35.867,96.202 35.618,96.629 35.524 C 97.056 35.430,97.406 35.273,97.408 35.175 C 97.409 35.077,97.948 34.760,98.605 34.471 C 99.263 34.182,99.800 33.872,99.800 33.782 C 99.800 33.692,100.309 33.458,100.931 33.261 C 101.554 33.065,102.218 32.787,102.408 32.644 C 103.010 32.188,106.839 30.343,107.186 30.341 C 107.369 30.340,107.518 30.220,107.518 30.073 C 107.518 29.927,107.630 29.807,107.767 29.807 C 107.904 29.807,108.353 29.668,108.765 29.498 C 109.177 29.328,109.604 29.208,109.714 29.232 C 109.824 29.255,109.914 29.148,109.914 28.993 C 109.914 28.838,110.019 28.776,110.148 28.856 C 110.278 28.936,110.686 28.764,111.055 28.473 C 111.425 28.182,111.911 27.944,112.135 27.944 C 112.360 27.944,112.619 27.822,112.711 27.674 C 112.803 27.525,112.990 27.473,113.128 27.558 C 113.265 27.642,113.565 27.525,113.794 27.296 C 114.022 27.067,114.501 26.880,114.856 26.880 C 115.211 26.880,115.502 26.769,115.502 26.634 C 115.502 26.499,115.951 26.244,116.500 26.067 C 117.049 25.890,117.618 25.655,117.764 25.545 C 117.911 25.435,118.420 25.261,118.896 25.159 C 119.371 25.058,119.760 24.864,119.760 24.729 C 119.760 24.595,120.047 24.484,120.397 24.484 C 120.748 24.484,121.097 24.320,121.175 24.119 C 121.252 23.917,121.863 23.671,122.534 23.570 C 123.204 23.469,123.752 23.284,123.752 23.159 C 123.752 23.033,124.135 22.846,124.602 22.743 C 125.070 22.641,125.617 22.391,125.819 22.190 C 126.021 21.988,126.407 21.823,126.677 21.823 C 126.947 21.823,127.747 21.564,128.454 21.247 C 129.162 20.931,129.831 20.691,129.941 20.715 C 130.051 20.739,130.762 20.459,131.521 20.093 C 132.280 19.727,133.088 19.427,133.317 19.426 C 133.545 19.425,134.083 19.242,134.512 19.018 C 134.941 18.794,135.720 18.543,136.242 18.461 C 136.765 18.378,137.252 18.218,137.325 18.106 C 137.491 17.852,138.707 17.437,139.026 17.525 C 139.157 17.561,139.696 17.381,140.224 17.125 C 140.752 16.869,141.349 16.633,141.551 16.599 C 142.592 16.425,145.043 15.573,145.043 15.385 C 145.043 15.267,145.313 15.169,145.642 15.168 C 145.971 15.167,146.586 14.986,147.008 14.766 C 147.429 14.546,148.112 14.307,148.524 14.234 C 148.937 14.162,149.580 13.986,149.953 13.844 C 150.327 13.702,150.632 13.667,150.632 13.766 C 150.632 13.865,150.776 13.802,150.951 13.626 C 151.127 13.450,151.636 13.303,152.083 13.298 C 152.529 13.294,153.120 13.119,153.396 12.910 C 153.672 12.701,154.450 12.450,155.126 12.353 C 155.801 12.255,156.474 12.086,156.620 11.977 C 156.766 11.868,157.335 11.698,157.884 11.599 C 158.433 11.501,158.882 11.305,158.882 11.166 C 158.882 11.026,159.237 10.912,159.671 10.912 C 160.105 10.912,160.974 10.741,161.601 10.532 C 162.228 10.323,163.160 10.089,163.673 10.012 C 164.185 9.934,165.143 9.671,165.802 9.427 C 166.460 9.183,167.321 8.999,167.714 9.019 C 168.107 9.038,168.504 8.931,168.597 8.781 C 168.690 8.631,168.883 8.580,169.025 8.668 C 169.168 8.756,169.441 8.698,169.633 8.540 C 169.824 8.381,170.567 8.172,171.284 8.077 C 172.001 7.981,172.676 7.771,172.784 7.610 C 172.914 7.416,172.981 7.441,172.983 7.684 C 172.986 7.945,173.082 7.971,173.320 7.774 C 173.662 7.492,175.609 7.030,176.001 7.138 C 176.122 7.172,176.155 7.092,176.074 6.962 C 175.994 6.832,176.537 6.654,177.280 6.566 C 178.024 6.478,178.822 6.252,179.055 6.064 C 179.377 5.803,179.430 5.800,179.277 6.055 C 179.167 6.238,179.204 6.387,179.359 6.387 C 179.514 6.387,179.641 6.293,179.641 6.178 C 179.641 5.987,183.391 5.306,184.503 5.295 C 184.763 5.293,184.916 5.195,184.844 5.078 C 184.772 4.962,185.577 4.792,186.634 4.701 C 188.898 4.507,189.242 4.447,189.696 4.163 C 189.884 4.046,190.940 3.881,192.043 3.798 C 193.146 3.715,193.903 3.557,193.725 3.447 C 193.547 3.337,193.470 3.070,193.553 2.853 C 193.691 2.496,189.151 2.328,188.024 2.649 C 187.878 2.690,187.698 2.695,187.625 2.659 C 187.115 2.408,178.942 2.469,178.633 2.725 C 178.362 2.950,178.221 2.948,178.079 2.717 C 177.874 2.386,170.537 2.423,169.261 2.762 C 168.707 2.909,168.685 2.896,169.128 2.686 C 169.645 2.440,169.643 2.432,169.078 2.414 C 168.757 2.404,168.432 2.497,168.355 2.620 " stroke="none" fill="#dc5c04" fill-rule="evenodd"></path></g></svg>